fira-sans_semibold.sfdir
StartChar: exclam
Encoding: 33 33 2122
Width: 241
Flags: MW
HStem: -16 171<96.5 144> 672 20G<43 195 195 195>
VStem: 35 171<46.5 93> 52.5 134
LayerCount: 2
Back
Fore
SplineSet
195 692 m 1xd0
 178 249 l 1
 62 249 l 1
 43 692 l 1
 195 692 l 1xd0
120 155 m 0xe0
 168 155 206 116 206 70 c 0
 206 23 168 -16 120 -16 c 0
 73 -16 35 23 35 70 c 0
 35 116 73 155 120 155 c 0xe0
EndSplineSet
EndChar

StartChar: quotedbl
Encoding: 34 34 991
Width: 430
Flags: MW
HStem: 417 275<69 165 69 69 265 265 265 361>
VStem: 60 114 256 114
LayerCount: 2
Fore
SplineSet
51 692 m 1
 183 692 l 1
 165 417 l 1
 69 417 l 1
 51 692 l 1
247 692 m 1
 379 692 l 1
 361 417 l 1
 265 417 l 1
 247 692 l 1
EndSplineSet
EndChar
StartChar: numbersign
Encoding: 35 35 2124
Width: 547
Flags: MW
HStem: 0 21G<53 171 53 53 285 403 285 285> 148 96<15 73 15 85 204 304 435 495> 442 96<52 112 52 124 242 343 474 532>
VStem: 15 517<148 442 244 442>
LayerCount: 2
Back
Fore
SplineSet
532 442 m 1
 461 442 l 1
 435 244 l 1
 495 244 l 1
 495 148 l 1
 422 148 l 1
 403 0 l 1
 285 0 l 1
 304 148 l 1
 191 148 l 1
 171 0 l 1
 53 0 l 1
 73 148 l 1
 15 148 l 1
 15 244 l 1
 85 244 l 1
 112 442 l 1
 52 442 l 1
 52 538 l 1
 124 538 l 1
 142 674 l 1
 260 674 l 1
 242 538 l 1
 356 538 l 1
 374 674 l 1
 492 674 l 1
 474 538 l 1
 532 538 l 1
 532 442 l 1
317 244 m 1
 343 442 l 1
 230 442 l 1
 204 244 l 1
 317 244 l 1
EndSplineSet
Substitution2: "'onum' Oldstyle Figures lookup 25 subtable" numbersign.osf
Substitution2: "'tnum' Tabular Numbers lookup 24 subtable" numbersign.tf
AlternateSubs2: "'aalt' Access All Alternates lookup 1 subtable" numbersign.tf numbersign.osf
EndChar
StartChar: ampersand
Encoding: 38 38 2373
Width: 784
GlyphClass: 2
Flags: MW
HStem: -16 103<294.5 350> 614 94<290 333.5>
VStem: 65 148<154 206.5 154 219> 105 137<525.5 565.5 525.5 587.5> 381 136<523 566.5>
LayerCount: 2
Back
Fore
SplineSet
310 708 m 0xe8
 439 708 517 640 517 550 c 0
 517 466 459 411 382 362 c 1
 528 226 l 1
 547 267 565 318 578 376 c 1
 699 340 l 1
 673 263 642 201 608 151 c 1
 727 45 l 1
 609 -16 l 1
 526 64 l 1
 465 10 393 -16 307 -16 c 0
 163 -16 65 60 65 177 c 0xe8
 65 261 112 316 201 373 c 1
 134 438 105 479 105 544 c 0xd8
 105 631 172 708 310 708 c 0xe8
312 614 m 0xd8
 268 614 242 586 242 545 c 0
 242 506 261 479 304 437 c 1
 354 469 381 501 381 545 c 0
 381 588 355 614 312 614 c 0xd8
282 296 m 1xe8
 235 263 213 229 213 184 c 0
 213 124 259 87 330 87 c 0
 379 87 418 103 453 133 c 1
 282 296 l 1xe8
EndSplineSet
Substitution2: "'ss03' Style Set 3 lookup 35 subtable" ampersand.ss03
Substitution2: "'aalt' Access All Alternates lookup 0 subtable" ampersand.ss03
EndChar

StartChar: quotesingle
Encoding: 39 39 992
Width: 234
Flags: MW
HStem: 417 275<69 165 69 69> 672 20G<51 183 183 183>
VStem: 60 114
LayerCount: 2
Fore
SplineSet
51 692 m 1x60
 183 692 l 1
 165 417 l 1
 69 417 l 1xa0
 51 692 l 1x60
EndSplineSet
EndChar
StartChar: parenleft
Encoding: 40 40 2154
Width: 324
Flags: MW
HStem: -155 1010<215 215>
VStem: 23 145<254 446 254 469>
LayerCount: 2
Back
Fore
SplineSet
215 855 m 1
 306 794 l 1
 214 662 168 542 168 350 c 0
 168 158 214 38 306 -94 c 1
 215 -155 l 1
 115 -17 23 112 23 350 c 0
 23 588 115 717 215 855 c 1
EndSplineSet
Substitution2: "'case' Case-Sensitive Forms lookup 28 subtable" parenleft.case
Substitution2: "'dnom' Denominators lookup 16 subtable" parenleft.dnom
Substitution2: "'numr' Numerators lookup 15 subtable" parenleft.numr
Substitution2: "'sups' Superscript lookup 14 subtable" uni207D
Substitution2: "'subs' Subscript lookup 13 subtable" uni208D
AlternateSubs2: "'aalt' Access All Alternates lookup 1 subtable" uni208D uni207D parenleft.numr parenleft.dnom parenleft.case
EndChar

StartChar: parenright
Encoding: 41 41 1008
Width: 324
Flags: MW
HStem: -155 1010<109 109>
VStem: 157 144<254 446>
LayerCount: 2
Fore
SplineSet
109 855 m 1
 209 717 301 588 301 350 c 0
 301 112 209 -17 109 -155 c 1
 19 -94 l 1
 111 38 157 158 157 350 c 0
 157 542 111 662 19 794 c 1
 109 855 l 1
EndSplineSet
Substitution2: "'case' Case-Sensitive Forms lookup 25 subtable" parenright.case
Substitution2: "'dnom' Denominators lookup 14 subtable" parenright.dnom
Substitution2: "'numr' Numerators lookup 13 subtable" parenright.numr
Substitution2: "'sups' Superscript lookup 12 subtable" parenrightsuperior
Substitution2: "'subs' Subscript lookup 11 subtable" uni208E
AlternateSubs2: "'aalt' Access All Alternates lookup 1 subtable" uni208E parenrightsuperior parenright.numr parenright.dnom parenright.case
EndChar
StartChar: asterisk
Encoding: 42 42 2112
Width: 447
Flags: MW
HStem: 521 20G<11 11> 721 20G<161 286 286 286>
VStem: 11 425<541 542>
LayerCount: 2
Back
Fore
SplineSet
436 542 m 1
 292 516 l 1
 394 411 l 1
 293 337 l 1
 223 466 l 1
 155 336 l 1
 54 410 l 1
 155 516 l 1
 11 541 l 1
 49 657 l 1
 180 594 l 1
 161 741 l 1
 286 741 l 1
 266 593 l 1
 397 658 l 1
 436 542 l 1
EndSplineSet
EndChar

StartChar: plus
Encoding: 43 43 1113
Width: 523
Flags: MW
HStem: 276 111<52 201 52 201 321 471> 522 20G<201 321 321 321>
VStem: 201 120<122 276 122 276 387 542>
LayerCount: 2
Fore
SplineSet
321 387 m 1
 471 387 l 1
 471 276 l 1
 321 276 l 1
 321 122 l 1
 201 122 l 1
 201 276 l 1
 52 276 l 1
 52 387 l 1
 201 387 l 1
 201 542 l 1
 321 542 l 1
 321 387 l 1
EndSplineSet
Substitution2: "'onum' Oldstyle Figures lookup 22 subtable" plus.osf
Substitution2: "'tnum' Tabular Numbers lookup 21 subtable" plus.tf
Substitution2: "'dnom' Denominators lookup 14 subtable" plus.dnom
Substitution2: "'numr' Numerators lookup 13 subtable" plus.numr
Substitution2: "'sups' Superscript lookup 12 subtable" plussuperior
Substitution2: "'subs' Subscript lookup 11 subtable" uni208A
AlternateSubs2: "'aalt' Access All Alternates lookup 1 subtable" uni208A plussuperior plus.numr plus.dnom plus.tf plus.osf
EndChar

StartChar: comma
Encoding: 44 44 983
Width: 240
Flags: MW
HStem: 0 21G<71 71>
VStem: 34 171<56 94 56 94>
LayerCount: 2
Fore
SplineSet
119 155 m 0
 168 155 205 118 205 70 c 0
 205 42 196 16 177 -28 c 2
 112 -174 l 1
 29 -174 l 1
 71 0 l 1
 48 15 34 41 34 70 c 0
 34 118 71 155 119 155 c 0
EndSplineSet
EndChar
StartChar: hyphen
Encoding: 45 45 2166
Width: 406
Flags: MW
HStem: 257 112<48 358 48 358>
VStem: 48 310<257 369 257 369>
LayerCount: 2
Back
Fore
SplineSet
48 257 m 1
 48 369 l 1
 358 369 l 1
 358 257 l 1
 48 257 l 1
EndSplineSet
Substitution2: "'case' Case-Sensitive Forms lookup 28 subtable" hyphen.case
Substitution2: "'aalt' Access All Alternates lookup 0 subtable" hyphen.case
EndChar
StartChar: period
Encoding: 46 46 2126
Width: 240
Flags: MW
HStem: -16 171<95.5 143>
VStem: 34 171<46.5 93>
LayerCount: 2
Back
Fore
SplineSet
119 155 m 0
 167 155 205 116 205 70 c 0
 205 23 167 -16 119 -16 c 0
 72 -16 34 23 34 70 c 0
 34 116 72 155 119 155 c 0
EndSplineSet
EndChar
StartChar: slash
Encoding: 47 47 2132
Width: 520
Flags: MW
HStem: -110 924<205 316>
VStem: 81 358
LayerCount: 2
Back
Fore
SplineSet
316 814 m 1
 439 786 l 1
 205 -110 l 1
 81 -81 l 1
 316 814 l 1
EndSplineSet
Substitution2: "'frac' Diagonal Fractions lookup 17 subtable" fraction
Substitution2: "'aalt' Access All Alternates lookup 0 subtable" fraction
EndChar
StartChar: zero
Encoding: 48 48 2011
Width: 579
Flags: MW
HStem: -16 107<254 324 254 370.5> 581 106<254 324>
VStem: 42 146<244.5 427.5 244.5 449> 391 146<243 429.5>
LayerCount: 2
Back
Fore
SplineSet
289 687 m 0
 452 687 537 562 537 336 c 0
 537 111 452 -16 289 -16 c 0
 127 -16 42 111 42 336 c 0
 42 562 127 687 289 687 c 0
289 581 m 0
 219 581 188 519 188 336 c 0
 188 153 219 91 289 91 c 0
 359 91 391 150 391 336 c 0
 391 523 359 581 289 581 c 0
EndSplineSet
Substitution2: "'zero' Slashed Zero lookup 31 subtable" zero.zero
Substitution2: "'onum' Oldstyle Figures lookup 25 subtable" zero.osf
Substitution2: "'tnum' Tabular Numbers lookup 24 subtable" zero.tf
Substitution2: "'frac' Diagonal Fractions lookup 18 subtable" zero.numr
Substitution2: "'dnom' Denominators lookup 16 subtable" zero.dnom
Substitution2: "'numr' Numerators lookup 15 subtable" zero.numr
Substitution2: "'sups' Superscript lookup 14 subtable" uni2070
Substitution2: "'subs' Subscript lookup 13 subtable" uni2080
AlternateSubs2: "'aalt' Access All Alternates lookup 1 subtable" uni2080 uni2070 zero.numr zero.dnom zero.tf zero.osf zero.zero
EndChar

StartChar: one
Encoding: 49 49 878
Width: 456
Flags: MW
HStem: 0 21G<228 367 228 228> 519 20G<18 18>
VStem: 228 139<0 534 534 534>
LayerCount: 2
Fore
SplineSet
367 0 m 1
 228 0 l 1
 228 534 l 1
 80 443 l 1
 18 539 l 1
 242 674 l 1
 367 674 l 1
 367 0 l 1
EndSplineSet
Substitution2: "'onum' Oldstyle Figures lookup 22 subtable" one.osf
Substitution2: "'tnum' Tabular Numbers lookup 21 subtable" one.tf
Substitution2: "'frac' Diagonal Fractions lookup 16 subtable" one.numr
Substitution2: "'dnom' Denominators lookup 14 subtable" one.dnom
Substitution2: "'numr' Numerators lookup 13 subtable" one.numr
Substitution2: "'sups' Superscript lookup 12 subtable" onesuperior
Substitution2: "'subs' Subscript lookup 11 subtable" oneinferior
AlternateSubs2: "'aalt' Access All Alternates lookup 1 subtable" oneinferior onesuperior one.numr one.dnom one.tf one.osf
EndChar
StartChar: two
Encoding: 50 50 2013
Width: 512
Flags: MW
HStem: 0 110<193 460> 577 110<197.5 250.5>
VStem: 315 146<441.5 513>
LayerCount: 2
Back
Fore
SplineSet
236 687 m 0
 380 687 461 601 461 496 c 0
 461 387 402 306 193 110 c 1
 476 110 l 1
 460 0 l 1
 31 0 l 1
 31 103 l 1
 260 332 315 394 315 484 c 0
 315 542 278 577 223 577 c 0
 172 577 137 555 97 506 c 1
 11 574 l 1
 65 645 139 687 236 687 c 0
EndSplineSet
Substitution2: "'onum' Oldstyle Figures lookup 25 subtable" two.osf
Substitution2: "'tnum' Tabular Numbers lookup 24 subtable" two.tf
Substitution2: "'frac' Diagonal Fractions lookup 18 subtable" two.numr
Substitution2: "'dnom' Denominators lookup 16 subtable" two.dnom
Substitution2: "'numr' Numerators lookup 15 subtable" two.numr
Substitution2: "'sups' Superscript lookup 14 subtable" uni00B2
Substitution2: "'subs' Subscript lookup 13 subtable" uni2082
AlternateSubs2: "'aalt' Access All Alternates lookup 1 subtable" uni2082 uni00B2 two.numr two.dnom two.tf two.osf
EndChar
StartChar: three
Encoding: 51 51 2014
Width: 515
Flags: MW
HStem: -16 110<191 251 191 305.5> 302 100<176 213 213 214 159 213> 580 107<195.5 250>
VStem: 316 138<474.5 523> 330 146<166.5 237.5>
LayerCount: 2
Back
Fore
SplineSet
235 687 m 0xf0
 378 687 454 610 454 516 c 0xf0
 454 433 403 379 322 357 c 1
 406 348 476 297 476 191 c 0
 476 77 386 -16 225 -16 c 0
 128 -16 53 20 1 84 c 1
 78 158 l 1
 123 113 165 94 217 94 c 0
 285 94 330 133 330 200 c 0xe8
 330 275 288 302 214 302 c 2
 159 302 l 1
 176 402 l 1
 213 402 l 2
 274 402 316 436 316 497 c 0
 316 549 279 580 221 580 c 0
 170 580 129 561 88 522 c 1
 17 599 l 1
 78 657 150 687 235 687 c 0xf0
EndSplineSet
Substitution2: "'onum' Oldstyle Figures lookup 25 subtable" three.osf
Substitution2: "'tnum' Tabular Numbers lookup 24 subtable" three.tf
Substitution2: "'frac' Diagonal Fractions lookup 18 subtable" three.numr
Substitution2: "'dnom' Denominators lookup 16 subtable" three.dnom
Substitution2: "'numr' Numerators lookup 15 subtable" three.numr
Substitution2: "'sups' Superscript lookup 14 subtable" uni00B3
Substitution2: "'subs' Subscript lookup 13 subtable" uni2083
AlternateSubs2: "'aalt' Access All Alternates lookup 1 subtable" uni2083 uni00B3 three.numr three.dnom three.tf three.osf
EndChar

StartChar: four
Encoding: 52 52 881
Width: 557
Flags: MW
HStem: 0 21G<317 455 317 317> 150 108<178 316 455 534>
VStem: 316.5 138.5
LayerCount: 2
Fore
SplineSet
534 150 m 1
 455 150 l 1
 455 0 l 1
 317 0 l 1
 316 150 l 1
 31 150 l 1
 31 246 l 1
 225 689 l 1
 345 644 l 1
 178 258 l 1
 318 258 l 1
 333 423 l 1
 455 423 l 1
 455 258 l 1
 534 258 l 1
 534 150 l 1
EndSplineSet
Substitution2: "'onum' Oldstyle Figures lookup 22 subtable" four.osf
Substitution2: "'tnum' Tabular Numbers lookup 21 subtable" four.tf
Substitution2: "'frac' Diagonal Fractions lookup 16 subtable" four.numr
Substitution2: "'dnom' Denominators lookup 14 subtable" four.dnom
Substitution2: "'numr' Numerators lookup 13 subtable" four.numr
Substitution2: "'sups' Superscript lookup 12 subtable" foursuperior
Substitution2: "'subs' Subscript lookup 11 subtable" fourinferior
AlternateSubs2: "'aalt' Access All Alternates lookup 1 subtable" fourinferior foursuperior four.numr four.dnom four.tf four.osf
EndChar
StartChar: five
Encoding: 53 53 2016
Width: 527
Flags: MW
HStem: -16 109<202 266 202 312> 340 99<229.5 354.5> 571 103<197 446 197 197>
VStem: 61 136<416 571 416 674 416 674> 346 146<179.5 265>
LayerCount: 2
Back
Fore
SplineSet
463 674 m 1
 446 571 l 1
 197 571 l 1
 197 416 l 1
 231 432 266 439 299 439 c 0
 410 439 492 359 492 221 c 0
 492 81 390 -16 234 -16 c 0
 136 -16 68 24 16 82 c 1
 97 158 l 1
 132 116 174 93 230 93 c 0
 302 93 346 138 346 221 c 0
 346 309 303 340 244 340 c 0
 215 340 191 333 160 316 c 1
 61 316 l 1
 61 674 l 1
 463 674 l 1
EndSplineSet
Substitution2: "'onum' Oldstyle Figures lookup 25 subtable" five.osf
Substitution2: "'tnum' Tabular Numbers lookup 24 subtable" five.tf
Substitution2: "'frac' Diagonal Fractions lookup 18 subtable" five.numr
Substitution2: "'dnom' Denominators lookup 16 subtable" five.dnom
Substitution2: "'numr' Numerators lookup 15 subtable" five.numr
Substitution2: "'sups' Superscript lookup 14 subtable" uni2075
Substitution2: "'subs' Subscript lookup 13 subtable" uni2085
AlternateSubs2: "'aalt' Access All Alternates lookup 1 subtable" uni2085 uni2075 five.numr five.dnom five.tf five.osf
EndChar
StartChar: six
Encoding: 54 54 2017
Width: 556
Flags: MW
HStem: -16 104<255.5 323.5 255.5 362.5> 351 100<309 326> 584 103<288.5 347>
VStem: 42 147 385 143<185.5 274>
LayerCount: 2
Back
Fore
SplineSet
336 451 m 0
 444 451 528 373 528 230 c 0
 528 90 434 -16 291 -16 c 0
 115 -16 42 116 42 310 c 0
 42 537 150 687 326 687 c 0
 387 687 438 670 476 644 c 1
 424 557 l 1
 395 574 365 584 329 584 c 0
 248 584 196 510 189 382 c 1
 231 431 282 451 336 451 c 0
292 88 m 0
 355 88 385 143 385 228 c 0
 385 320 353 351 299 351 c 0
 257 351 219 328 189 289 c 1
 191 146 219 88 292 88 c 0
EndSplineSet
Substitution2: "'onum' Oldstyle Figures lookup 25 subtable" six.osf
Substitution2: "'tnum' Tabular Numbers lookup 24 subtable" six.tf
Substitution2: "'frac' Diagonal Fractions lookup 18 subtable" six.numr
Substitution2: "'dnom' Denominators lookup 16 subtable" six.dnom
Substitution2: "'numr' Numerators lookup 15 subtable" six.numr
Substitution2: "'sups' Superscript lookup 14 subtable" uni2076
Substitution2: "'subs' Subscript lookup 13 subtable" uni2086
AlternateSubs2: "'aalt' Access All Alternates lookup 1 subtable" uni2086 uni2076 six.numr six.dnom six.tf six.osf
EndChar
StartChar: seven
Encoding: 55 55 2018
Width: 462
Flags: MW
HStem: -15 21G<193 193> 566 108<16 294 16 441>
VStem: 16 425<576 674 576 674 576 674>
LayerCount: 2
Back
Fore
SplineSet
441 674 m 1
 441 576 l 1
 193 -15 l 1
 64 28 l 1
 294 566 l 1
 16 566 l 1
 16 674 l 1
 441 674 l 1
EndSplineSet
Substitution2: "'onum' Oldstyle Figures lookup 25 subtable" seven.osf
Substitution2: "'tnum' Tabular Numbers lookup 24 subtable" seven.tf
Substitution2: "'frac' Diagonal Fractions lookup 18 subtable" seven.numr
Substitution2: "'dnom' Denominators lookup 16 subtable" seven.dnom
Substitution2: "'numr' Numerators lookup 15 subtable" seven.numr
Substitution2: "'sups' Superscript lookup 14 subtable" uni2077
Substitution2: "'subs' Subscript lookup 13 subtable" uni2087
AlternateSubs2: "'aalt' Access All Alternates lookup 1 subtable" uni2087 uni2077 seven.numr seven.dnom seven.tf seven.osf
EndChar
StartChar: eight
Encoding: 56 56 2019
Width: 574
Flags: MW
HStem: -16 104<253.5 323.5 253.5 364> 590 97<260.5 317>
VStem: 33 143<155 213 155 220> 60 138<480 533.5 480 563> 376 138<485 531.5> 397 143<155.5 212.5>
LayerCount: 2
Back
Fore
SplineSet
404 362 m 1xe4
 496 319 540 260 540 182 c 0
 540 72 444 -16 284 -16 c 0
 127 -16 33 71 33 179 c 0xe4
 33 261 81 314 160 349 c 1
 89 390 60 444 60 508 c 0
 60 618 160 687 287 687 c 0
 413 687 514 626 514 514 c 0xd8
 514 454 480 402 404 362 c 1xe4
288 590 m 0xd8
 233 590 198 561 198 506 c 0
 198 454 230 429 290 405 c 2
 310 398 l 1
 360 430 376 463 376 507 c 0
 376 556 346 590 288 590 c 0xd8
288 88 m 0xe4
 359 88 397 128 397 183 c 0
 397 242 366 269 283 299 c 2
 251 311 l 1
 201 283 176 241 176 185 c 0
 176 125 219 88 288 88 c 0xe4
EndSplineSet
Substitution2: "'onum' Oldstyle Figures lookup 25 subtable" eight.osf
Substitution2: "'tnum' Tabular Numbers lookup 24 subtable" eight.tf
Substitution2: "'frac' Diagonal Fractions lookup 18 subtable" eight.numr
Substitution2: "'dnom' Denominators lookup 16 subtable" eight.dnom
Substitution2: "'numr' Numerators lookup 15 subtable" eight.numr
Substitution2: "'sups' Superscript lookup 14 subtable" uni2078
Substitution2: "'subs' Subscript lookup 13 subtable" uni2088
AlternateSubs2: "'aalt' Access All Alternates lookup 1 subtable" uni2088 uni2078 eight.numr eight.dnom eight.tf eight.osf
EndChar

StartChar: nine
Encoding: 57 57 886
Width: 552
Flags: MW
HStem: 236 102<238 254.5> 584 103<242.5 308.5>
VStem: 31 142<415.5 501.5 415.5 527.5> 371 145
LayerCount: 2
Fore
SplineSet
273 687 m 0
 434 687 516 580 516 426 c 0
 516 150 390 35 111 -27 c 1
 81 74 l 1
 251 116 342 177 364 305 c 1
 332 264 287 236 222 236 c 0
 117 236 31 320 31 457 c 0
 31 598 138 687 273 687 c 0
263 338 m 0
 306 338 343 361 371 402 c 1
 373 536 344 584 273 584 c 0
 212 584 173 542 173 461 c 0
 173 370 213 338 263 338 c 0
EndSplineSet
Substitution2: "'onum' Oldstyle Figures lookup 22 subtable" nine.osf
Substitution2: "'tnum' Tabular Numbers lookup 21 subtable" nine.tf
Substitution2: "'frac' Diagonal Fractions lookup 16 subtable" nine.numr
Substitution2: "'dnom' Denominators lookup 14 subtable" nine.dnom
Substitution2: "'numr' Numerators lookup 13 subtable" nine.numr
Substitution2: "'sups' Superscript lookup 12 subtable" ninesuperior
Substitution2: "'subs' Subscript lookup 11 subtable" nineinferior
AlternateSubs2: "'aalt' Access All Alternates lookup 1 subtable" nineinferior ninesuperior nine.numr nine.dnom nine.tf nine.osf
EndChar

StartChar: colon
Encoding: 58 58 982
Width: 240
Flags: MW
HStem: -16 171<95.5 143> 335 171<95.5 143>
VStem: 34 171<46.5 93 397.5 444>
LayerCount: 2
Fore
SplineSet
119 506 m 0
 167 506 205 467 205 421 c 0
 205 374 167 335 119 335 c 0
 72 335 34 374 34 421 c 0
 34 467 72 506 119 506 c 0
119 155 m 0
 167 155 205 116 205 70 c 0
 205 23 167 -16 119 -16 c 0
 72 -16 34 23 34 70 c 0
 34 116 72 155 119 155 c 0
EndSplineSet
EndChar

StartChar: less
Encoding: 60 60 1101
Width: 514
Flags: MW
HStem: 550 20G<430 430>
VStem: 38 438<201 397 201 397>
LayerCount: 2
Fore
SplineSet
476 467 m 1
 157 333 l 1
 476 201 l 1
 430 96 l 1
 38 269 l 1
 38 397 l 1
 430 570 l 1
 476 467 l 1
EndSplineSet
Substitution2: "'onum' Oldstyle Figures lookup 22 subtable" less.osf
Substitution2: "'tnum' Tabular Numbers lookup 21 subtable" less.tf
AlternateSubs2: "'aalt' Access All Alternates lookup 1 subtable" less.tf less.osf
EndChar

StartChar: equal
Encoding: 61 61 1093
Width: 514
Flags: MW
HStem: 173 111<52 463 52 463> 379 111<52 463 52 463>
VStem: 52 411<173 284 173 284 379 490 173 490>
LayerCount: 2
Fore
SplineSet
52 490 m 1
 463 490 l 1
 463 379 l 1
 52 379 l 1
 52 490 l 1
52 284 m 1
 463 284 l 1
 463 173 l 1
 52 173 l 1
 52 284 l 1
EndSplineSet
Substitution2: "'onum' Oldstyle Figures lookup 22 subtable" equal.osf
Substitution2: "'tnum' Tabular Numbers lookup 21 subtable" equal.tf
Substitution2: "'dnom' Denominators lookup 14 subtable" equal.dnom
Substitution2: "'numr' Numerators lookup 13 subtable" equal.numr
Substitution2: "'sups' Superscript lookup 12 subtable" equalsuperior
AlternateSubs2: "'aalt' Access All Alternates lookup 1 subtable" equalsuperior equal.numr equal.dnom equal.tf equal.osf
EndChar

StartChar: greater
Encoding: 62 62 1096
Width: 514
Flags: MW
HStem: 550 20G<84 84>
VStem: 38 438<201 397 269 467>
LayerCount: 2
Fore
SplineSet
476 397 m 1
 476 269 l 1
 84 96 l 1
 38 201 l 1
 357 333 l 1
 38 467 l 1
 84 570 l 1
 476 397 l 1
EndSplineSet
Substitution2: "'onum' Oldstyle Figures lookup 22 subtable" greater.osf
Substitution2: "'tnum' Tabular Numbers lookup 21 subtable" greater.tf
AlternateSubs2: "'aalt' Access All Alternates lookup 1 subtable" greater.tf greater.osf
EndChar
StartChar: question
Encoding: 63 63 2127
Width: 476
Flags: MW
HStem: -16 171<190 238> 595 113<210.5 256>
VStem: 129 171<46.5 93> 147 131<249 279 249 284 249 370> 309 149<487 551.5>
LayerCount: 2
Back
Fore
SplineSet
246 708 m 0xd8
 387 708 458 630 458 544 c 0
 458 382 278 396 278 279 c 2
 278 249 l 1
 147 249 l 1
 147 284 l 2
 147 456 309 443 309 531 c 0
 309 572 280 595 232 595 c 0
 189 595 147 575 110 532 c 1
 18 603 l 1
 75 669 147 708 246 708 c 0xd8
214 155 m 0xe8
 262 155 300 116 300 70 c 0
 300 23 262 -16 214 -16 c 0
 166 -16 129 23 129 70 c 0
 129 116 166 155 214 155 c 0xe8
EndSplineSet
EndChar

StartChar: at
Encoding: 64 64 1218
Width: 1020
Flags: MW
HStem: -220 107<415.5 562 415.5 569> 5 92<730 774.5 730 820> 9 91<472.5 515> 409 91<493 533.5> 602 106<417.5 631>
VStem: 53 131<134.5 347.5 134.5 376> 298 129<185 296 185 315.5> 575 121<165 207 207 398 398 398> 837 130<231.5 401>
LayerCount: 2
Fore
SplineSet
527 500 m 0xdf80
 582 500 641 486 696 456 c 1
 696 207 l 2
 696 123 712 97 748 97 c 0
 801 97 837 151 837 312 c 0
 837 490 736 602 526 602 c 0
 309 602 184 453 184 242 c 0
 184 27 304 -113 527 -113 c 0
 597 -113 670 -97 722 -78 c 1
 757 -178 l 1
 693 -202 612 -220 526 -220 c 0
 241 -220 53 -40 53 241 c 0
 53 511 250 708 526 708 c 0
 809 708 967 520 967 314 c 0
 967 137 887 5 753 5 c 0xdf80
 673 5 632 60 622 107 c 1
 598 53 552 9 478 9 c 0xbf80
 356 9 298 103 298 232 c 0
 298 399 384 500 527 500 c 0xdf80
496 100 m 0xbf80
 541 100 564 134 575 160 c 1
 575 398 l 1
 558 405 544 409 523 409 c 0
 463 409 427 360 427 232 c 0
 427 138 449 100 496 100 c 0xbf80
EndSplineSet
EndChar
StartChar: A
Encoding: 65 65 2
Width: 586
GlyphClass: 2
Flags: MW
HStem: 0 21G<-9 144 -9 -9 439 595 439 439> 155 109<210 372 210 400 183 372> 583 109<291 291> 672 20G<204 383 383 383>
VStem: -9 604<0 0>
AnchorPoint: "Anchor-14" 0 0 basechar 0
AnchorPoint: "Anchor-13" 0 0 basechar 0
AnchorPoint: "Anchor-12" 294 692 basechar 0
AnchorPoint: "Anchor-11" 532 0 basechar 0
AnchorPoint: "Anchor-10" 294 0 basechar 0
LayerCount: 2
Back
Fore
SplineSet
439 0 m 1xd8
 400 155 l 1
 183 155 l 1
 144 0 l 1
 -9 0 l 1
 204 692 l 1
 383 692 l 1
 595 0 l 1
 439 0 l 1xd8
210 264 m 1
 372 264 l 1
 291 583 l 1xe8
 210 264 l 1
EndSplineSet
Substitution2: "Single Substitution lookup 41 subtable" ordfeminine
Substitution2: "'c2sc' Capitals to Small Capitals lookup 26 subtable" a.sc
AlternateSubs2: "'aalt' Access All Alternates lookup 1 subtable" ordfeminine a.sc
Position2: "'cpsp' Capital Spacing lookup 0 subtable" dx=5 dy=0 dh=10 dv=0
EndChar
StartChar: B
Encoding: 66 66 36
Width: 615
GlyphClass: 2
Flags: MW
HStem: 0 109<220 289> 311 100<220 292 292 303 220 292> 586 106<220 262 262 276 220 220>
VStem: 73 147<109 311 411 586> 404 150<471.5 534> 431 153<166 245.5>
AnchorPoint: "Anchor-14" 0 0 basechar 0
AnchorPoint: "Anchor-13" 0 0 basechar 0
AnchorPoint: "Anchor-12" 296 692 basechar 0
AnchorPoint: "Anchor-11" 0 0 basechar 0
AnchorPoint: "Anchor-10" 310 0 basechar 0
LayerCount: 2
Back
Fore
SplineSet
427 366 m 1xf4
 505 351 584 314 584 201 c 0xf4
 584 46 459 0 289 0 c 2
 73 0 l 1
 73 692 l 1
 262 692 l 2
 443 692 554 643 554 515 c 0xf8
 554 428 491 381 427 366 c 1xf4
276 586 m 2
 220 586 l 1
 220 411 l 1
 292 411 l 2
 362 411 404 440 404 502 c 0xf8
 404 566 361 586 276 586 c 2
290 109 m 2xf4
 372 109 431 125 431 207 c 0
 431 284 377 311 303 311 c 2
 220 311 l 1
 220 109 l 1
 290 109 l 2xf4
EndSplineSet
Substitution2: "'c2sc' Capitals to Small Capitals lookup 26 subtable" b.sc
Substitution2: "'aalt' Access All Alternates lookup 0 subtable" b.sc
Position2: "'cpsp' Capital Spacing lookup 0 subtable" dx=5 dy=0 dh=10 dv=0
EndChar

StartChar: D
Encoding: 68 68 20
Width: 650
GlyphClass: 2
Flags: MW
HStem: 0 108<220 271> 584 108<220 220 220 254 254 277>
VStem: 73 147<108 584 108 692 108 692> 458 153<252 448>
AnchorPoint: "Anchor-11" 0 0 basechar 0
AnchorPoint: "Anchor-10" 0 0 basechar 0
AnchorPoint: "Anchor-9" 297 692 basechar 0
AnchorPoint: "Anchor-8" 0 0 basechar 0
LayerCount: 2
Fore
SplineSet
254 692 m 2
 437 692 611 635 611 349 c 0
 611 70 441 0 271 0 c 2
 73 0 l 1
 73 692 l 1
 254 692 l 2
220 584 m 1
 220 108 l 1
 280 108 l 2
 381 108 458 155 458 349 c 0
 458 547 377 584 277 584 c 2
 220 584 l 1
EndSplineSet
Substitution2: "'c2sc' Capitals to Small Capitals lookup 23 subtable" d.sc
Substitution2: "'aalt' Access All Alternates lookup 0 subtable" d.sc
Position2: "'cpsp' Capital Spacing lookup 0 subtable" dx=5 dy=0 dh=10 dv=0
EndChar
StartChar: E
Encoding: 69 69 67
Width: 528
GlyphClass: 2
Flags: MW
HStem: 0 108<220 488 220 488> 299 106<220 438 220 438> 585 107<220 470 220 220>
VStem: 73 147<108 299 405 585>
AnchorPoint: "Anchor-14" 0 0 basechar 0
AnchorPoint: "Anchor-13" 0 0 basechar 0
AnchorPoint: "Anchor-12" 282 692 basechar 0
AnchorPoint: "Anchor-11" 458 0 basechar 0
AnchorPoint: "Anchor-10" 281 0 basechar 0
LayerCount: 2
Back
Fore
SplineSet
486 692 m 1
 470 585 l 1
 220 585 l 1
 220 405 l 1
 438 405 l 1
 438 299 l 1
 220 299 l 1
 220 108 l 1
 488 108 l 1
 488 0 l 1
 73 0 l 1
 73 692 l 1
 486 692 l 1
EndSplineSet
Substitution2: "'c2sc' Capitals to Small Capitals lookup 26 subtable" e.sc
Substitution2: "'aalt' Access All Alternates lookup 0 subtable" e.sc
Position2: "'cpsp' Capital Spacing lookup 0 subtable" dx=5 dy=0 dh=10 dv=0
EndChar
StartChar: F
Encoding: 70 70 95
Width: 488
GlyphClass: 2
Flags: MW
HStem: 0 21G<73 220 73 73> 282 107<220 428 220 428> 585 107<220 459 220 220>
VStem: 73 147<0 282 389 585>
AnchorPoint: "Anchor-14" 0 0 basechar 0
AnchorPoint: "Anchor-13" 0 0 basechar 0
AnchorPoint: "Anchor-12" 284 692 basechar 0
AnchorPoint: "Anchor-11" 0 0 basechar 0
AnchorPoint: "Anchor-10" 0 0 basechar 0
LayerCount: 2
Back
Fore
SplineSet
475 692 m 1
 459 585 l 1
 220 585 l 1
 220 389 l 1
 428 389 l 1
 428 282 l 1
 220 282 l 1
 220 0 l 1
 73 0 l 1
 73 692 l 1
 475 692 l 1
EndSplineSet
Substitution2: "'c2sc' Capitals to Small Capitals lookup 26 subtable" f.sc
Substitution2: "'aalt' Access All Alternates lookup 0 subtable" f.sc
Position2: "'cpsp' Capital Spacing lookup 0 subtable" dx=5 dy=0 dh=10 dv=0
EndChar
StartChar: H
Encoding: 72 72 109
Width: 669
GlyphClass: 2
Flags: MW
HStem: 0 21G<73 220 73 73 449 596 449 449> 303 116<220 449 220 449> 672 20G<73 220 220 220 449 596 596 596>
VStem: 73 147<0 303 0 419 419 692> 449 147<0 303 303 303 419 692 0 692>
AnchorPoint: "Anchor-14" 335 346 basechar 0
AnchorPoint: "Anchor-13" 0 0 basechar 0
AnchorPoint: "Anchor-12" 335 692 basechar 0
AnchorPoint: "Anchor-11" 0 0 basechar 0
AnchorPoint: "Anchor-10" 335 0 basechar 0
LayerCount: 2
Back
Fore
SplineSet
449 0 m 1
 449 303 l 1
 220 303 l 1
 220 0 l 1
 73 0 l 1
 73 692 l 1
 220 692 l 1
 220 419 l 1
 449 419 l 1
 449 692 l 1
 596 692 l 1
 596 0 l 1
 449 0 l 1
EndSplineSet
Substitution2: "'c2sc' Capitals to Small Capitals lookup 26 subtable" h.sc
Substitution2: "'aalt' Access All Alternates lookup 0 subtable" h.sc
Position2: "'cpsp' Capital Spacing lookup 0 subtable" dx=5 dy=0 dh=10 dv=0
EndChar

StartChar: L
Encoding: 76 76 58
Width: 509
GlyphClass: 2
Flags: MW
HStem: 0 118<220 478> 672 20G<73 220 220 220>
VStem: 73 147<118 118 118 692>
AnchorPoint: "Anchor-11" 276 0 basechar 0
AnchorPoint: "Anchor-10" 0 0 basechar 0
AnchorPoint: "Anchor-9" 147 692 basechar 0
AnchorPoint: "Anchor-8" 0 0 basechar 0
LayerCount: 2
Fore
SplineSet
220 118 m 1
 494 118 l 1
 478 0 l 1
 73 0 l 1
 73 692 l 1
 220 692 l 1
 220 118 l 1
EndSplineSet
Substitution2: "'c2sc' Capitals to Small Capitals lookup 23 subtable" l.sc
Substitution2: "'aalt' Access All Alternates lookup 0 subtable" l.sc
Position2: "'cpsp' Capital Spacing lookup 0 subtable" dx=5 dy=0 dh=10 dv=0
EndChar
StartChar: N
Encoding: 78 78 159
Width: 668
GlyphClass: 2
Flags: MW
HStem: 0 21G<73 206 73 73 406 595 406 406> 0 142<482 482 482 595 406 482> 549 143<186 186> 672 20G<73 258 258 258 462 595 595 595>
VStem: 73 133<0 269 0 692> 462 133<388 692 0 692>
AnchorPoint: "Anchor-14" 0 0 basechar 0
AnchorPoint: "Anchor-13" 0 0 basechar 0
AnchorPoint: "Anchor-12" 340 692 basechar 0
AnchorPoint: "Anchor-11" 0 0 basechar 0
AnchorPoint: "Anchor-10" 335 0 basechar 0
LayerCount: 2
Back
Fore
SplineSet
595 692 m 1x9c
 595 0 l 1
 406 0 l 1
 186 549 l 1xac
 194 487 206 397 206 269 c 2
 206 0 l 1
 73 0 l 1
 73 692 l 1
 258 692 l 1
 482 142 l 1x5c
 475 189 462 285 462 388 c 2
 462 692 l 1
 595 692 l 1x9c
EndSplineSet
Substitution2: "'c2sc' Capitals to Small Capitals lookup 26 subtable" n.sc
Substitution2: "'aalt' Access All Alternates lookup 0 subtable" n.sc
Position2: "'cpsp' Capital Spacing lookup 0 subtable" dx=5 dy=0 dh=10 dv=0
EndChar
StartChar: Q
Encoding: 81 81 223
Width: 689
GlyphClass: 2
Flags: MW
HStem: -13 56 -13 107<298 395.5 298 401.5> 598 110<297 395.5>
VStem: 38 155<255.5 436.5 255.5 459> 498 155<262 436.5>
LayerCount: 2
Back
Fore
SplineSet
491 43 m 1xb8
 578 43 638 19 691 -19 c 1xb8
 602 -136 l 1
 534 -65 466 -13 337 -13 c 0x78
 156 -13 38 115 38 346 c 0
 38 572 156 708 346 708 c 0
 536 708 653 578 653 346 c 0
 653 178 579 92 491 43 c 1xb8
193 346 m 0x78
 193 165 250 94 346 94 c 0
 445 94 498 165 498 346 c 0
 498 527 445 598 346 598 c 0
 248 598 193 527 193 346 c 0x78
EndSplineSet
Substitution2: "'c2sc' Capitals to Small Capitals lookup 26 subtable" q.sc
Substitution2: "'aalt' Access All Alternates lookup 0 subtable" q.sc
Position2: "'cpsp' Capital Spacing lookup 0 subtable" dx=5 dy=0 dh=10 dv=0
EndChar
StartChar: R
Encoding: 82 82 225
Width: 614
GlyphClass: 2
Flags: MW
HStem: 0 21G<73 220 73 73 443 610 443 443> 271 104<220 295 220 297> 587 105<220 220 220 286>
VStem: 73 147<0 271 0 375 375 587> 416 152<446 520.5>
AnchorPoint: "Anchor-14" 0 0 basechar 0
AnchorPoint: "Anchor-13" 0 0 basechar 0
AnchorPoint: "Anchor-12" 305 692 basechar 0
AnchorPoint: "Anchor-11" 0 0 basechar 0
AnchorPoint: "Anchor-10" 310 0 basechar 0
LayerCount: 2
Back
Fore
SplineSet
443 0 m 1
 295 271 l 1
 220 271 l 1
 220 0 l 1
 73 0 l 1
 73 692 l 1
 289 692 l 2
 474 692 568 625 568 485 c 0
 568 392 524 337 432 298 c 1
 610 0 l 1
 443 0 l 1
220 587 m 1
 220 375 l 1
 297 375 l 2
 374 375 416 407 416 485 c 0
 416 556 375 587 286 587 c 2
 220 587 l 1
EndSplineSet
Substitution2: "'c2sc' Capitals to Small Capitals lookup 26 subtable" r.sc
Substitution2: "'aalt' Access All Alternates lookup 0 subtable" r.sc
Position2: "'cpsp' Capital Spacing lookup 0 subtable" dx=5 dy=0 dh=10 dv=0
EndChar

StartChar: T
Encoding: 84 84 96
Width: 534
GlyphClass: 2
Flags: MW
HStem: 0 21G<194 341 194 194> 577 115<10 194 10 532 341 516 341 341>
VStem: 194 147<0 577 0 577>
AnchorPoint: "Anchor-11" 267 0 basechar 0
AnchorPoint: "Anchor-10" 0 0 basechar 0
AnchorPoint: "Anchor-9" 267 692 basechar 0
AnchorPoint: "Anchor-8" 0 0 basechar 0
LayerCount: 2
Fore
SplineSet
516 577 m 1
 341 577 l 1
 341 0 l 1
 194 0 l 1
 194 577 l 1
 10 577 l 1
 10 692 l 1
 532 692 l 1
 516 577 l 1
EndSplineSet
Substitution2: "'c2sc' Capitals to Small Capitals lookup 23 subtable" t.sc
Substitution2: "'aalt' Access All Alternates lookup 0 subtable" t.sc
Position2: "'cpsp' Capital Spacing lookup 0 subtable" dx=5 dy=0 dh=10 dv=0
EndChar
StartChar: V
Encoding: 86 86 291
Width: 567
GlyphClass: 2
Flags: MW
HStem: 0 21G<197 376 197 197> 0 122<289 289 289 376 197 289> 672 20G<-9 148 148 148 425 575 575 575>
VStem: -9 584<692 692>
LayerCount: 2
Back
Fore
SplineSet
575 692 m 1xb0
 376 0 l 1
 197 0 l 1
 -9 692 l 1
 148 692 l 1
 289 122 l 1x70
 425 692 l 1
 575 692 l 1xb0
EndSplineSet
Substitution2: "'c2sc' Capitals to Small Capitals lookup 26 subtable" v.sc
Substitution2: "'aalt' Access All Alternates lookup 0 subtable" v.sc
Position2: "'cpsp' Capital Spacing lookup 0 subtable" dx=5 dy=0 dh=10 dv=0
EndChar

StartChar: Z
Encoding: 90 90 124
Width: 539
GlyphClass: 2
Flags: MW
HStem: 0 119<193 492> 576 116<53 337 53 503>
VStem: 21 487<0 119 111 119>
AnchorPoint: "Anchor-11" 0 0 basechar 0
AnchorPoint: "Anchor-10" 0 0 basechar 0
AnchorPoint: "Anchor-9" 275 692 basechar 0
AnchorPoint: "Anchor-8" 0 0 basechar 0
LayerCount: 2
Fore
SplineSet
503 579 m 1
 193 119 l 1
 508 119 l 1
 492 0 l 1
 21 0 l 1
 21 111 l 1
 337 576 l 1
 53 576 l 1
 53 692 l 1
 503 692 l 1
 503 579 l 1
EndSplineSet
Substitution2: "'c2sc' Capitals to Small Capitals lookup 23 subtable" z.sc
Substitution2: "'aalt' Access All Alternates lookup 0 subtable" z.sc
Position2: "'cpsp' Capital Spacing lookup 0 subtable" dx=5 dy=0 dh=10 dv=0
EndChar

StartChar: bracketleft
Encoding: 91 91 1005
Width: 323
Flags: MW
HStem: -121 107<176 292 176 292> 713 108<176 292 176 176>
VStem: 41 135<-14 713 -14 821 -14 821>
LayerCount: 2
Fore
SplineSet
292 713 m 1
 176 713 l 1
 176 -14 l 1
 292 -14 l 1
 292 -121 l 1
 41 -121 l 1
 41 821 l 1
 292 821 l 1
 292 713 l 1
EndSplineSet
Substitution2: "'case' Case-Sensitive Forms lookup 25 subtable" bracketleft.case
Substitution2: "'aalt' Access All Alternates lookup 0 subtable" bracketleft.case
EndChar
StartChar: backslash
Encoding: 92 92 2113
Width: 520
Flags: MW
HStem: -110 924<204 315>
VStem: 81 358
LayerCount: 2
Back
Fore
SplineSet
204 814 m 1
 439 -81 l 1
 315 -110 l 1
 81 786 l 1
 204 814 l 1
EndSplineSet
EndChar

StartChar: bracketright
Encoding: 93 93 1006
Width: 323
Flags: MW
HStem: -121 107<31 147 31 282 31 147> 714 107<31 147 31 282>
VStem: 147 135<-14 714 714 714>
LayerCount: 2
Fore
SplineSet
282 -121 m 1
 31 -121 l 1
 31 -14 l 1
 147 -14 l 1
 147 714 l 1
 31 714 l 1
 31 821 l 1
 282 821 l 1
 282 -121 l 1
EndSplineSet
Substitution2: "'case' Case-Sensitive Forms lookup 25 subtable" bracketright.case
Substitution2: "'aalt' Access All Alternates lookup 0 subtable" bracketright.case
EndChar

StartChar: asciicircum
Encoding: 94 94 1228
Width: 554
Flags: MW
HStem: 527 316<23 342 23 342 212 531 212 390>
VStem: 23 508<527 527>
LayerCount: 2
Fore
SplineSet
531 527 m 1
 390 527 l 1
 276 734 l 1
 166 527 l 1
 23 527 l 1
 212 843 l 1
 342 843 l 1
 531 527 l 1
EndSplineSet
EndChar

StartChar: underscore
Encoding: 95 95 995
Width: 520
Flags: MW
HStem: -164 113<11 509 11 509>
VStem: 11 498<-164 -51 -164 -51>
LayerCount: 2
Fore
SplineSet
11 -51 m 1
 509 -51 l 1
 509 -164 l 1
 11 -164 l 1
 11 -51 l 1
EndSplineSet
EndChar

StartChar: grave
Encoding: 96 96 1257
Width: 330
Flags: MW
HStem: 679 20G<300 300>
VStem: 30 270<699 718>
LayerCount: 2
Fore
SplineSet
300 699 m 1
 260 626 l 1
 30 718 l 1
 87 827 l 1
 300 699 l 1
EndSplineSet
Substitution2: "'case' Case-Sensitive Forms lookup 25 subtable" grave.case
Substitution2: "'smcp' Lowercase to Small Capitals lookup 24 subtable" grave.sc
Substitution2: "'c2sc' Capitals to Small Capitals lookup 23 subtable" grave.sc
AlternateSubs2: "'aalt' Access All Alternates lookup 1 subtable" grave.sc grave.case
EndChar
StartChar: b
Encoding: 98 98 371
Width: 596
GlyphClass: 2
Flags: MW
HStem: -16 105<313.5 333.5 285 408.5> 0 21G<70 196 70 70> 441 105<325.5 338> 721 20G<70 70> 737 20G<212 212>
VStem: 70 142<145 373 473 741 741 741> 405 148<200.5 334>
AnchorPoint: "Anchor-14" 0 0 basechar 0
AnchorPoint: "Anchor-13" 0 0 basechar 0
AnchorPoint: "Anchor-12" 317 741 basechar 0
AnchorPoint: "Anchor-11" 0 0 basechar 0
AnchorPoint: "Anchor-10" 308 0 basechar 0
LayerCount: 2
Back
Fore
SplineSet
354 546 m 0xae
 482 546 553 442 553 265 c 0
 553 101 474 -16 343 -16 c 0
 284 -16 237 10 204 52 c 1xae
 196 0 l 1
 70 0 l 1
 70 741 l 1x76
 212 757 l 1
 212 473 l 1
 245 518 297 546 354 546 c 0xae
304 89 m 0
 363 89 405 136 405 265 c 0
 405 403 366 441 310 441 c 0
 268 441 236 413 212 373 c 1
 212 145 l 1
 234 110 266 89 304 89 c 0
EndSplineSet
Substitution2: "'smcp' Lowercase to Small Capitals lookup 27 subtable" b.sc
Substitution2: "'aalt' Access All Alternates lookup 0 subtable" b.sc
EndChar

StartChar: d
Encoding: 100 100 153
Width: 599
GlyphClass: 2
Flags: MW
HStem: -16 106<258 279.5> 0 21G<404 529 404 404> 441 105<264.5 285.5 192.5 315.5> 721 20G<529 529> 737 20G<387 387>
VStem: 43 148<198.5 327 198.5 347> 387 142<154 391 391 391 493 741 0 757 0 757>
LayerCount: 2
Fore
SplineSet
529 741 m 1xb6
 529 0 l 1
 404 0 l 1x6e
 396 65 l 1
 364 19 315 -16 244 -16 c 0
 111 -16 43 96 43 265 c 0
 43 429 125 546 260 546 c 0
 311 546 355 524 387 493 c 1
 387 757 l 1xae
 529 741 l 1xb6
287 90 m 0xae
 329 90 360 112 387 154 c 1
 387 391 l 1
 361 422 335 441 296 441 c 0
 233 441 191 389 191 265 c 0
 191 132 229 90 287 90 c 0xae
EndSplineSet
Substitution2: "'smcp' Lowercase to Small Capitals lookup 24 subtable" d.sc
Substitution2: "'aalt' Access All Alternates lookup 0 subtable" d.sc
EndChar

StartChar: f
Encoding: 102 102 167
Width: 351
GlyphClass: 2
Flags: MW
HStem: 0 21G<88 230 88 88> 430 100<4 88 4 88 230 340> 651 106<273 309 217.5 309.5>
VStem: 88 142<0 430 0 430 530 579>
LayerCount: 2
Fore
SplineSet
297 651 m 0
 249 651 230 629 230 579 c 2
 230 530 l 1
 356 530 l 1
 340 430 l 1
 230 430 l 1
 230 0 l 1
 88 0 l 1
 88 430 l 1
 4 430 l 1
 4 530 l 1
 88 530 l 1
 88 583 l 2
 88 681 153 757 282 757 c 0
 336 757 383 744 422 725 c 1
 383 631 l 1
 351 646 322 651 297 651 c 0
EndSplineSet
Substitution2: "'smcp' Lowercase to Small Capitals lookup 24 subtable" f.sc
Substitution2: "'aalt' Access All Alternates lookup 0 subtable" f.sc
EndChar
StartChar: h
Encoding: 104 104 469
Width: 579
GlyphClass: 2
Flags: MW
HStem: 0 21G<70 212 70 70 372 514 372 372> 440 106<294 412> 721 20G<70 70> 736 20G<212 212>
VStem: 70 142<0 367 0 470 470 741 741 741> 372 142<0 362 362 386 0 392.5>
AnchorPoint: "Anchor-14" 289 265 basechar 0
AnchorPoint: "Anchor-13" 0 0 basechar 0
AnchorPoint: "Anchor-12" 289 741 basechar 0
AnchorPoint: "Anchor-11" 0 0 basechar 0
AnchorPoint: "Anchor-10" 293 0 basechar 0
LayerCount: 2
Back
Fore
SplineSet
366 546 m 0xdc
 458 546 514 486 514 386 c 2
 514 0 l 1
 372 0 l 1
 372 362 l 2
 372 423 349 440 314 440 c 0
 274 440 241 413 212 367 c 1
 212 0 l 1
 70 0 l 1
 70 741 l 1xec
 212 756 l 1
 212 470 l 1
 254 519 303 546 366 546 c 0xdc
EndSplineSet
Substitution2: "'smcp' Lowercase to Small Capitals lookup 27 subtable" h.sc
Substitution2: "'aalt' Access All Alternates lookup 0 subtable" h.sc
EndChar
StartChar: j
Encoding: 106 106 498
Width: 281
GlyphClass: 2
Flags: MW
HStem: -219 21G<9 9> 510 20G<69 211 211 211> 637 166<114.5 165.5>
VStem: 54 173<696.5 743.5> 69 142<44 53 53 530>
AnchorPoint: "Anchor-14" 0 0 basechar 0
AnchorPoint: "Anchor-13" 0 0 basechar 0
AnchorPoint: "Anchor-12" 143 803 basechar 0
AnchorPoint: "Anchor-11" 0 0 basechar 0
AnchorPoint: "Anchor-10" 140 -208 basechar 0
LayerCount: 2
Back
Fore
SplineSet
140 803 m 0xf0
 191 803 227 767 227 720 c 0
 227 673 191 637 140 637 c 0
 89 637 54 673 54 720 c 0
 54 767 89 803 140 803 c 0xf0
211 530 m 1xe8
 211 53 l 2
 211 -114 130 -172 9 -219 c 1
 -38 -116 l 1
 30 -84 69 -56 69 44 c 2
 69 530 l 1
 211 530 l 1xe8
EndSplineSet
Substitution2: "'smcp' Lowercase to Small Capitals lookup 27 subtable" j.sc
Substitution2: "'aalt' Access All Alternates lookup 0 subtable" j.sc
EndChar

StartChar: k
Encoding: 107 107 191
Width: 542
GlyphClass: 2
Flags: MW
HStem: 0 21G<70 212 70 70 388 388 388 549> 510 20G<387 534 534 534> 721 20G<70 70> 737 20G<212 212>
VStem: 70 142<0 741 741 741>
AnchorPoint: "Anchor-11" 271 0 basechar 0
AnchorPoint: "Anchor-10" 0 0 basechar 0
AnchorPoint: "Anchor-9" 0 0 basechar 0
AnchorPoint: "Anchor-8" 0 0 basechar 0
LayerCount: 2
Fore
SplineSet
212 0 m 1xd8
 70 0 l 1
 70 741 l 1xe8
 212 757 l 1
 212 0 l 1xd8
365 297 m 1
 549 0 l 1
 388 0 l 1
 217 290 l 1
 387 530 l 1
 534 530 l 1
 365 297 l 1
EndSplineSet
Substitution2: "'smcp' Lowercase to Small Capitals lookup 24 subtable" k.sc
Substitution2: "'aalt' Access All Alternates lookup 0 subtable" k.sc
EndChar

StartChar: l
Encoding: 108 108 194
Width: 296
GlyphClass: 2
Flags: MW
HStem: -16 21G<155 214> -16 113<155 240> 721 20G<65 65> 737 20G<207 207>
VStem: 65 142<126 139 139 741 741 741>
AnchorPoint: "Anchor-11" 165 0 basechar 0
AnchorPoint: "Anchor-10" 0 0 basechar 0
AnchorPoint: "Anchor-9" 136 741 basechar 0
AnchorPoint: "Anchor-8" 0 0 basechar 0
LayerCount: 2
Fore
SplineSet
207 139 m 2x58
 207 109 216 97 235 97 c 0
 245 97 256 99 264 103 c 1x58
 293 2 l 1
 266 -9 231 -16 197 -16 c 0
 113 -16 65 34 65 126 c 2
 65 741 l 1xa8
 207 757 l 1
 207 139 l 2x58
EndSplineSet
Substitution2: "'smcp' Lowercase to Small Capitals lookup 24 subtable" l.sc
Substitution2: "'aalt' Access All Alternates lookup 0 subtable" l.sc
EndChar

StartChar: m
Encoding: 109 109 200
Width: 848
GlyphClass: 2
Flags: MW
HStem: 0 21G<70 212 70 70 355 497 355 355 641 783 641 641> 440 106<283.5 388> 510 20G<70 193 193 193>
VStem: 70 142<0 366 0 530> 355 142<0 362 362 366 0 392.5> 641 142<0 362 362 386 0 392.5>
LayerCount: 2
Fore
SplineSet
643 546 m 0xdc
 726 546 783 486 783 386 c 2
 783 0 l 1
 641 0 l 1
 641 362 l 2
 641 423 617 440 589 440 c 0
 550 440 524 413 497 366 c 1
 497 0 l 1
 355 0 l 1
 355 362 l 2
 355 423 332 440 303 440 c 0
 264 440 238 413 212 366 c 1xdc
 212 0 l 1
 70 0 l 1
 70 530 l 1
 193 530 l 1xbc
 204 464 l 1
 243 516 291 546 358 546 c 0
 418 546 464 515 484 460 c 1
 526 515 575 546 643 546 c 0xdc
EndSplineSet
Substitution2: "'smcp' Lowercase to Small Capitals lookup 24 subtable" m.sc
Substitution2: "'aalt' Access All Alternates lookup 0 subtable" m.sc
EndChar

StartChar: p
Encoding: 112 112 220
Width: 596
GlyphClass: 2
Flags: MW
HStem: -220 21G<70 70> -204 21G<212 212> -16 106<316.5 333.5 282.5 409.5> 441 105<328 340.5> 510 20G<70 195 195 195>
VStem: 70 142<-204 41 -204 142 142 373> 405 148<203 331.5>
LayerCount: 2
Fore
SplineSet
354 546 m 0x76
 494 546 553 437 553 266 c 0
 553 104 476 -16 343 -16 c 0
 290 -16 245 3 212 41 c 1
 212 -204 l 1x76
 70 -220 l 1
 70 530 l 1
 195 530 l 1xae
 202 468 l 1
 244 522 302 546 354 546 c 0x76
301 90 m 0
 366 90 405 141 405 265 c 0
 405 398 371 441 310 441 c 0
 270 441 236 413 212 373 c 1
 212 142 l 1
 235 107 264 90 301 90 c 0
EndSplineSet
Substitution2: "'smcp' Lowercase to Small Capitals lookup 24 subtable" p.sc
Substitution2: "'aalt' Access All Alternates lookup 0 subtable" p.sc
EndChar

StartChar: q
Encoding: 113 113 222
Width: 594
GlyphClass: 2
Flags: MW
HStem: -220 21G<524 524> -204 21G<382 382> -16 106<253 271> 441 105<259.5 282 187.5 310.5> 510 20G<401 524 524 524>
VStem: 38 148<198.5 327 198.5 347> 382 142<-204 54 54 54 154 391 391 391>
LayerCount: 2
Fore
SplineSet
524 530 m 1x6e
 524 -220 l 1xb6
 382 -204 l 1
 382 54 l 1
 350 13 303 -16 239 -16 c 0
 106 -16 38 96 38 265 c 0
 38 429 120 546 255 546 c 0
 309 546 356 522 393 481 c 1x76
 401 530 l 1
 524 530 l 1x6e
282 90 m 0
 324 90 355 112 382 154 c 1
 382 391 l 1
 356 422 330 441 291 441 c 0
 228 441 186 389 186 265 c 0
 186 132 224 90 282 90 c 0
EndSplineSet
Substitution2: "'smcp' Lowercase to Small Capitals lookup 24 subtable" q.sc
Substitution2: "'aalt' Access All Alternates lookup 0 subtable" q.sc
EndChar
StartChar: r
Encoding: 114 114 607
Width: 397
GlyphClass: 2
Flags: MW
HStem: 0 21G<70 212 70 70> 407 138<313 335> 510 20G<70 193 193 193> 517 20G<397 397>
VStem: 70 142<0 273 0 530>
AnchorPoint: "Anchor-14" 0 0 basechar 0
AnchorPoint: "Anchor-13" 0 0 basechar 0
AnchorPoint: "Anchor-12" 235 530 basechar 0
AnchorPoint: "Anchor-11" 0 0 basechar 0
AnchorPoint: "Anchor-10" 141 0 basechar 0
LayerCount: 2
Back
Fore
SplineSet
344 545 m 0xc8
 363 545 379 542 397 537 c 1x98
 373 400 l 1
 357 404 344 407 326 407 c 0xc8
 261 407 231 359 212 273 c 1
 212 0 l 1
 70 0 l 1
 70 530 l 1
 193 530 l 1xa8
 206 427 l 1
 231 501 282 545 344 545 c 0xc8
EndSplineSet
Substitution2: "'smcp' Lowercase to Small Capitals lookup 27 subtable" r.sc
Substitution2: "'aalt' Access All Alternates lookup 0 subtable" r.sc
EndChar
StartChar: s
Encoding: 115 115 623
Width: 479
GlyphClass: 2
Flags: MW
HStem: -16 103<196.5 249.5 196.5 290> 443 103<228.5 275>
VStem: 36 143<379.5 409.5 379.5 433> 310 146<127 165>
AnchorPoint: "Anchor-14" 0 0 basechar 0
AnchorPoint: "Anchor-13" 0 0 basechar 0
AnchorPoint: "Anchor-12" 248 530 basechar 0
AnchorPoint: "Anchor-11" 0 0 basechar 0
AnchorPoint: "Anchor-10" 240 0 basechar 0
LayerCount: 2
Back
Fore
SplineSet
246 546 m 0
 323 546 388 522 438 482 c 1
 384 401 l 1
 341 428 298 443 252 443 c 0
 205 443 179 424 179 395 c 0
 179 364 197 350 290 323 c 0
 396 294 456 250 456 156 c 0
 456 46 353 -16 227 -16 c 0
 135 -16 61 15 11 61 c 1
 81 139 l 1
 121 108 170 87 223 87 c 0
 276 87 310 109 310 145 c 0
 310 185 291 198 193 225 c 0
 86 255 36 308 36 388 c 0
 36 478 118 546 246 546 c 0
EndSplineSet
Substitution2: "'smcp' Lowercase to Small Capitals lookup 27 subtable" s.sc
Substitution2: "'sups' Superscript lookup 14 subtable" uni02E2
AlternateSubs2: "'aalt' Access All Alternates lookup 1 subtable" uni02E2 s.sc
EndChar
StartChar: t
Encoding: 116 116 638
Width: 380
GlyphClass: 2
Flags: MW
HStem: -16 113<260 272.5> 430 100<4 83 4 83 225 333>
VStem: 83 142<166 169 169 430 530 646 646 646>
AnchorPoint: "Anchor-14" 188 265 basechar 0
AnchorPoint: "Anchor-13" 219 772 basechar 0
AnchorPoint: "Anchor-12" 154 646 basechar 0
AnchorPoint: "Anchor-11" 0 0 basechar 0
AnchorPoint: "Anchor-10" 234 0 basechar 0
LayerCount: 2
Back
Fore
SplineSet
338 116 m 1
 387 25 l 1
 348 -2 296 -16 249 -16 c 0
 139 -15 83 48 83 166 c 2
 83 430 l 1
 4 430 l 1
 4 530 l 1
 83 530 l 1
 83 646 l 1
 225 663 l 1
 225 530 l 1
 347 530 l 1
 333 430 l 1
 225 430 l 1
 225 169 l 2
 225 117 242 97 278 97 c 0
 297 97 316 103 338 116 c 1
EndSplineSet
Substitution2: "'smcp' Lowercase to Small Capitals lookup 27 subtable" t.sc
Substitution2: "'aalt' Access All Alternates lookup 0 subtable" t.sc
EndChar

StartChar: v
Encoding: 118 118 250
Width: 508
GlyphClass: 2
Flags: MW
HStem: 0 21G<171 340 171 171> 0 111<257 257 257 340 171 257> 510 20G<-2 152 152 152 364 510 510 510>
VStem: -2 512<530 530>
LayerCount: 2
Fore
SplineSet
340 0 m 1xb0
 171 0 l 1
 -2 530 l 1
 152 530 l 1
 257 111 l 1x70
 364 530 l 1
 510 530 l 1
 340 0 l 1xb0
EndSplineSet
Substitution2: "'smcp' Lowercase to Small Capitals lookup 24 subtable" v.sc
Substitution2: "'aalt' Access All Alternates lookup 0 subtable" v.sc
EndChar
StartChar: w
Encoding: 119 119 694
Width: 741
GlyphClass: 2
Flags: MW
HStem: 0 105<216 216 216 295 124 216> 403 127<371 371> 510 20G<8 151 151 151 304 446 446 446 597 733 733 733>
VStem: 8 725<530 530>
AnchorPoint: "Anchor-14" 0 0 basechar 0
AnchorPoint: "Anchor-13" 0 0 basechar 0
AnchorPoint: "Anchor-12" 371 530 basechar 0
AnchorPoint: "Anchor-11" 0 0 basechar 0
AnchorPoint: "Anchor-10" 371 0 basechar 0
LayerCount: 2
Back
Fore
SplineSet
733 530 m 1xb0
 620 0 l 1
 447 0 l 1
 371 403 l 1xd0
 295 0 l 1
 124 0 l 1
 8 530 l 1
 151 530 l 1
 216 105 l 1
 304 530 l 1
 446 530 l 1
 525 105 l 1
 597 530 l 1
 733 530 l 1xb0
EndSplineSet
Substitution2: "'smcp' Lowercase to Small Capitals lookup 27 subtable" w.sc
Substitution2: "'aalt' Access All Alternates lookup 0 subtable" w.sc
EndChar
StartChar: x
Encoding: 120 120 702
Width: 505
GlyphClass: 2
Flags: MW
HStem: 0 21G<-7 149 -7 -7 349 512 349 349> 510 20G<11 171 171 171 335 487 487 487>
VStem: -7 519<0 0>
AnchorPoint: "Anchor-14" 0 0 basechar 0
AnchorPoint: "Anchor-13" 0 0 basechar 0
AnchorPoint: "Anchor-12" 253 530 basechar 0
AnchorPoint: "Anchor-11" 0 0 basechar 0
AnchorPoint: "Anchor-10" 249 0 basechar 0
LayerCount: 2
Back
Fore
SplineSet
338 284 m 1
 512 0 l 1
 349 0 l 1
 248 205 l 1
 149 0 l 1
 -7 0 l 1
 167 279 l 1
 11 530 l 1
 171 530 l 1
 254 354 l 1
 335 530 l 1
 487 530 l 1
 338 284 l 1
EndSplineSet
Substitution2: "'smcp' Lowercase to Small Capitals lookup 27 subtable" x.sc
Substitution2: "'sups' Superscript lookup 14 subtable" uni02E3
AlternateSubs2: "'aalt' Access All Alternates lookup 1 subtable" uni02E3 x.sc
EndChar
StartChar: y
Encoding: 121 121 703
Width: 512
GlyphClass: 2
Flags: MW
HStem: -220 21G<57 57> 0 21G<163 212 163 163> 510 20G<-2 149 149 149 367 514 514 514>
VStem: -2 516<530 530>
AnchorPoint: "Anchor-14" 0 0 basechar 0
AnchorPoint: "Anchor-13" 0 0 basechar 0
AnchorPoint: "Anchor-12" 256 530 basechar 0
AnchorPoint: "Anchor-11" 0 0 basechar 0
AnchorPoint: "Anchor-10" 255 -208 basechar 0
LayerCount: 2
Back
Fore
SplineSet
514 530 m 1
 343 -1 l 2
 302 -130 219 -209 57 -220 c 1
 42 -118 l 1
 147 -104 183 -72 212 0 c 1
 163 0 l 1
 -2 530 l 1
 149 530 l 1
 255 92 l 1
 367 530 l 1
 514 530 l 1
EndSplineSet
Substitution2: "'smcp' Lowercase to Small Capitals lookup 27 subtable" y.sc
Substitution2: "'aalt' Access All Alternates lookup 0 subtable" y.sc
EndChar

StartChar: z
Encoding: 122 122 262
Width: 454
GlyphClass: 2
Flags: MW
HStem: 0 110<179 419> 421 109<37 265 37 428>
VStem: 16 417<0 110 102 110>
AnchorPoint: "Anchor-11" 0 0 basechar 0
AnchorPoint: "Anchor-10" 0 0 basechar 0
AnchorPoint: "Anchor-9" 229 530 basechar 0
AnchorPoint: "Anchor-8" 0 0 basechar 0
LayerCount: 2
Fore
SplineSet
428 429 m 1
 179 110 l 1
 433 110 l 1
 419 0 l 1
 16 0 l 1
 16 102 l 1
 265 421 l 1
 37 421 l 1
 37 530 l 1
 428 530 l 1
 428 429 l 1
EndSplineSet
Substitution2: "'smcp' Lowercase to Small Capitals lookup 24 subtable" z.sc
Substitution2: "'aalt' Access All Alternates lookup 0 subtable" z.sc
EndChar

StartChar: braceleft
Encoding: 123 123 1003
Width: 323
Flags: MW
HStem: -139 101<262.5 293 262.5 293> 291 117<13 39> 738 101<262 293>
VStem: 79 133<489 677>
LayerCount: 2
Fore
SplineSet
293 738 m 1
 231 738 212 722 212 677 c 2
 212 478 l 2
 212 393 177 365 115 349 c 1
 176 334 213 307 213 222 c 2
 213 23 l 2
 213 -22 232 -38 293 -38 c 1
 293 -139 l 1
 124 -139 79 -85 79 22 c 2
 79 211 l 2
 79 269 65 291 13 291 c 1
 13 408 l 1
 65 408 79 431 79 489 c 2
 79 678 l 2
 79 786 124 839 293 839 c 1
 293 738 l 1
EndSplineSet
Substitution2: "'case' Case-Sensitive Forms lookup 25 subtable" braceleft.case
Substitution2: "'aalt' Access All Alternates lookup 0 subtable" braceleft.case
EndChar
StartChar: bar
Encoding: 124 124 2370
Width: 383
GlyphClass: 2
Flags: MW
HStem: -104 913<126 257 126 257>
VStem: 126 131<-104 809 -104 809>
LayerCount: 2
Back
Fore
SplineSet
257 809 m 1
 257 -104 l 1
 126 -104 l 1
 126 809 l 1
 257 809 l 1
EndSplineSet
EndChar

StartChar: braceright
Encoding: 125 125 1004
Width: 323
Flags: MW
HStem: -139 101<31 61.5 31 115.5> 291 117<284 310> 738 101<31 61.5>
VStem: 111 133<23 211 478 489 489 677 677 678>
LayerCount: 2
Fore
SplineSet
31 839 m 1
 200 839 244 786 244 678 c 2
 244 489 l 2
 244 431 258 408 310 408 c 1
 310 291 l 1
 258 291 244 269 244 211 c 2
 244 22 l 2
 244 -85 200 -139 31 -139 c 1
 31 -38 l 1
 92 -38 111 -22 111 23 c 2
 111 222 l 2
 111 307 148 334 208 349 c 1
 147 365 111 393 111 478 c 2
 111 677 l 2
 111 722 92 738 31 738 c 1
 31 839 l 1
EndSplineSet
Substitution2: "'case' Case-Sensitive Forms lookup 25 subtable" braceright.case
Substitution2: "'aalt' Access All Alternates lookup 0 subtable" braceright.case
EndChar

StartChar: asciitilde
Encoding: 126 126 1087
Width: 508
Flags: MW
HStem: 236 107<316.5 357.5 316.5 374.5> 297 107<151 192>
VStem: 21 466<284 353>
LayerCount: 2
Fore
SplineSet
176 404 m 0x60
 262 404 293 343 340 343 c 0
 375 343 390 366 406 396 c 1
 487 353 l 1
 459 296 415 236 334 236 c 0xa0
 246 236 215 297 169 297 c 0
 133 297 118 271 102 242 c 1
 21 284 l 1
 49 341 94 404 176 404 c 0x60
EndSplineSet
Substitution2: "'onum' Oldstyle Figures lookup 22 subtable" asciitilde.osf
Substitution2: "'tnum' Tabular Numbers lookup 21 subtable" asciitilde.tf
AlternateSubs2: "'aalt' Access All Alternates lookup 1 subtable" asciitilde.tf asciitilde.osf
EndChar
StartChar: exclamdown
Encoding: 161 161 2123
Width: 241
Flags: MW
HStem: -204 21G<45 197 45 45> 335 171<97 144.5>
VStem: 35 171<397 443.5> 54 134
LayerCount: 2
Back
Fore
SplineSet
121 506 m 0xe0
 168 506 206 467 206 420 c 0
 206 374 168 335 121 335 c 0
 73 335 35 374 35 420 c 0
 35 467 73 506 121 506 c 0xe0
179 238 m 1xd0
 197 -204 l 1
 45 -204 l 1
 63 238 l 1
 179 238 l 1xd0
EndSplineSet
Substitution2: "'case' Case-Sensitive Forms lookup 28 subtable" exclamdown.case
Substitution2: "'aalt' Access All Alternates lookup 0 subtable" exclamdown.case
EndChar

StartChar: cent
Encoding: 162 162 1060
Width: 478
Flags: MW
HStem: -12 21G<342 342> -11 21G<236 236> 436 254<265.5 320.5> 521 20G<237 237> 522 20G<342 342>
VStem: 38 150<200.5 323.5 200.5 335> 237 105<542 690>
LayerCount: 2
Fore
SplineSet
467 46 m 1xa6
 431 17 390 -4 342 -12 c 1x8e
 342 -159 l 1
 236 -159 l 1
 236 -11 l 1
 112 12 38 113 38 261 c 0
 38 409 114 517 237 541 c 1x56
 237 690 l 1
 342 690 l 1x66
 342 542 l 1
 390 534 430 514 467 482 c 1x4e
 405 397 l 1
 371 424 340 436 301 436 c 0
 230 436 188 385 188 262 c 0
 188 139 233 98 300 98 c 0
 339 98 366 110 403 138 c 1
 467 46 l 1xa6
EndSplineSet
Substitution2: "'onum' Oldstyle Figures lookup 22 subtable" cent.osf
Substitution2: "'tnum' Tabular Numbers lookup 21 subtable" cent.tf
AlternateSubs2: "'aalt' Access All Alternates lookup 1 subtable" cent.tf cent.osf
EndChar
StartChar: sterling
Encoding: 163 163 2217
Width: 544
GlyphClass: 2
Flags: MW
HStem: 0 110<190 484> 314 76<46 114 46 114 253 444> 579 108<307 354>
VStem: 114 139<226 232 232 314 203 314 390 484>
LayerCount: 2
Back
Fore
SplineSet
253 232 m 2
 253 174 242 138 190 110 c 1
 500 110 l 1
 484 0 l 1
 31 0 l 1
 31 104 l 1
 105 127 114 158 114 226 c 2
 114 314 l 1
 46 314 l 1
 46 390 l 1
 114 390 l 1
 114 485 l 2
 114 601 184 687 321 687 c 0
 408 687 470 656 519 592 c 1
 430 527 l 1
 403 565 374 579 334 579 c 0
 280 579 253 545 253 484 c 2
 253 390 l 1
 444 390 l 1
 444 314 l 1
 253 314 l 1
 253 232 l 2
EndSplineSet
Substitution2: "'onum' Oldstyle Figures lookup 25 subtable" sterling.osf
Substitution2: "'tnum' Tabular Numbers lookup 24 subtable" sterling.tf
AlternateSubs2: "'aalt' Access All Alternates lookup 1 subtable" sterling.tf sterling.osf
EndChar
StartChar: yen
Encoding: 165 165 2238
Width: 561
GlyphClass: 2
Flags: MW
HStem: 0 197<76 352 76 210> 120 77<76 210 76 210 352 486> 273 78<76 176 76 210 76 176 385 486>
VStem: 210 142<0 120 0 120 197 273>
LayerCount: 2
Back
Fore
SplineSet
565 674 m 1xb0
 385 351 l 1
 486 351 l 1
 486 273 l 1
 352 273 l 1
 352 197 l 1
 486 197 l 1xb0
 486 120 l 1
 352 120 l 1x70
 352 0 l 1
 210 0 l 1xb0
 210 120 l 1
 76 120 l 1x70
 76 197 l 1
 210 197 l 1
 210 273 l 1
 76 273 l 1
 76 351 l 1
 176 351 l 1
 -4 674 l 1
 148 674 l 1
 284 390 l 1
 418 674 l 1
 565 674 l 1xb0
EndSplineSet
Substitution2: "'onum' Oldstyle Figures lookup 25 subtable" yen.osf
Substitution2: "'tnum' Tabular Numbers lookup 24 subtable" yen.tf
AlternateSubs2: "'aalt' Access All Alternates lookup 1 subtable" yen.tf yen.osf
EndChar

StartChar: brokenbar
Encoding: 166 166 1217
Width: 383
Flags: MW
HStem: -104 913<126 257 126 257>
VStem: 126 131<-104 262 443 809>
LayerCount: 2
Fore
SplineSet
257 443 m 1
 126 443 l 1
 126 809 l 1
 257 809 l 1
 257 443 l 1
257 -104 m 1
 126 -104 l 1
 126 262 l 1
 257 262 l 1
 257 -104 l 1
EndSplineSet
EndChar
StartChar: section
Encoding: 167 167 2377
Width: 546
GlyphClass: 2
Flags: MW
HStem: -80 100<221 271 221 315.5> 586 100<271 319.5>
VStem: 57 126<302.5 328> 82 136<518.5 551.5 518.5 576.5> 330 136<53.5 87> 363 126<275 302.5>
LayerCount: 2
Back
Fore
SplineSet
411 180 m 1xd8
 449 153 466 123 466 75 c 0
 466 -18 380 -80 251 -80 c 0
 174 -80 111 -59 65 -27 c 1
 112 61 l 1
 154 34 197 20 245 20 c 0
 297 20 330 38 330 69 c 0
 330 105 314 119 209 152 c 0
 112 182 57 218 57 301 c 0xe8
 57 355 92 398 134 425 c 1
 98 452 82 484 82 530 c 0
 82 623 166 686 290 686 c 0
 363 686 428 664 477 631 c 1
 429 548 l 1
 386 574 343 586 296 586 c 0
 246 586 218 567 218 536 c 0
 218 501 234 486 335 454 c 0
 433 423 489 386 489 302 c 0xd4
 489 248 455 208 411 180 c 1xd8
265 245 m 0xe4
 290 236 313 227 334 219 c 1
 352 240 363 264 363 284 c 0
 363 321 343 338 263 366 c 0
 243 372 225 379 209 385 c 1
 192 364 183 340 183 321 c 0
 183 284 200 267 265 245 c 0xe4
EndSplineSet
Substitution2: "'onum' Oldstyle Figures lookup 25 subtable" section.osf
Substitution2: "'tnum' Tabular Numbers lookup 24 subtable" section.tf
AlternateSubs2: "'aalt' Access All Alternates lookup 1 subtable" section.tf section.osf
EndChar
StartChar: dieresis
Encoding: 168 168 2529
Width: 437
Flags: MW
HStem: 644 148<84 126.5 310.5 352.5>
VStem: 30 150<697.5 738.5> 257 150<697.5 738.5>
LayerCount: 2
Back
Fore
SplineSet
105 792 m 0
 148 792 180 759 180 718 c 0
 180 677 148 644 105 644 c 0
 63 644 30 677 30 718 c 0
 30 759 63 792 105 792 c 0
331 792 m 0
 374 792 407 759 407 718 c 0
 407 677 374 644 331 644 c 0
 290 644 257 677 257 718 c 0
 257 759 290 792 331 792 c 0
EndSplineSet
Substitution2: "Single Substitution lookup 41 subtable" dieresis.case
Substitution2: "'case' Case-Sensitive Forms lookup 28 subtable" dieresis.case
Substitution2: "'smcp' Lowercase to Small Capitals lookup 27 subtable" dieresis.sc
Substitution2: "'c2sc' Capitals to Small Capitals lookup 26 subtable" dieresis.sc
AlternateSubs2: "'aalt' Access All Alternates lookup 1 subtable" dieresis.sc dieresis.case
EndChar

StartChar: ordfeminine
Encoding: 170 170 415
Width: 500
GlyphClass: 2
Flags: MW
HStem: 0 111<56 457 56 457> 266 92<214.5 215> 457 70<251 264 264 293> 599 93<218 247.5>
VStem: 51 132<387.5 420 387.5 435.5> 293 126<389 400 400 457 457 457 527 541 541 549>
LayerCount: 2
Fore
SplineSet
293 527 m 1
 293 541 l 2
 293 586 273 599 222 599 c 0
 195 599 153 592 111 578 c 1
 81 662 l 1
 135 682 194 692 242 692 c 0
 367 692 419 643 419 549 c 2
 419 400 l 2
 419 370 428 359 448 352 c 1
 422 268 l 1
 372 272 339 287 318 324 c 1
 288 282 240 266 190 266 c 0
 105 266 51 318 51 392 c 0
 51 479 122 527 251 527 c 2
 293 527 l 1
230 358 m 0
 257 358 279 370 293 389 c 1
 293 457 l 1
 264 457 l 2
 210 457 183 439 183 401 c 0
 183 374 199 358 230 358 c 0
457 111 m 1
 457 0 l 1
 56 0 l 1
 56 111 l 1
 457 111 l 1
EndSplineSet
EndChar

StartChar: guillemotleft
Encoding: 171 171 1034
Width: 615
Flags: MW
HStem: 19 532<227 227 227 487>
VStem: 41 142<285 285 285 330 285 330>
LayerCount: 2
Fore
SplineSet
314 493 m 1
 183 285 l 1
 314 77 l 1
 227 19 l 1
 41 239 l 1
 41 330 l 1
 227 551 l 1
 314 493 l 1
574 493 m 1
 444 285 l 1
 574 77 l 1
 487 19 l 1
 301 239 l 1
 301 330 l 1
 487 551 l 1
 574 493 l 1
EndSplineSet
Substitution2: "'case' Case-Sensitive Forms lookup 25 subtable" guillemotleft.case
Substitution2: "'aalt' Access All Alternates lookup 0 subtable" guillemotleft.case
EndChar

StartChar: logicalnot
Encoding: 172 172 1103
Width: 524
Flags: MW
HStem: 271 112<52 353 52 472>
VStem: 353 119<120 271 271 271>
LayerCount: 2
Fore
SplineSet
472 120 m 1
 353 120 l 1
 353 271 l 1
 52 271 l 1
 52 383 l 1
 472 383 l 1
 472 120 l 1
EndSplineSet
Substitution2: "'onum' Oldstyle Figures lookup 22 subtable" logicalnot.osf
Substitution2: "'tnum' Tabular Numbers lookup 21 subtable" logicalnot.tf
AlternateSubs2: "'aalt' Access All Alternates lookup 1 subtable" logicalnot.tf logicalnot.osf
EndChar
StartChar: uni00AD
Encoding: 173 173 2168
Width: 406
Flags: MW
HStem: 257 112<48 358 48 358>
VStem: 48 310<257 369 257 369>
LayerCount: 2
Back
Fore
SplineSet
48 257 m 1
 48 369 l 1
 358 369 l 1
 358 257 l 1
 48 257 l 1
EndSplineSet
Substitution2: "'case' Case-Sensitive Forms lookup 28 subtable" uni00AD.case
Substitution2: "'aalt' Access All Alternates lookup 0 subtable" uni00AD.case
EndChar
StartChar: registered
Encoding: 174 174 2376
Width: 638
GlyphClass: 2
Flags: MW
HStem: 218 63<262 377 262 396> 457 54<286 308 286 315> 583 51<286 286 286 301 301 314> 694 63<262 377>
VStem: 50 72<428 544.5 428 562.5> 218 68<353 457 353 511 511 583> 361 70<535.5 560.5> 516 73<428 544.5>
LayerCount: 2
Back
Fore
SplineSet
319 757 m 0
 473 757 589 639 589 486 c 0
 589 334 473 218 319 218 c 0
 166 218 50 334 50 486 c 0
 50 639 166 757 319 757 c 0
319 281 m 0
 435 281 516 370 516 486 c 0
 516 603 435 694 319 694 c 0
 205 694 122 603 122 486 c 0
 122 370 205 281 319 281 c 0
431 547 m 0
 431 509 406 483 372 470 c 1
 445 353 l 1
 367 353 l 1
 308 457 l 1
 286 457 l 1
 286 353 l 1
 218 353 l 1
 218 634 l 1
 301 634 l 2
 388 634 431 606 431 547 c 0
286 583 m 1
 286 511 l 1
 315 511 l 2
 342 511 361 522 361 549 c 0
 361 572 345 583 314 583 c 2
 286 583 l 1
EndSplineSet
EndChar
StartChar: macron
Encoding: 175 175 2535
Width: 358
Flags: MW
HStem: 658 100<30 328 30 328>
VStem: 30 298<658 758 658 758>
LayerCount: 2
Back
Fore
SplineSet
328 658 m 1
 30 658 l 1
 30 758 l 1
 328 758 l 1
 328 658 l 1
EndSplineSet
Substitution2: "Single Substitution lookup 41 subtable" macron.case
Substitution2: "'case' Case-Sensitive Forms lookup 28 subtable" macron.case
Substitution2: "'smcp' Lowercase to Small Capitals lookup 27 subtable" macron.sc
Substitution2: "'c2sc' Capitals to Small Capitals lookup 26 subtable" macron.sc
AlternateSubs2: "'aalt' Access All Alternates lookup 1 subtable" macron.sc macron.case
EndChar
StartChar: degree
Encoding: 176 176 2379
Width: 521
GlyphClass: 2
Flags: MW
HStem: 372 85<196.5 239.5 196.5 261.5> 624 84<196.5 239.5>
VStem: 43 101<514.5 567.5 514.5 594> 292 101<514 566.5>
LayerCount: 2
Back
Fore
SplineSet
218 372 m 0
 131 372 43 435 43 541 c 0
 43 647 131 708 218 708 c 0
 305 708 393 647 393 540 c 0
 393 434 305 372 218 372 c 0
218 457 m 0
 261 457 292 488 292 540 c 0
 292 593 261 624 218 624 c 0
 175 624 144 594 144 541 c 0
 144 488 175 457 218 457 c 0
EndSplineSet
Substitution2: "'onum' Oldstyle Figures lookup 25 subtable" degree.osf
Substitution2: "'tnum' Tabular Numbers lookup 24 subtable" degree.tf
AlternateSubs2: "'aalt' Access All Alternates lookup 1 subtable" degree.tf degree.osf
EndChar
StartChar: plusminus
Encoding: 177 177 2298
Width: 524
GlyphClass: 2
Flags: MW
HStem: 0 111<56 467 56 467> 337 111<52 202 52 202 322 472>
VStem: 202 120<183 337 183 337 448 602>
LayerCount: 2
Back
Fore
SplineSet
322 602 m 1
 322 448 l 1
 472 448 l 1
 472 337 l 1
 322 337 l 1
 322 183 l 1
 202 183 l 1
 202 337 l 1
 52 337 l 1
 52 448 l 1
 202 448 l 1
 202 602 l 1
 322 602 l 1
56 0 m 1
 56 111 l 1
 467 111 l 1
 467 0 l 1
 56 0 l 1
EndSplineSet
Substitution2: "'onum' Oldstyle Figures lookup 25 subtable" plusminus.osf
Substitution2: "'tnum' Tabular Numbers lookup 24 subtable" plusminus.tf
AlternateSubs2: "'aalt' Access All Alternates lookup 1 subtable" plusminus.tf plusminus.osf
EndChar
StartChar: uni00B2
Encoding: 178 178 2104
Width: 400
Flags: MW
HStem: 321 83<178 347> 668 82<167.5 199.5>
VStem: 237 112<595 633.5>
LayerCount: 2
Back
Fore
SplineSet
195 750 m 0
 296 750 349 693 349 626 c 0
 349 564 315 517 178 404 c 1
 358 404 l 1
 347 321 l 1
 57 321 l 1
 57 397 l 1
 203 532 237 570 237 617 c 0
 237 650 216 668 183 668 c 0
 152 668 129 655 104 626 c 1
 41 675 l 1
 76 720 128 750 195 750 c 0
EndSplineSet
EndChar

StartChar: threesuperior
Encoding: 179 179 971
Width: 400
Flags: MW
HStem: 310 82<167.5 203.5 167.5 247> 503 74<156 180 144 181> 523 20G 670 80<170 203>
VStem: 242 106<619 640.5> 250 113<429.5 468>
LayerCount: 2
Fore
SplineSet
198 750 m 0xd8
 296 750 348 704 348 644 c 0xd8
 348 594 316 558 256 543 c 1xb4
 317 538 363 507 363 439 c 0
 363 370 303 310 191 310 c 0
 123 310 72 335 37 375 c 1
 97 432 l 1
 124 404 151 392 184 392 c 0
 223 392 250 411 250 448 c 0
 250 488 226 503 180 503 c 2xd4
 144 503 l 1
 156 577 l 1
 181 577 l 2
 219 577 242 595 242 626 c 0
 242 655 220 670 186 670 c 0
 154 670 126 658 101 635 c 1
 46 692 l 1
 88 730 138 750 198 750 c 0xd8
EndSplineSet
EndChar
StartChar: acute
Encoding: 180 180 2511
Width: 330
Flags: MW
HStem: 626 201<70 244>
VStem: 30 270<699 718>
LayerCount: 2
Back
Fore
SplineSet
244 827 m 1
 300 718 l 1
 70 626 l 1
 30 699 l 1
 244 827 l 1
EndSplineSet
Substitution2: "Single Substitution lookup 41 subtable" acute.case
Substitution2: "'case' Case-Sensitive Forms lookup 28 subtable" acute.case
Substitution2: "'smcp' Lowercase to Small Capitals lookup 27 subtable" acute.sc
Substitution2: "'c2sc' Capitals to Small Capitals lookup 26 subtable" acute.sc
Substitution2: "'locl' Localized Forms in Latin lookup 7 subtable" acute.loclPLK
AlternateSubs2: "'aalt' Access All Alternates lookup 1 subtable" acute.loclPLK acute.sc acute.case
EndChar

StartChar: paragraph
Encoding: 182 182 1220
Width: 775
Flags: MW
HStem: -221 21G<306 306 528 528> -204 21G<431 431 653 653> 590 102<431 528 431 431>
VStem: 306 125<-204 268 268 268> 528 125<-204 590 590 590>
LayerCount: 2
Fore
SplineSet
653 692 m 1x78
 653 -204 l 1x78
 528 -221 l 1xb8
 528 590 l 1
 431 590 l 1
 431 -204 l 1x78
 306 -221 l 1xb8
 306 268 l 1
 147 273 71 359 71 479 c 0
 71 613 168 695 335 692 c 1
 653 692 l 1x78
EndSplineSet
EndChar

StartChar: cedilla
Encoding: 184 184 1253
Width: 310
Flags: MW
HStem: -257 80<114.5 141 114.5 179.5> -109 125<99 115.5>
VStem: 175 105<-157 -132.5>
LayerCount: 2
Fore
SplineSet
179 -50 m 1
 249 -57 280 -95 280 -146 c 0
 280 -213 222 -257 137 -257 c 0
 92 -257 54 -245 30 -228 c 1
 63 -160 l 1
 83 -171 102 -177 127 -177 c 0
 155 -177 175 -169 175 -145 c 0
 175 -120 148 -109 83 -109 c 1
 99 16 l 1
 179 16 l 1
 179 -50 l 1
EndSplineSet
Substitution2: "'case' Case-Sensitive Forms lookup 25 subtable" cedilla.case
Substitution2: "'smcp' Lowercase to Small Capitals lookup 24 subtable" cedilla.sc
Substitution2: "'c2sc' Capitals to Small Capitals lookup 23 subtable" cedilla.sc
AlternateSubs2: "'aalt' Access All Alternates lookup 1 subtable" cedilla.sc cedilla.case
EndChar

StartChar: onesuperior
Encoding: 185 185 969
Width: 400
Flags: MW
HStem: 721 20G<196 293 293 293>
VStem: 187 106<321 638 638 638>
LayerCount: 2
Fore
SplineSet
293 321 m 1
 187 321 l 1
 187 638 l 1
 93 582 l 1
 46 654 l 1
 196 741 l 1
 293 741 l 1
 293 321 l 1
EndSplineSet
EndChar
StartChar: uni00B9
Encoding: 185 185 2103
Width: 400
Flags: MW
HStem: 721 20G<196 293 293 293>
VStem: 187 106<321 638 638 638>
LayerCount: 2
Back
Fore
SplineSet
293 741 m 1
 293 321 l 1
 187 321 l 1
 187 638 l 1
 93 582 l 1
 46 654 l 1
 196 741 l 1
 293 741 l 1
EndSplineSet
EndChar
StartChar: ordmasculine
Encoding: 186 186 1051
Width: 500
GlyphClass: 2
Flags: MW
HStem: 0 111<45 455 45 455> 266 94<225 275.5 225 315.5> 598 94<225.5 276>
VStem: 41 134<437.5 521 437.5 544> 325 134<437.5 521.5>
LayerCount: 2
Back
Fore
SplineSet
251 692 m 0
 380 692 459 615 459 479 c 0
 459 350 381 266 250 266 c 0
 121 266 41 343 41 480 c 0
 41 608 120 692 251 692 c 0
251 598 m 0
 200 598 175 562 175 480 c 0
 175 395 200 360 250 360 c 0
 301 360 325 396 325 479 c 0
 325 564 301 598 251 598 c 0
45 0 m 1
 45 111 l 1
 455 111 l 1
 455 0 l 1
 45 0 l 1
EndSplineSet
EndChar

StartChar: guillemotright
Encoding: 187 187 1035
Width: 611
Flags: MW
HStem: 19 532<128 128 128 384>
VStem: 41 529<77 330 239 493>
LayerCount: 2
Fore
SplineSet
314 330 m 1
 314 239 l 1
 128 19 l 1
 41 77 l 1
 171 285 l 1
 41 493 l 1
 128 551 l 1
 314 330 l 1
570 330 m 1
 570 239 l 1
 384 19 l 1
 297 77 l 1
 427 285 l 1
 297 493 l 1
 384 551 l 1
 570 330 l 1
EndSplineSet
Substitution2: "'case' Case-Sensitive Forms lookup 25 subtable" guillemotright.case
Substitution2: "'aalt' Access All Alternates lookup 0 subtable" guillemotright.case
EndChar
StartChar: onequarter
Encoding: 188 188 2060
Width: 960
Flags: MW
HStem: 0 167<779 781 700 882 779 779> 87 80<700 779 882 930> 672 20G<196 293 293 293> 737 20G<643 643>
VStem: 187 106<272 589 589 589> 779 103<0 87 0 87>
LayerCount: 2
Back
Fore
SplineSet
643 757 m 1xbc
 727 715 l 1
 317 -84 l 1
 233 -42 l 1
 643 757 l 1xbc
293 272 m 1
 187 272 l 1
 187 589 l 1
 93 533 l 1
 46 605 l 1
 196 692 l 1
 293 692 l 1
 293 272 l 1
930 167 m 1
 930 87 l 1
 882 87 l 1x7c
 882 0 l 1
 779 0 l 1xbc
 779 87 l 1
 589 87 l 1
 589 159 l 1x7c
 712 429 l 1
 803 396 l 1
 700 167 l 1
 781 167 l 1
 798 264 l 1
 882 264 l 1
 882 167 l 1
 930 167 l 1
EndSplineSet
EndChar
StartChar: onehalf
Encoding: 189 189 2057
Width: 960
Flags: MW
HStem: 0 83<738 907> 347 82<727.5 759.5> 672 20G<196 293 293 293> 737 20G<643 643>
VStem: 187 106<272 589 589 589> 797 112<274 312.5>
LayerCount: 2
Back
Fore
SplineSet
643 757 m 1
 727 715 l 1
 317 -84 l 1
 233 -42 l 1
 643 757 l 1
293 692 m 1
 293 272 l 1
 187 272 l 1
 187 589 l 1
 93 533 l 1
 46 605 l 1
 196 692 l 1
 293 692 l 1
755 429 m 0
 856 429 909 372 909 305 c 0
 909 243 875 196 738 83 c 1
 918 83 l 1
 907 0 l 1
 617 0 l 1
 617 76 l 1
 763 211 797 249 797 296 c 0
 797 329 776 347 743 347 c 0
 712 347 689 334 664 305 c 1
 601 354 l 1
 636 399 688 429 755 429 c 0
EndSplineSet
EndChar

StartChar: threequarters
Encoding: 190 190 927
Width: 960
Flags: MW
HStem: 0 167<779 781 700 882 779 779> 87 80<700 779 882 930> 261 82<167.5 203.5 167.5 247> 454 74<156 180 144 181> 621 80<170 203> 737 20G<643 643>
VStem: 242 106<570 591.5> 250 113<380.5 419> 779 103<0 87 0 87>
LayerCount: 2
Fore
SplineSet
727 715 m 1xbd80
 317 -84 l 1
 233 -42 l 1
 643 757 l 1
 727 715 l 1xbd80
363 390 m 0
 363 321 303 261 191 261 c 0
 123 261 72 286 37 326 c 1
 97 383 l 1
 124 355 151 343 184 343 c 0
 223 343 250 362 250 399 c 0
 250 439 226 454 180 454 c 2xbd80
 144 454 l 1
 156 528 l 1
 181 528 l 2
 219 528 242 546 242 577 c 0
 242 606 220 621 186 621 c 0
 154 621 126 609 101 586 c 1
 46 643 l 1
 88 681 138 701 198 701 c 0
 296 701 348 655 348 595 c 0xbe80
 348 545 316 509 256 494 c 1
 317 489 363 458 363 390 c 0
930 87 m 1x7d80
 882 87 l 1x7d80
 882 0 l 1
 779 0 l 1xbd80
 779 87 l 1
 589 87 l 1
 589 159 l 1x7d80
 712 429 l 1
 803 396 l 1
 700 167 l 1
 781 167 l 1
 798 264 l 1
 882 264 l 1
 882 167 l 1
 930 167 l 1xbd80
 930 87 l 1x7d80
EndSplineSet
EndChar
StartChar: questiondown
Encoding: 191 191 2128
Width: 476
Flags: MW
HStem: -221 113<220 265.5 220 279.5> 335 171<238 286>
VStem: 18 149<-64.5 0 -64.5 25> 176 171<397 443.5> 198 131<206 239 116 239>
LayerCount: 2
Back
Fore
SplineSet
262 335 m 0xf0
 214 335 176 374 176 420 c 0
 176 467 214 506 262 506 c 0
 310 506 347 467 347 420 c 0
 347 374 310 335 262 335 c 0xf0
230 -221 m 0xe8
 89 -221 18 -143 18 -56 c 0
 18 106 198 92 198 206 c 2
 198 239 l 1
 329 239 l 1
 329 201 l 2
 329 31 167 44 167 -44 c 0
 167 -85 196 -108 244 -108 c 0
 287 -108 329 -87 366 -44 c 1
 458 -116 l 1
 401 -182 329 -221 230 -221 c 0xe8
EndSplineSet
Substitution2: "'case' Case-Sensitive Forms lookup 28 subtable" questiondown.case
Substitution2: "'aalt' Access All Alternates lookup 0 subtable" questiondown.case
EndChar
StartChar: Agrave
Encoding: 192 192 23
Width: 586
GlyphClass: 2
Flags: MW
HStem: 0 21G<-9 144 -9 -9 439 595 439 439> 155 109<210 372 210 400 183 372> 583 109<291 291> 672 20G<204 383 383 383>
VStem: -9 604<0 0>
AnchorPoint: "Anchor-14" 0 0 basechar 0
AnchorPoint: "Anchor-13" 0 0 basechar 0
AnchorPoint: "Anchor-12" 294 945 basechar 0
AnchorPoint: "Anchor-11" 532 0 basechar 0
AnchorPoint: "Anchor-10" 294 0 basechar 0
LayerCount: 2
Back
Fore
SplineSet
423 825 m 1xd8
 387 752 l 1
 153 837 l 1
 208 945 l 1
 423 825 l 1xd8
439 0 m 1
 400 155 l 1
 183 155 l 1
 144 0 l 1
 -9 0 l 1
 204 692 l 1
 383 692 l 1
 595 0 l 1
 439 0 l 1
210 264 m 1
 372 264 l 1
 291 583 l 1xe8
 210 264 l 1
EndSplineSet
Substitution2: "'c2sc' Capitals to Small Capitals lookup 26 subtable" agrave.sc
Substitution2: "'aalt' Access All Alternates lookup 0 subtable" agrave.sc
Position2: "'cpsp' Capital Spacing lookup 0 subtable" dx=5 dy=0 dh=10 dv=0
EndChar

StartChar: Aacute
Encoding: 193 193 2
Width: 586
GlyphClass: 2
Flags: MW
HStem: 0 21G<-9 144 -9 -9 439 439 439 595> 155 109<211 372 211 400 183 372> 583 109<291 291> 672 20G<204 383 383 383>
VStem: -9 604<0 0>
AnchorPoint: "Anchor-11" 0 0 basechar 0
AnchorPoint: "Anchor-10" 145 692 basechar 0
AnchorPoint: "Anchor-9" 294 692 basechar 0
AnchorPoint: "Anchor-8" 532 0 basechar 0
LayerCount: 2
Fore
SplineSet
193 752 m 1xd8
 157 825 l 1
 372 945 l 1
 427 837 l 1
 193 752 l 1xd8
400 155 m 1
 183 155 l 1
 144 0 l 1
 -9 0 l 1
 204 692 l 1
 383 692 l 1
 595 0 l 1
 439 0 l 1
 400 155 l 1
372 264 m 1
 291 583 l 1xe8
 211 264 l 1
 372 264 l 1
EndSplineSet
Substitution2: "'c2sc' Capitals to Small Capitals lookup 23 subtable" aacute.sc
Substitution2: "'aalt' Access All Alternates lookup 0 subtable" aacute.sc
Position2: "'cpsp' Capital Spacing lookup 0 subtable" dx=5 dy=0 dh=10 dv=0
EndChar
StartChar: Acircumflex
Encoding: 194 194 11
Width: 586
GlyphClass: 2
Flags: MW
HStem: 0 21G<-9 144 -9 -9 439 595 439 439> 155 109<210 372 210 400 183 372> 583 109<291 291> 672 20G<204 383 383 383>
VStem: -9 604<0 0>
AnchorPoint: "Anchor-14" 0 0 basechar 0
AnchorPoint: "Anchor-13" 402 819 basechar 0
AnchorPoint: "Anchor-12" 293 940 basechar 0
AnchorPoint: "Anchor-11" 532 0 basechar 0
AnchorPoint: "Anchor-10" 294 0 basechar 0
LayerCount: 2
Back
Fore
SplineSet
293 839 m 1xd8
 162 756 l 1
 109 816 l 1
 249 940 l 1
 337 940 l 1
 477 816 l 1
 425 756 l 1
 293 839 l 1xd8
439 0 m 1
 400 155 l 1
 183 155 l 1
 144 0 l 1
 -9 0 l 1
 204 692 l 1
 383 692 l 1
 595 0 l 1
 439 0 l 1
210 264 m 1
 372 264 l 1
 291 583 l 1xe8
 210 264 l 1
EndSplineSet
Substitution2: "'c2sc' Capitals to Small Capitals lookup 26 subtable" acircumflex.sc
Substitution2: "'aalt' Access All Alternates lookup 0 subtable" acircumflex.sc
Position2: "'cpsp' Capital Spacing lookup 0 subtable" dx=5 dy=0 dh=10 dv=0
EndChar

StartChar: Atilde
Encoding: 195 195 10
Width: 586
GlyphClass: 2
Flags: MW
HStem: 0 21G<-9 144 -9 -9 439 439 439 595> 155 109<211 372 211 400 183 372> 583 109<291 291> 672 20G<204 383 383 383> 766 102<334 362 334 381.5> 812 102<225.5 254>
VStem: -9 604<0 0>
AnchorPoint: "Anchor-11" 0 0 basechar 0
AnchorPoint: "Anchor-10" 145 692 basechar 0
AnchorPoint: "Anchor-9" 294 692 basechar 0
AnchorPoint: "Anchor-8" 532 0 basechar 0
LayerCount: 2
Fore
SplineSet
237 812 m 0xd6
 214 812 200 796 184 767 c 1
 111 803 l 1
 135 863 178 914 236 914 c 0xd6
 296 914 317 868 351 868 c 0
 373 868 387 883 404 912 c 1
 477 876 l 1
 451 811 408 766 355 766 c 0xda
 292 766 271 812 237 812 c 0xd6
400 155 m 1
 183 155 l 1
 144 0 l 1
 -9 0 l 1
 204 692 l 1
 383 692 l 1
 595 0 l 1
 439 0 l 1
 400 155 l 1
372 264 m 1
 291 583 l 1xe6
 211 264 l 1
 372 264 l 1
EndSplineSet
Substitution2: "'c2sc' Capitals to Small Capitals lookup 23 subtable" atilde.sc
Substitution2: "'aalt' Access All Alternates lookup 0 subtable" atilde.sc
Position2: "'cpsp' Capital Spacing lookup 0 subtable" dx=5 dy=0 dh=10 dv=0
EndChar
StartChar: Aring
Encoding: 197 197 29
Width: 586
GlyphClass: 2
Flags: MW
HStem: 0 21G<-9 144 -9 -9 439 595 439 439> 155 109<210 372 210 400 183 372> 583 109<291 291> 672 20G<204 383 383 383> 735 74<280 308 280 334.5> 912 74<280 308>
VStem: 161 86<844 877.5 844 895> 341 86<844 877.5>
AnchorPoint: "Anchor-14" 0 0 basechar 0
AnchorPoint: "Anchor-13" 0 0 basechar 0
AnchorPoint: "Anchor-12" 296 986 basechar 0
AnchorPoint: "Anchor-11" 532 0 basechar 0
AnchorPoint: "Anchor-10" 294 0 basechar 0
LayerCount: 2
Back
Fore
SplineSet
294 735 m 0xdf
 213 735 161 793 161 861 c 0
 161 929 213 986 294 986 c 0
 375 986 427 929 427 861 c 0
 427 793 375 735 294 735 c 0xdf
294 912 m 0
 266 912 247 894 247 861 c 0
 247 827 266 809 294 809 c 0
 322 809 341 827 341 861 c 0
 341 894 322 912 294 912 c 0
439 0 m 1
 400 155 l 1
 183 155 l 1
 144 0 l 1
 -9 0 l 1
 204 692 l 1
 383 692 l 1
 595 0 l 1
 439 0 l 1
210 264 m 1
 372 264 l 1
 291 583 l 1xef
 210 264 l 1
EndSplineSet
Substitution2: "'c2sc' Capitals to Small Capitals lookup 26 subtable" aring.sc
Substitution2: "'aalt' Access All Alternates lookup 0 subtable" aring.sc
Position2: "'cpsp' Capital Spacing lookup 0 subtable" dx=5 dy=0 dh=10 dv=0
EndChar

StartChar: AE
Encoding: 198 198 11
Width: 838
GlyphClass: 2
Flags: MW
HStem: 0 108<570 800 570 800> 155 109<227 398 227 419 190 398> 297 106<529 753 529 529> 585 107<467 746 467 467>
VStem: -20 820<0 108>
AnchorPoint: "Anchor-11" 0 0 basechar 0
AnchorPoint: "Anchor-10" 0 0 basechar 0
AnchorPoint: "Anchor-9" 481 692 basechar 0
AnchorPoint: "Anchor-8" 0 0 basechar 0
LayerCount: 2
Fore
SplineSet
800 108 m 1
 800 0 l 1
 448 0 l 1
 419 155 l 1
 190 155 l 1
 136 0 l 1
 -20 0 l 1
 252 692 l 1
 762 692 l 1
 746 585 l 1
 467 585 l 1
 506 403 l 1
 753 403 l 1
 753 297 l 1
 529 297 l 1
 570 108 l 1
 800 108 l 1
398 264 m 1
 338 583 l 1
 227 264 l 1
 398 264 l 1
EndSplineSet
Substitution2: "'c2sc' Capitals to Small Capitals lookup 23 subtable" ae.sc
Substitution2: "'aalt' Access All Alternates lookup 0 subtable" ae.sc
Position2: "'cpsp' Capital Spacing lookup 0 subtable" dx=5 dy=0 dh=10 dv=0
EndChar

StartChar: Ccedilla
Encoding: 199 199 17
Width: 571
GlyphClass: 2
Flags: MW
HStem: -257 80<317.5 344 317.5 382.5> -14 21G<382 382> -14 114<382 382> -13 21G<298 298> 597 111<307 377>
VStem: 38 155<260 437 260 463.5> 292 90 378 105<-157 -132.5>
AnchorPoint: "Anchor-11" 343 0 basechar 0
AnchorPoint: "Anchor-10" 0 0 basechar 0
AnchorPoint: "Anchor-9" 352 692 basechar 0
AnchorPoint: "Anchor-8" 0 0 basechar 0
LayerCount: 2
Fore
SplineSet
561 71 m 1xac
 522 31 461 -6 382 -14 c 1
 382 -50 l 1xce
 452 -57 483 -95 483 -146 c 0
 483 -213 425 -257 340 -257 c 0
 295 -257 257 -245 233 -228 c 1
 266 -160 l 1
 286 -171 305 -177 330 -177 c 0
 358 -177 378 -169 378 -145 c 0x9d
 378 -120 351 -109 286 -109 c 1
 298 -13 l 1x9e
 142 9 38 133 38 347 c 0
 38 580 171 708 344 708 c 0
 436 708 496 681 553 633 c 1
 479 547 l 1
 441 580 401 597 353 597 c 0
 261 597 193 527 193 347 c 0
 193 173 260 100 355 100 c 0
 413 100 453 127 493 158 c 1
 561 71 l 1xac
EndSplineSet
Substitution2: "'c2sc' Capitals to Small Capitals lookup 23 subtable" ccedilla.sc
Substitution2: "'aalt' Access All Alternates lookup 0 subtable" ccedilla.sc
Position2: "'cpsp' Capital Spacing lookup 0 subtable" dx=5 dy=0 dh=10 dv=0
EndChar

StartChar: Egrave
Encoding: 200 200 31
Width: 528
GlyphClass: 2
Flags: MW
HStem: 0 108<220 488 220 488> 299 106<220 438 220 438> 585 107<220 470 220 220>
VStem: 73 147<108 299 405 585>
AnchorPoint: "Anchor-11" 281 0 basechar 0
AnchorPoint: "Anchor-10" 68 692 basechar 0
AnchorPoint: "Anchor-9" 282 692 basechar 0
AnchorPoint: "Anchor-8" 458 0 basechar 0
LayerCount: 2
Fore
SplineSet
409 825 m 1
 373 752 l 1
 139 837 l 1
 194 945 l 1
 409 825 l 1
470 585 m 1
 220 585 l 1
 220 405 l 1
 438 405 l 1
 438 299 l 1
 220 299 l 1
 220 108 l 1
 488 108 l 1
 488 0 l 1
 73 0 l 1
 73 692 l 1
 486 692 l 1
 470 585 l 1
EndSplineSet
Substitution2: "'c2sc' Capitals to Small Capitals lookup 23 subtable" egrave.sc
Substitution2: "'aalt' Access All Alternates lookup 0 subtable" egrave.sc
Position2: "'cpsp' Capital Spacing lookup 0 subtable" dx=5 dy=0 dh=10 dv=0
EndChar
StartChar: Eacute
Encoding: 201 201 68
Width: 528
GlyphClass: 2
Flags: MW
HStem: 0 108<220 488 220 488> 299 106<220 438 220 438> 585 107<220 470 220 220>
VStem: 73 147<108 299 405 585>
AnchorPoint: "Anchor-14" 0 0 basechar 0
AnchorPoint: "Anchor-13" 0 0 basechar 0
AnchorPoint: "Anchor-12" 283 945 basechar 0
AnchorPoint: "Anchor-11" 458 0 basechar 0
AnchorPoint: "Anchor-10" 281 0 basechar 0
LayerCount: 2
Back
Fore
SplineSet
361 945 m 1
 416 837 l 1
 182 752 l 1
 146 825 l 1
 361 945 l 1
486 692 m 1
 470 585 l 1
 220 585 l 1
 220 405 l 1
 438 405 l 1
 438 299 l 1
 220 299 l 1
 220 108 l 1
 488 108 l 1
 488 0 l 1
 73 0 l 1
 73 692 l 1
 486 692 l 1
EndSplineSet
Substitution2: "'c2sc' Capitals to Small Capitals lookup 26 subtable" eacute.sc
Substitution2: "'aalt' Access All Alternates lookup 0 subtable" eacute.sc
Position2: "'cpsp' Capital Spacing lookup 0 subtable" dx=5 dy=0 dh=10 dv=0
EndChar
StartChar: Ecircumflex
Encoding: 202 202 72
Width: 528
GlyphClass: 2
Flags: MW
HStem: 0 108<220 488 220 488> 299 106<220 438 220 438> 585 107<220 470 220 220>
VStem: 73 147<108 299 405 585>
AnchorPoint: "Anchor-14" 0 0 basechar 0
AnchorPoint: "Anchor-13" 390 819 basechar 0
AnchorPoint: "Anchor-12" 281 940 basechar 0
AnchorPoint: "Anchor-11" 458 0 basechar 0
AnchorPoint: "Anchor-10" 281 0 basechar 0
LayerCount: 2
Back
Fore
SplineSet
413 756 m 1
 281 839 l 1
 150 756 l 1
 97 816 l 1
 237 940 l 1
 325 940 l 1
 465 816 l 1
 413 756 l 1
486 692 m 1
 470 585 l 1
 220 585 l 1
 220 405 l 1
 438 405 l 1
 438 299 l 1
 220 299 l 1
 220 108 l 1
 488 108 l 1
 488 0 l 1
 73 0 l 1
 73 692 l 1
 486 692 l 1
EndSplineSet
Substitution2: "'c2sc' Capitals to Small Capitals lookup 26 subtable" ecircumflex.sc
Substitution2: "'aalt' Access All Alternates lookup 0 subtable" ecircumflex.sc
Position2: "'cpsp' Capital Spacing lookup 0 subtable" dx=5 dy=0 dh=10 dv=0
EndChar
StartChar: Igrave
Encoding: 204 204 129
Width: 294
GlyphClass: 2
Flags: MW
HStem: 0 21G<73 220 73 73> 672 20G<73 220 220 220>
VStem: 73 147<0 692 0 692>
AnchorPoint: "Anchor-14" 0 0 basechar 0
AnchorPoint: "Anchor-13" 0 0 basechar 0
AnchorPoint: "Anchor-12" 147 945 basechar 0
AnchorPoint: "Anchor-11" 209 0 basechar 0
AnchorPoint: "Anchor-10" 147 0 basechar 0
LayerCount: 2
Back
Fore
SplineSet
61 945 m 1
 276 825 l 1
 240 752 l 1
 6 837 l 1
 61 945 l 1
220 692 m 1
 220 0 l 1
 73 0 l 1
 73 692 l 1
 220 692 l 1
EndSplineSet
Substitution2: "'c2sc' Capitals to Small Capitals lookup 26 subtable" igrave.sc
Substitution2: "'aalt' Access All Alternates lookup 0 subtable" igrave.sc
Position2: "'cpsp' Capital Spacing lookup 0 subtable" dx=5 dy=0 dh=10 dv=0
EndChar

StartChar: Iacute
Encoding: 205 205 45
Width: 294
GlyphClass: 2
Flags: MW
HStem: 0 21G<73 221 73 73> 672 20G<73 221 221 221>
VStem: 73 148<0 692>
AnchorPoint: "Anchor-11" 0 0 basechar 0
AnchorPoint: "Anchor-10" 68 692 basechar 0
AnchorPoint: "Anchor-9" 147 692 basechar 0
AnchorPoint: "Anchor-8" 209 0 basechar 0
LayerCount: 2
Fore
SplineSet
281 837 m 1
 47 752 l 1
 11 825 l 1
 226 945 l 1
 281 837 l 1
221 0 m 1
 73 0 l 1
 73 692 l 1
 221 692 l 1
 221 0 l 1
EndSplineSet
Substitution2: "'c2sc' Capitals to Small Capitals lookup 23 subtable" iacute.sc
Substitution2: "'aalt' Access All Alternates lookup 0 subtable" iacute.sc
Position2: "'cpsp' Capital Spacing lookup 0 subtable" dx=5 dy=0 dh=10 dv=0
EndChar
StartChar: Icircumflex
Encoding: 206 206 123
Width: 294
GlyphClass: 2
Flags: MW
HStem: 0 21G<73 220 73 73> 672 20G<73 220 220 220>
VStem: 73 147<0 692 0 692>
AnchorPoint: "Anchor-14" 0 0 basechar 0
AnchorPoint: "Anchor-13" 255 819 basechar 0
AnchorPoint: "Anchor-12" 146 940 basechar 0
AnchorPoint: "Anchor-11" 209 0 basechar 0
AnchorPoint: "Anchor-10" 147 0 basechar 0
LayerCount: 2
Back
Fore
SplineSet
278 756 m 1
 146 839 l 1
 15 756 l 1
 -38 816 l 1
 102 940 l 1
 190 940 l 1
 330 816 l 1
 278 756 l 1
220 692 m 1
 220 0 l 1
 73 0 l 1
 73 692 l 1
 220 692 l 1
EndSplineSet
Substitution2: "'c2sc' Capitals to Small Capitals lookup 26 subtable" icircumflex.sc
Substitution2: "'aalt' Access All Alternates lookup 0 subtable" icircumflex.sc
Position2: "'cpsp' Capital Spacing lookup 0 subtable" dx=5 dy=0 dh=10 dv=0
EndChar
StartChar: Idieresis
Encoding: 207 207 125
Width: 294
GlyphClass: 2
Flags: MW
HStem: 0 21G<73 220 73 73> 672 20G<73 220 220 220> 770 148<12 54.5 238.5 280.5>
VStem: -42 150<823.5 864.5> 73 147<0 692 0 692> 184 151<823.5 864.5>
AnchorPoint: "Anchor-14" 0 0 basechar 0
AnchorPoint: "Anchor-13" 0 0 basechar 0
AnchorPoint: "Anchor-12" 149 918 basechar 0
AnchorPoint: "Anchor-11" 209 0 basechar 0
AnchorPoint: "Anchor-10" 147 0 basechar 0
LayerCount: 2
Back
Fore
SplineSet
33 918 m 0xf4
 76 918 108 885 108 844 c 0
 108 803 76 770 33 770 c 0
 -9 770 -42 803 -42 844 c 0
 -42 885 -9 918 33 918 c 0xf4
259 918 m 0
 302 918 335 885 335 844 c 0
 335 803 302 770 259 770 c 0
 218 770 184 803 184 844 c 0
 184 885 218 918 259 918 c 0
220 692 m 1xe8
 220 0 l 1
 73 0 l 1
 73 692 l 1
 220 692 l 1xe8
EndSplineSet
Substitution2: "'c2sc' Capitals to Small Capitals lookup 26 subtable" idieresis.sc
Substitution2: "'aalt' Access All Alternates lookup 0 subtable" idieresis.sc
Position2: "'cpsp' Capital Spacing lookup 0 subtable" dx=5 dy=0 dh=10 dv=0
EndChar

StartChar: Ntilde
Encoding: 209 209 70
Width: 668
GlyphClass: 2
Flags: MW
HStem: 0 21G<73 206 73 73 406 595 406 406> 0 142<482 482 482 595 406 482> 549 143<186 186> 672 20G<73 258 258 258 462 595 595 595> 766 102<380 408 380 427.5> 812 102<271.5 300>
VStem: 73 133<0 269 0 692> 462 133<388 692>
AnchorPoint: "Anchor-11" 335 0 basechar 0
AnchorPoint: "Anchor-10" 0 0 basechar 0
AnchorPoint: "Anchor-9" 340 692 basechar 0
AnchorPoint: "Anchor-8" 0 0 basechar 0
LayerCount: 2
Fore
SplineSet
401 766 m 0x9b
 338 766 317 812 283 812 c 0
 260 812 246 796 230 767 c 1
 157 803 l 1
 181 863 224 914 282 914 c 0x97
 342 914 363 868 397 868 c 0
 419 868 433 883 450 912 c 1
 523 876 l 1
 497 811 454 766 401 766 c 0x9b
595 0 m 1x97
 406 0 l 1
 186 549 l 1xa7
 194 487 206 397 206 269 c 2
 206 0 l 1
 73 0 l 1
 73 692 l 1
 258 692 l 1
 482 142 l 1x57
 475 189 462 285 462 388 c 2
 462 692 l 1
 595 692 l 1
 595 0 l 1x97
EndSplineSet
Substitution2: "'c2sc' Capitals to Small Capitals lookup 23 subtable" ntilde.sc
Substitution2: "'aalt' Access All Alternates lookup 0 subtable" ntilde.sc
Position2: "'cpsp' Capital Spacing lookup 0 subtable" dx=5 dy=0 dh=10 dv=0
EndChar

StartChar: Ocircumflex
Encoding: 212 212 74
Width: 691
GlyphClass: 2
Flags: MW
HStem: -16 110<298 395.5 298 441> 598 110<297 395.5>
VStem: 38 155<255.5 436.5 255.5 459> 498 155<255.5 436.5>
AnchorPoint: "Anchor-11" 0 0 basechar 0
AnchorPoint: "Anchor-10" 108 692 basechar 0
AnchorPoint: "Anchor-9" 348 692 basechar 0
AnchorPoint: "Anchor-8" 0 0 basechar 0
LayerCount: 2
Fore
SplineSet
348 839 m 1
 217 756 l 1
 164 816 l 1
 304 940 l 1
 392 940 l 1
 532 816 l 1
 480 756 l 1
 348 839 l 1
346 708 m 0
 536 708 653 578 653 346 c 0
 653 119 536 -16 346 -16 c 0
 156 -16 38 115 38 346 c 0
 38 572 156 708 346 708 c 0
346 598 m 0
 248 598 193 527 193 346 c 0
 193 165 250 94 346 94 c 0
 445 94 498 165 498 346 c 0
 498 527 445 598 346 598 c 0
EndSplineSet
Substitution2: "'c2sc' Capitals to Small Capitals lookup 23 subtable" ocircumflex.sc
Substitution2: "'aalt' Access All Alternates lookup 0 subtable" ocircumflex.sc
Position2: "'cpsp' Capital Spacing lookup 0 subtable" dx=5 dy=0 dh=10 dv=0
EndChar

StartChar: Otilde
Encoding: 213 213 81
Width: 691
GlyphClass: 2
Flags: MW
HStem: -16 110<298 395.5 298 441> 598 110<297 395.5> 766 102<388 416 388 435.5> 812 102<279.5 308>
VStem: 38 155<255.5 436.5 255.5 459> 498 155<255.5 436.5>
AnchorPoint: "Anchor-11" 0 0 basechar 0
AnchorPoint: "Anchor-10" 108 692 basechar 0
AnchorPoint: "Anchor-9" 348 692 basechar 0
AnchorPoint: "Anchor-8" 0 0 basechar 0
LayerCount: 2
Fore
SplineSet
409 766 m 0xec
 346 766 325 812 291 812 c 0
 268 812 254 796 238 767 c 1
 165 803 l 1
 189 863 232 914 290 914 c 0xdc
 350 914 371 868 405 868 c 0
 427 868 441 883 458 912 c 1
 531 876 l 1
 505 811 462 766 409 766 c 0xec
346 708 m 0xdc
 536 708 653 578 653 346 c 0
 653 119 536 -16 346 -16 c 0
 156 -16 38 115 38 346 c 0
 38 572 156 708 346 708 c 0xdc
346 598 m 0
 248 598 193 527 193 346 c 0
 193 165 250 94 346 94 c 0
 445 94 498 165 498 346 c 0
 498 527 445 598 346 598 c 0
EndSplineSet
Substitution2: "'c2sc' Capitals to Small Capitals lookup 23 subtable" otilde.sc
Substitution2: "'aalt' Access All Alternates lookup 0 subtable" otilde.sc
Position2: "'cpsp' Capital Spacing lookup 0 subtable" dx=5 dy=0 dh=10 dv=0
EndChar
StartChar: multiply
Encoding: 215 215 2266
Width: 514
GlyphClass: 2
Flags: MW
HStem: 109 395<139 139 139 375>
VStem: 60 394<189 189 189 424>
LayerCount: 2
Back
Fore
SplineSet
375 504 m 1
 454 424 l 1
 335 307 l 1
 454 189 l 1
 375 109 l 1
 257 228 l 1
 139 109 l 1
 60 189 l 1
 179 307 l 1
 60 424 l 1
 139 504 l 1
 257 385 l 1
 375 504 l 1
EndSplineSet
Substitution2: "'onum' Oldstyle Figures lookup 25 subtable" multiply.osf
Substitution2: "'tnum' Tabular Numbers lookup 24 subtable" multiply.tf
AlternateSubs2: "'aalt' Access All Alternates lookup 1 subtable" multiply.tf multiply.osf
EndChar
StartChar: Oslash
Encoding: 216 216 212
Width: 691
GlyphClass: 2
Flags: MW
HStem: -16 110<339.5 395.5 339.5 441> -12 21G<292 292> 598 110<297 352> 684 20G<399 399>
VStem: 38 155<291 436.5 291 459> 498 155<255.5 402>
AnchorPoint: "Anchor-14" 0 0 basechar 0
AnchorPoint: "Anchor-13" 0 0 basechar 0
AnchorPoint: "Anchor-12" 343 721 basechar 0
AnchorPoint: "Anchor-11" 0 0 basechar 0
AnchorPoint: "Anchor-10" 0 0 basechar 0
LayerCount: 2
Back
Fore
SplineSet
507 667 m 1xac
 600 612 653 502 653 346 c 0
 653 119 536 -16 346 -16 c 0xac
 327 -16 309 -15 292 -12 c 1
 256 -133 l 1
 143 -103 l 1
 183 26 l 1
 91 81 38 191 38 346 c 0
 38 572 156 708 346 708 c 0x6c
 364 708 382 707 399 704 c 1x9c
 436 826 l 1
 548 796 l 1
 507 667 l 1xac
346 598 m 0
 248 598 193 527 193 346 c 0
 193 236 210 171 241 134 c 1
 380 595 l 1
 369 597 358 598 346 598 c 0
346 94 m 0
 445 94 498 165 498 346 c 0
 498 458 482 524 449 560 c 1
 311 97 l 1
 322 95 333 94 346 94 c 0
EndSplineSet
Substitution2: "'c2sc' Capitals to Small Capitals lookup 26 subtable" oslash.sc
Substitution2: "'aalt' Access All Alternates lookup 0 subtable" oslash.sc
Position2: "'cpsp' Capital Spacing lookup 0 subtable" dx=5 dy=0 dh=10 dv=0
EndChar
StartChar: Uacute
Encoding: 218 218 263
Width: 654
GlyphClass: 2
Flags: MW
HStem: -16 112<286 366.5 286 413.5> 672 20G<63 210 210 210 443 590 590 590>
VStem: 63 147<228 235 235 692> 443 147<235 692>
AnchorPoint: "Anchor-14" 0 0 basechar 0
AnchorPoint: "Anchor-13" 600 692 basechar 0
AnchorPoint: "Anchor-12" 329 945 basechar 0
AnchorPoint: "Anchor-11" 443 0 basechar 0
AnchorPoint: "Anchor-10" 327 0 basechar 0
LayerCount: 2
Back
Fore
SplineSet
407 945 m 1
 462 837 l 1
 228 752 l 1
 192 825 l 1
 407 945 l 1
590 692 m 1
 590 228 l 2
 590 89 501 -16 326 -16 c 0
 151 -16 63 84 63 228 c 2
 63 692 l 1
 210 692 l 1
 210 235 l 2
 210 142 246 96 326 96 c 0
 407 96 443 142 443 235 c 2
 443 692 l 1
 590 692 l 1
EndSplineSet
Substitution2: "'c2sc' Capitals to Small Capitals lookup 26 subtable" uacute.sc
Substitution2: "'aalt' Access All Alternates lookup 0 subtable" uacute.sc
Position2: "'cpsp' Capital Spacing lookup 0 subtable" dx=5 dy=0 dh=10 dv=0
EndChar
StartChar: Ucircumflex
Encoding: 219 219 267
Width: 654
GlyphClass: 2
Flags: MW
HStem: -16 112<286 366.5 286 413.5> 672 20G<63 210 210 210 443 590 590 590>
VStem: 63 147<228 235 235 692> 443 147<235 692>
AnchorPoint: "Anchor-14" 0 0 basechar 0
AnchorPoint: "Anchor-13" 435 819 basechar 0
AnchorPoint: "Anchor-12" 326 940 basechar 0
AnchorPoint: "Anchor-11" 443 0 basechar 0
AnchorPoint: "Anchor-10" 327 0 basechar 0
LayerCount: 2
Back
Fore
SplineSet
458 756 m 1
 326 839 l 1
 195 756 l 1
 142 816 l 1
 282 940 l 1
 370 940 l 1
 510 816 l 1
 458 756 l 1
590 692 m 1
 590 228 l 2
 590 89 501 -16 326 -16 c 0
 151 -16 63 84 63 228 c 2
 63 692 l 1
 210 692 l 1
 210 235 l 2
 210 142 246 96 326 96 c 0
 407 96 443 142 443 235 c 2
 443 692 l 1
 590 692 l 1
EndSplineSet
Substitution2: "'c2sc' Capitals to Small Capitals lookup 26 subtable" ucircumflex.sc
Substitution2: "'aalt' Access All Alternates lookup 0 subtable" ucircumflex.sc
Position2: "'cpsp' Capital Spacing lookup 0 subtable" dx=5 dy=0 dh=10 dv=0
EndChar

StartChar: Udieresis
Encoding: 220 220 105
Width: 654
GlyphClass: 2
Flags: MW
HStem: -16 112<286 366.5 286 413.5> 672 20G<63 210 210 210 443 590 590 590> 770 148<192 234.5 418.5 460.5>
VStem: 63 147<228 235 235 692> 138 150<823.5 864.5> 364 151<823.5 864.5> 443 147<235 692>
AnchorPoint: "Anchor-11" 0 0 basechar 0
AnchorPoint: "Anchor-10" 0 0 basechar 0
AnchorPoint: "Anchor-9" 325 834 basechar 0
AnchorPoint: "Anchor-8" 443 0 basechar 0
LayerCount: 2
Fore
SplineSet
213 918 m 0xf2
 256 918 288 885 288 844 c 0xea
 288 803 256 770 213 770 c 0
 171 770 138 803 138 844 c 0
 138 885 171 918 213 918 c 0xf2
439 918 m 0
 482 918 515 885 515 844 c 0xf2
 515 803 482 770 439 770 c 0
 398 770 364 803 364 844 c 0xf4
 364 885 398 918 439 918 c 0
590 228 m 2
 590 89 501 -16 326 -16 c 0
 151 -16 63 84 63 228 c 2
 63 692 l 1
 210 692 l 1
 210 235 l 2
 210 142 246 96 326 96 c 0
 407 96 443 142 443 235 c 2
 443 692 l 1
 590 692 l 1
 590 228 l 2
EndSplineSet
Substitution2: "'c2sc' Capitals to Small Capitals lookup 23 subtable" udieresis.sc
Substitution2: "'aalt' Access All Alternates lookup 0 subtable" udieresis.sc
Position2: "'cpsp' Capital Spacing lookup 0 subtable" dx=5 dy=0 dh=10 dv=0
EndChar
StartChar: Yacute
Encoding: 221 221 303
Width: 583
GlyphClass: 2
Flags: MW
HStem: 0 21G<218 365 218 218> 672 20G<-4 157 157 157 432 587 587 587>
VStem: 218 147<0 260 260 260>
AnchorPoint: "Anchor-14" 0 0 basechar 0
AnchorPoint: "Anchor-13" 0 0 basechar 0
AnchorPoint: "Anchor-12" 293 945 basechar 0
AnchorPoint: "Anchor-11" 0 0 basechar 0
AnchorPoint: "Anchor-10" 292 0 basechar 0
LayerCount: 2
Back
Fore
SplineSet
371 945 m 1
 426 837 l 1
 192 752 l 1
 156 825 l 1
 371 945 l 1
587 692 m 1
 365 261 l 1
 365 0 l 1
 218 0 l 1
 218 260 l 1
 -4 692 l 1
 157 692 l 1
 295 378 l 1
 432 692 l 1
 587 692 l 1
EndSplineSet
Substitution2: "'c2sc' Capitals to Small Capitals lookup 26 subtable" yacute.sc
Substitution2: "'aalt' Access All Alternates lookup 0 subtable" yacute.sc
Position2: "'cpsp' Capital Spacing lookup 0 subtable" dx=5 dy=0 dh=10 dv=0
EndChar

StartChar: Thorn
Encoding: 222 222 84
Width: 595
GlyphClass: 2
Flags: MW
HStem: 0 21G<73 220 73 73> 117 108<220 287 287 299 220 287> 475 106<220 285 220 287> 672 20G<73 220 220 220>
VStem: 73 147<0 117 0 225 225 475 581 692> 419 152<305.5 397>
AnchorPoint: "Anchor-11" 0 0 basechar 0
AnchorPoint: "Anchor-10" 0 0 basechar 0
AnchorPoint: "Anchor-9" 69 328 basechar 0
AnchorPoint: "Anchor-8" 0 0 basechar 0
LayerCount: 2
Fore
SplineSet
287 581 m 2
 463 581 571 509 571 356 c 0
 571 190 457 117 299 117 c 2
 220 117 l 1
 220 0 l 1
 73 0 l 1
 73 692 l 1
 220 692 l 1
 220 581 l 1
 287 581 l 2
287 225 m 2
 368 225 419 256 419 355 c 0
 419 439 371 475 285 475 c 2
 220 475 l 1
 220 225 l 1
 287 225 l 2
EndSplineSet
Substitution2: "'c2sc' Capitals to Small Capitals lookup 23 subtable" thorn.sc
Substitution2: "'aalt' Access All Alternates lookup 0 subtable" thorn.sc
Position2: "'cpsp' Capital Spacing lookup 0 subtable" dx=5 dy=0 dh=10 dv=0
EndChar
StartChar: germandbls
Encoding: 223 223 634
Width: 603
GlyphClass: 2
Flags: MW
HStem: -16 111<359.5 386 354 437.5> 0 21G<70 212 70 70> 655 102<267.5 315>
VStem: 70 142<0 535 535 538 0 604> 270 125<391.5 460.5 391.5 460.5> 363 135<558 612.5> 433 146<143 224.5>
LayerCount: 2
Back
Fore
SplineSet
297 757 m 0x74
 426 757 498 688 498 609 c 0
 498 507 395 491 395 430 c 0
 395 353 579 340 579 165 c 0
 579 52 492 -16 383 -16 c 0
 336 -16 299 -5 269 10 c 1
 311 107 l 1
 325 99 342 95 366 95 c 0
 406 95 433 119 433 167 c 0
 433 282 270 280 270 409 c 0xba
 270 512 363 508 363 593 c 0
 363 632 335 655 295 655 c 0
 240 655 212 616 212 538 c 2
 212 0 l 1
 70 0 l 1
 70 535 l 2
 70 673 151 757 297 757 c 0x74
EndSplineSet
Substitution2: "'smcp' Lowercase to Small Capitals lookup 27 subtable" germandbls.sc
Substitution2: "'aalt' Access All Alternates lookup 0 subtable" germandbls.sc
EndChar

StartChar: agrave
Encoding: 224 224 139
Width: 547
GlyphClass: 2
Flags: MW
HStem: -16 102<220 234.5> 246 81<275 289 289 336> 440 106<235 274.5> 679 20G<413 413>
VStem: 31 143<136.5 189 136.5 206> 336 139<145 147 147 246 246 246 327 353 353 361>
AnchorPoint: "Anchor-11" 0 0 basechar 0
AnchorPoint: "Anchor-10" 0 0 basechar 0
AnchorPoint: "Anchor-9" 269 530 basechar 0
AnchorPoint: "Anchor-8" 494 -14 basechar 0
LayerCount: 2
Fore
SplineSet
373 626 m 1
 143 718 l 1
 200 827 l 1
 413 699 l 1
 373 626 l 1
475 147 m 2
 475 104 488 89 514 80 c 1
 484 -14 l 1
 424 -9 384 11 362 64 c 1
 324 6 266 -16 203 -16 c 0
 97 -16 31 52 31 148 c 0
 31 264 118 327 275 327 c 2
 336 327 l 1
 336 353 l 2
 336 419 308 440 241 440 c 0
 206 440 155 430 101 412 c 1
 69 507 l 1
 135 533 205 546 265 546 c 0
 412 546 475 481 475 361 c 2
 475 147 l 2
242 86 m 0
 283 86 314 107 336 145 c 1
 336 246 l 1
 289 246 l 2
 212 246 174 218 174 160 c 0
 174 113 198 86 242 86 c 0
EndSplineSet
Substitution2: "'smcp' Lowercase to Small Capitals lookup 24 subtable" agrave.sc
Substitution2: "'aalt' Access All Alternates lookup 0 subtable" agrave.sc
EndChar
StartChar: aring
Encoding: 229 229 363
Width: 547
GlyphClass: 2
Flags: MW
HStem: -16 102<220 234.5> 246 81<275 289 289 336> 440 106<235 274.5> 609 74<255 283 255 309.5> 786 74<255 283>
VStem: 31 143<136.5 189 136.5 206> 136 86<718 751.5 718 769> 316 86<718 751.5> 336 139<145 147 147 246 246 246 327 353 353 361>
AnchorPoint: "Anchor-14" 0 0 basechar 0
AnchorPoint: "Anchor-13" 0 0 basechar 0
AnchorPoint: "Anchor-12" 271 860 basechar 0
AnchorPoint: "Anchor-11" 494 -14 basechar 0
AnchorPoint: "Anchor-10" 269 0 basechar 0
LayerCount: 2
Back
Fore
SplineSet
269 609 m 0xfa80
 188 609 136 667 136 735 c 0
 136 803 188 860 269 860 c 0
 350 860 402 803 402 735 c 0xfb
 402 667 350 609 269 609 c 0xfa80
269 786 m 0xfb
 241 786 222 768 222 735 c 0
 222 701 241 683 269 683 c 0
 297 683 316 701 316 735 c 0
 316 768 297 786 269 786 c 0xfb
475 147 m 2xfc80
 475 104 488 89 514 80 c 1
 484 -14 l 1
 424 -8 384 11 362 63 c 1
 324 6 266 -16 203 -16 c 0
 97 -16 31 52 31 148 c 0
 31 264 118 327 275 327 c 2
 336 327 l 1
 336 353 l 2
 336 419 308 440 241 440 c 0
 206 440 155 430 101 412 c 1
 69 507 l 1
 135 533 205 546 265 546 c 0
 412 546 475 481 475 361 c 2
 475 147 l 2xfc80
242 86 m 0
 283 86 314 107 336 145 c 1
 336 246 l 1
 289 246 l 2
 212 246 174 218 174 160 c 0
 174 113 198 86 242 86 c 0
EndSplineSet
Substitution2: "'smcp' Lowercase to Small Capitals lookup 27 subtable" aring.sc
Substitution2: "'aalt' Access All Alternates lookup 0 subtable" aring.sc
EndChar

StartChar: ccedilla
Encoding: 231 231 150
Width: 478
GlyphClass: 2
Flags: MW
HStem: -257 80<255.5 282 255.5 320.5> -15 21G<320 320> -15 113<266.5 320> -11 21G<237 237> 436 110<265.5 320.5>
VStem: 38 150<200.5 323.5 200.5 345> 316 105<-157 -132.5>
AnchorPoint: "Anchor-11" 281 0 basechar 0
AnchorPoint: "Anchor-10" 0 0 basechar 0
AnchorPoint: "Anchor-9" 290 530 basechar 0
AnchorPoint: "Anchor-8" 0 0 basechar 0
LayerCount: 2
Fore
SplineSet
467 46 m 1xae
 425 12 378 -10 320 -15 c 1
 320 -50 l 1xce
 390 -57 421 -95 421 -146 c 0
 421 -213 363 -257 278 -257 c 0
 233 -257 195 -245 171 -228 c 1
 204 -160 l 1
 224 -171 243 -177 268 -177 c 0
 296 -177 316 -169 316 -145 c 0
 316 -120 289 -109 224 -109 c 1
 237 -11 l 1x9e
 112 12 38 113 38 261 c 0
 38 429 136 546 291 546 c 0
 362 546 417 525 467 482 c 1
 405 397 l 1
 371 424 340 436 301 436 c 0
 230 436 188 385 188 262 c 0
 188 139 233 98 300 98 c 0
 339 98 366 110 403 138 c 1
 467 46 l 1xae
EndSplineSet
Substitution2: "'smcp' Lowercase to Small Capitals lookup 24 subtable" ccedilla.sc
Substitution2: "'aalt' Access All Alternates lookup 0 subtable" ccedilla.sc
EndChar
StartChar: eacute
Encoding: 233 233 411
Width: 553
GlyphClass: 2
Flags: MW
HStem: -16 106<276 332.5 276 338.5> 222 89<184 377 184 515 184 377> 449 97<254 316>
VStem: 38 146<222 222 222 311 222 342> 377 141<311 317 317 357>
AnchorPoint: "Anchor-14" 0 0 basechar 0
AnchorPoint: "Anchor-13" 0 0 basechar 0
AnchorPoint: "Anchor-12" 283 827 basechar 0
AnchorPoint: "Anchor-11" 425 8 basechar 0
AnchorPoint: "Anchor-10" 293 0 basechar 0
LayerCount: 2
Back
Fore
SplineSet
412 718 m 1
 182 626 l 1
 142 699 l 1
 356 827 l 1
 412 718 l 1
518 277 m 0
 518 259 516 237 515 222 c 1
 184 222 l 1
 194 120 242 90 310 90 c 0
 355 90 393 104 439 136 c 1
 498 56 l 1
 446 14 380 -16 297 -16 c 0
 127 -16 38 96 38 262 c 0
 38 422 124 546 279 546 c 0
 429 546 518 446 518 277 c 0
377 311 m 1
 377 317 l 2
 377 397 350 449 282 449 c 0
 226 449 192 412 184 311 c 1
 377 311 l 1
EndSplineSet
Substitution2: "'smcp' Lowercase to Small Capitals lookup 27 subtable" eacute.sc
Substitution2: "'aalt' Access All Alternates lookup 0 subtable" eacute.sc
EndChar
StartChar: ecircumflex
Encoding: 234 234 415
Width: 553
GlyphClass: 2
Flags: MW
HStem: -16 106<276 332.5 276 338.5> 222 89<184 377 184 515 184 377> 449 97<254 316>
VStem: 38 146<222 222 222 311 222 342> 377 141<311 317 317 357>
AnchorPoint: "Anchor-14" 0 0 basechar 0
AnchorPoint: "Anchor-13" 0 0 basechar 0
AnchorPoint: "Anchor-12" 284 815 basechar 0
AnchorPoint: "Anchor-11" 425 8 basechar 0
AnchorPoint: "Anchor-10" 293 0 basechar 0
LayerCount: 2
Back
Fore
SplineSet
282 713 m 1
 150 624 l 1
 98 684 l 1
 238 815 l 1
 326 815 l 1
 466 684 l 1
 413 624 l 1
 282 713 l 1
518 277 m 0
 518 259 516 237 515 222 c 1
 184 222 l 1
 194 120 242 90 310 90 c 0
 355 90 393 104 439 136 c 1
 498 56 l 1
 446 14 380 -16 297 -16 c 0
 127 -16 38 96 38 262 c 0
 38 422 124 546 279 546 c 0
 429 546 518 446 518 277 c 0
377 311 m 1
 377 317 l 2
 377 397 350 449 282 449 c 0
 226 449 192 412 184 311 c 1
 377 311 l 1
EndSplineSet
Substitution2: "'smcp' Lowercase to Small Capitals lookup 27 subtable" ecircumflex.sc
Substitution2: "'aalt' Access All Alternates lookup 0 subtable" ecircumflex.sc
EndChar

StartChar: igrave
Encoding: 236 236 183
Width: 282
GlyphClass: 2
Flags: MW
HStem: 0 21G<70 212 70 70> 510 20G<70 212 212 212> 679 20G<286 286>
VStem: 70 142<0 530>
AnchorPoint: "Anchor-11" 0 0 basechar 0
AnchorPoint: "Anchor-10" 0 0 basechar 0
AnchorPoint: "Anchor-9" 141 530 basechar 0
AnchorPoint: "Anchor-8" 203 0 basechar 0
LayerCount: 2
Fore
SplineSet
286 699 m 1
 246 626 l 1
 16 718 l 1
 73 827 l 1
 286 699 l 1
212 0 m 1
 70 0 l 1
 70 530 l 1
 212 530 l 1
 212 0 l 1
EndSplineSet
Substitution2: "'smcp' Lowercase to Small Capitals lookup 24 subtable" igrave.sc
Substitution2: "'aalt' Access All Alternates lookup 0 subtable" igrave.sc
EndChar
StartChar: iacute
Encoding: 237 237 480
Width: 282
GlyphClass: 2
Flags: MW
HStem: 0 21G<70 212 70 70> 510 20G<70 212 212 212>
VStem: 70 142<0 530 0 530>
AnchorPoint: "Anchor-14" 0 0 basechar 0
AnchorPoint: "Anchor-13" 0 0 basechar 0
AnchorPoint: "Anchor-12" 142 827 basechar 0
AnchorPoint: "Anchor-11" 203 0 basechar 0
AnchorPoint: "Anchor-10" 141 0 basechar 0
LayerCount: 2
Back
Fore
SplineSet
215 827 m 1
 271 718 l 1
 41 626 l 1
 1 699 l 1
 215 827 l 1
212 530 m 1
 212 0 l 1
 70 0 l 1
 70 530 l 1
 212 530 l 1
EndSplineSet
Substitution2: "'smcp' Lowercase to Small Capitals lookup 27 subtable" iacute.sc
Substitution2: "'aalt' Access All Alternates lookup 0 subtable" iacute.sc
EndChar
StartChar: icircumflex
Encoding: 238 238 483
Width: 282
GlyphClass: 2
Flags: MW
HStem: 0 21G<70 212 70 70> 510 20G<70 212 212 212>
VStem: 70 142<0 530 0 530>
AnchorPoint: "Anchor-14" 0 0 basechar 0
AnchorPoint: "Anchor-13" 0 0 basechar 0
AnchorPoint: "Anchor-12" 143 815 basechar 0
AnchorPoint: "Anchor-11" 203 0 basechar 0
AnchorPoint: "Anchor-10" 141 0 basechar 0
LayerCount: 2
Back
Fore
SplineSet
9 624 m 1
 -43 684 l 1
 97 815 l 1
 185 815 l 1
 325 684 l 1
 272 624 l 1
 141 713 l 1
 9 624 l 1
212 530 m 1
 212 0 l 1
 70 0 l 1
 70 530 l 1
 212 530 l 1
EndSplineSet
Substitution2: "'smcp' Lowercase to Small Capitals lookup 27 subtable" icircumflex.sc
Substitution2: "'aalt' Access All Alternates lookup 0 subtable" icircumflex.sc
EndChar

StartChar: eth
Encoding: 240 240 154
Width: 577
GlyphClass: 2
Flags: MW
HStem: -16 105<252.5 317.5 252.5 361> 377 101<244 273.5 182 303> 553 20G<124 124> 736 20G<117 117>
VStem: 38 145<186 278 186 300> 389 144<201.5 270>
LayerCount: 2
Fore
SplineSet
353 668 m 1
 488 572 533 445 533 274 c 0
 533 109 440 -16 282 -16 c 0
 145 -16 38 76 38 234 c 0
 38 366 120 478 244 478 c 0
 303 478 344 459 380 427 c 1
 363 492 333 542 274 588 c 1
 215 531 l 1
 124 573 l 1
 185 636 l 1
 150 648 119 655 89 661 c 1
 117 756 l 1
 167 747 210 737 263 716 c 1
 336 793 l 1
 411 728 l 1
 353 668 l 1
283 89 m 0
 352 89 389 145 389 258 c 0
 389 282 388 304 388 327 c 1
 361 359 326 377 280 377 c 0
 208 377 183 319 183 237 c 0
 183 135 222 89 283 89 c 0
EndSplineSet
Substitution2: "'smcp' Lowercase to Small Capitals lookup 24 subtable" eth.sc
Substitution2: "'aalt' Access All Alternates lookup 0 subtable" eth.sc
EndChar

StartChar: ntilde
Encoding: 241 241 207
Width: 579
GlyphClass: 2
Flags: MW
HStem: 0 21G<70 212 70 70 372 514 372 372> 440 106<293.5 412.5> 510 20G<70 193 193 193> 640 102<335 363 335 382.5> 686 102<226.5 255> 730 20G<478 478>
VStem: 70 142<0 366 0 530> 372 142<0 362 362 386 0 392.5>
AnchorPoint: "Anchor-11" 290 0 basechar 0
AnchorPoint: "Anchor-10" 0 0 basechar 0
AnchorPoint: "Anchor-9" 295 530 basechar 0
AnchorPoint: "Anchor-8" 0 0 basechar 0
LayerCount: 2
Fore
SplineSet
238 686 m 0xab
 215 686 201 670 185 641 c 1
 112 677 l 1xab
 136 737 179 788 237 788 c 0
 297 788 318 742 352 742 c 0
 374 742 388 757 405 786 c 1xb3
 478 750 l 1xa7
 452 685 409 640 356 640 c 0xb3
 293 640 272 686 238 686 c 0xab
366 546 m 0xc7
 459 546 514 486 514 386 c 2
 514 0 l 1
 372 0 l 1
 372 362 l 2
 372 423 350 440 314 440 c 0
 273 440 241 413 212 366 c 1xc7
 212 0 l 1
 70 0 l 1
 70 530 l 1
 193 530 l 1xa7
 204 463 l 1
 247 516 298 546 366 546 c 0xc7
EndSplineSet
Substitution2: "'smcp' Lowercase to Small Capitals lookup 24 subtable" ntilde.sc
Substitution2: "'aalt' Access All Alternates lookup 0 subtable" ntilde.sc
EndChar
StartChar: otilde
Encoding: 245 245 591
Width: 584
GlyphClass: 2
Flags: MW
HStem: -16 106<257 327 257 371.5> 440 106<257.5 327.5> 640 102<332 360 332 378> 686 102<223.5 252> 730 20G<475 475>
VStem: 38 148<204 325.5 204 349.5> 398 148<204.5 326>
AnchorPoint: "Anchor-14" 0 0 basechar 0
AnchorPoint: "Anchor-13" 492 530 basechar 0
AnchorPoint: "Anchor-12" 292 744 basechar 0
AnchorPoint: "Anchor-11" 397 0 basechar 0
AnchorPoint: "Anchor-10" 292 0 basechar 0
LayerCount: 2
Back
Fore
SplineSet
350 640 m 0xe6
 293 640 269 686 235 686 c 0
 212 686 198 670 182 641 c 1
 109 677 l 1xd6
 133 737 176 788 233 788 c 0
 293 788 315 742 349 742 c 0
 371 742 385 757 402 786 c 1xe6
 475 750 l 1xce
 449 685 406 640 350 640 c 0xe6
293 546 m 0xce
 451 546 546 441 546 265 c 0
 546 97 451 -16 292 -16 c 0
 134 -16 38 89 38 265 c 0
 38 434 133 546 293 546 c 0xce
293 440 m 0
 222 440 186 386 186 265 c 0
 186 143 222 90 292 90 c 0
 362 90 398 144 398 265 c 0
 398 387 362 440 293 440 c 0
EndSplineSet
Substitution2: "'smcp' Lowercase to Small Capitals lookup 27 subtable" otilde.sc
Substitution2: "'aalt' Access All Alternates lookup 0 subtable" otilde.sc
EndChar
StartChar: divide
Encoding: 247 247 2244
Width: 514
GlyphClass: 2
Flags: MW
HStem: 9 171<233.5 281> 277 111<52 463 52 463> 485 171<233.5 281>
VStem: 172 171<71.5 118 547.5 594>
LayerCount: 2
Back
Fore
SplineSet
257 656 m 0
 305 656 343 617 343 571 c 0
 343 524 305 485 257 485 c 0
 210 485 172 524 172 571 c 0
 172 617 210 656 257 656 c 0
52 277 m 1
 52 388 l 1
 463 388 l 1
 463 277 l 1
 52 277 l 1
257 180 m 0
 305 180 343 141 343 95 c 0
 343 48 305 9 257 9 c 0
 210 9 172 48 172 95 c 0
 172 141 210 180 257 180 c 0
EndSplineSet
Substitution2: "'onum' Oldstyle Figures lookup 25 subtable" divide.osf
Substitution2: "'tnum' Tabular Numbers lookup 24 subtable" divide.tf
AlternateSubs2: "'aalt' Access All Alternates lookup 1 subtable" divide.tf divide.osf
EndChar
StartChar: oslash
Encoding: 248 248 589
Width: 584
GlyphClass: 2
Flags: MW
HStem: -16 106<288.5 329.5 288.5 371.5> 440 106<255.5 296.5>
VStem: 38 139<227.5 325.5 227.5 349.5> 407 139<204.5 302>
AnchorPoint: "Anchor-14" 0 0 basechar 0
AnchorPoint: "Anchor-13" 0 0 basechar 0
AnchorPoint: "Anchor-12" 292 530 basechar 0
AnchorPoint: "Anchor-11" 0 0 basechar 0
AnchorPoint: "Anchor-10" 291 0 basechar 0
LayerCount: 2
Back
Fore
SplineSet
433 509 m 1
 505 464 546 380 546 265 c 0
 546 97 451 -16 292 -16 c 0
 279 -16 266 -15 254 -14 c 1
 217 -134 l 1
 111 -103 l 1
 151 21 l 1
 79 66 38 150 38 265 c 0
 38 434 133 546 293 546 c 0
 306 546 318 545 330 544 c 1
 369 664 l 1
 475 633 l 1
 433 509 l 1
293 440 m 0
 218 440 177 386 177 265 c 0
 177 190 187 146 207 121 c 1
 313 439 l 1
 307 440 300 440 293 440 c 0
292 90 m 0
 367 90 407 144 407 265 c 0
 407 339 397 383 377 409 c 1
 272 91 l 1
 278 91 285 90 292 90 c 0
EndSplineSet
Substitution2: "'smcp' Lowercase to Small Capitals lookup 27 subtable" oslash.sc
Substitution2: "'aalt' Access All Alternates lookup 0 subtable" oslash.sc
EndChar

StartChar: ugrave
Encoding: 249 249 244
Width: 574
GlyphClass: 2
Flags: MW
HStem: -16 106<245.5 248.5> 0 21G<381 504 381 381> 510 20G<65 207 207 207 362 504 504 504> 679 20G<430 430>
VStem: 65 142<149 167 167 530> 362 142<159 530>
AnchorPoint: "Anchor-11" 0 0 basechar 0
AnchorPoint: "Anchor-10" 0 0 basechar 0
AnchorPoint: "Anchor-9" 285 530 basechar 0
AnchorPoint: "Anchor-8" 514 0 basechar 0
LayerCount: 2
Fore
SplineSet
430 699 m 1x7c
 390 626 l 1
 160 718 l 1
 217 827 l 1
 430 699 l 1x7c
504 0 m 1
 381 0 l 1x7c
 374 71 l 1
 336 12 284 -16 213 -16 c 0
 115 -16 65 47 65 149 c 2
 65 530 l 1
 207 530 l 1
 207 167 l 2
 207 109 226 90 265 90 c 0
 304 90 337 116 362 159 c 1xbc
 362 530 l 1
 504 530 l 1
 504 0 l 1
EndSplineSet
Substitution2: "'smcp' Lowercase to Small Capitals lookup 24 subtable" ugrave.sc
Substitution2: "'aalt' Access All Alternates lookup 0 subtable" ugrave.sc
EndChar
StartChar: ucircumflex
Encoding: 251 251 666
Width: 574
GlyphClass: 2
Flags: MW
HStem: -16 106<245.5 248.5> 0 21G<381 504 381 381> 510 20G<65 207 207 207 362 504 504 504>
VStem: 65 142<149 167 167 530> 362 142<159 530 0 530>
AnchorPoint: "Anchor-14" 0 0 basechar 0
AnchorPoint: "Anchor-13" 514 530 basechar 0
AnchorPoint: "Anchor-12" 287 815 basechar 0
AnchorPoint: "Anchor-11" 514 0 basechar 0
AnchorPoint: "Anchor-10" 285 0 basechar 0
LayerCount: 2
Back
Fore
SplineSet
153 624 m 1x78
 101 684 l 1
 241 815 l 1
 329 815 l 1
 469 684 l 1
 416 624 l 1
 285 713 l 1
 153 624 l 1x78
504 530 m 1
 504 0 l 1
 381 0 l 1x78
 374 71 l 1
 336 12 284 -16 213 -16 c 0
 115 -16 65 47 65 149 c 2
 65 530 l 1
 207 530 l 1
 207 167 l 2
 207 109 226 90 265 90 c 0
 304 90 337 116 362 159 c 1xb8
 362 530 l 1
 504 530 l 1
EndSplineSet
Substitution2: "'smcp' Lowercase to Small Capitals lookup 27 subtable" ucircumflex.sc
Substitution2: "'aalt' Access All Alternates lookup 0 subtable" ucircumflex.sc
EndChar

StartChar: udieresis
Encoding: 252 252 243
Width: 574
GlyphClass: 2
Flags: MW
HStem: -16 106<245.5 248.5> 0 21G<381 504 381 381> 510 20G<65 207 207 207 362 504 504 504> 644 148<150 192.5 376.5 418.5>
VStem: 65 142<149 167 167 530> 96 150<697.5 738.5> 322 151<697.5 738.5> 362 142<159 530>
AnchorPoint: "Anchor-11" 0 0 basechar 0
AnchorPoint: "Anchor-10" 0 0 basechar 0
AnchorPoint: "Anchor-9" 283 708 basechar 0
AnchorPoint: "Anchor-8" 514 0 basechar 0
LayerCount: 2
Fore
SplineSet
171 792 m 0x76
 214 792 246 759 246 718 c 0
 246 677 214 644 171 644 c 0
 129 644 96 677 96 718 c 0
 96 759 129 792 171 792 c 0x76
397 792 m 0
 440 792 473 759 473 718 c 0
 473 677 440 644 397 644 c 0
 356 644 322 677 322 718 c 0
 322 759 356 792 397 792 c 0
504 0 m 1x79
 381 0 l 1x79
 374 71 l 1
 336 12 284 -16 213 -16 c 0
 115 -16 65 47 65 149 c 2
 65 530 l 1
 207 530 l 1
 207 167 l 2
 207 109 226 90 265 90 c 0
 304 90 337 116 362 159 c 1xb9
 362 530 l 1
 504 530 l 1
 504 0 l 1x79
EndSplineSet
Substitution2: "'smcp' Lowercase to Small Capitals lookup 24 subtable" udieresis.sc
Substitution2: "'aalt' Access All Alternates lookup 0 subtable" udieresis.sc
EndChar

StartChar: yacute
Encoding: 253 253 258
Width: 512
GlyphClass: 2
Flags: MW
HStem: -220 21G<57 57> 0 21G<163 212 163 163> 510 20G<-2 149 149 149 367 514 514 514>
VStem: -2 516<530 530>
AnchorPoint: "Anchor-11" 0 0 basechar 0
AnchorPoint: "Anchor-10" 0 0 basechar 0
AnchorPoint: "Anchor-9" 256 530 basechar 0
AnchorPoint: "Anchor-8" 0 0 basechar 0
LayerCount: 2
Fore
SplineSet
381 718 m 1
 151 626 l 1
 111 699 l 1
 325 827 l 1
 381 718 l 1
343 -1 m 2
 302 -130 219 -209 57 -220 c 1
 42 -118 l 1
 147 -104 183 -72 212 0 c 1
 163 0 l 1
 -2 530 l 1
 149 530 l 1
 255 92 l 1
 367 530 l 1
 514 530 l 1
 343 -1 l 2
EndSplineSet
Substitution2: "'smcp' Lowercase to Small Capitals lookup 24 subtable" yacute.sc
Substitution2: "'aalt' Access All Alternates lookup 0 subtable" yacute.sc
EndChar

StartChar: thorn
Encoding: 254 254 221
Width: 596
GlyphClass: 2
Flags: MW
HStem: -220 21G<70 70> -16 106<316.5 333.5 282.5 409.5> 441 105<329.5 340.5> 721 20G<70 70> 737 20G<212 212>
VStem: 70 142<-202 41 -202 142 142 373 477 741 741 741> 405 148<203 331.5>
AnchorPoint: "Anchor-11" 0 0 basechar 0
AnchorPoint: "Anchor-10" 0 0 basechar 0
AnchorPoint: "Anchor-9" 88 329 basechar 0
AnchorPoint: "Anchor-8" 0 0 basechar 0
LayerCount: 2
Fore
SplineSet
354 546 m 0xee
 494 546 553 437 553 266 c 0
 553 104 476 -16 343 -16 c 0
 290 -16 245 3 212 41 c 1
 212 -202 l 1
 70 -220 l 1
 70 741 l 1xf6
 212 757 l 1
 212 477 l 1
 253 527 305 546 354 546 c 0xee
301 90 m 0
 366 90 405 141 405 265 c 0
 405 398 371 441 310 441 c 0
 270 441 236 413 212 373 c 1
 212 142 l 1
 235 107 264 90 301 90 c 0
EndSplineSet
Substitution2: "'smcp' Lowercase to Small Capitals lookup 24 subtable" thorn.sc
Substitution2: "'aalt' Access All Alternates lookup 0 subtable" thorn.sc
EndChar

StartChar: ydieresis
Encoding: 255 255 260
Width: 512
GlyphClass: 2
Flags: MW
HStem: -220 21G<57 57> 0 21G<163 212 163 163> 510 20G<-2 149 149 149 367 514 514 514> 644 148<121 163.5 347.5 389.5>
VStem: 67 150<697.5 738.5> 293 151<697.5 738.5>
AnchorPoint: "Anchor-11" 0 0 basechar 0
AnchorPoint: "Anchor-10" 0 0 basechar 0
AnchorPoint: "Anchor-9" 254 708 basechar 0
AnchorPoint: "Anchor-8" 0 0 basechar 0
LayerCount: 2
Fore
SplineSet
142 792 m 0
 185 792 217 759 217 718 c 0
 217 677 185 644 142 644 c 0
 100 644 67 677 67 718 c 0
 67 759 100 792 142 792 c 0
368 792 m 0
 411 792 444 759 444 718 c 0
 444 677 411 644 368 644 c 0
 327 644 293 677 293 718 c 0
 293 759 327 792 368 792 c 0
343 -1 m 2
 302 -130 219 -209 57 -220 c 1
 42 -118 l 1
 147 -104 183 -72 212 0 c 1
 163 0 l 1
 -2 530 l 1
 149 530 l 1
 255 92 l 1
 367 530 l 1
 514 530 l 1
 343 -1 l 2
EndSplineSet
Substitution2: "'smcp' Lowercase to Small Capitals lookup 24 subtable" ydieresis.sc
Substitution2: "'aalt' Access All Alternates lookup 0 subtable" ydieresis.sc
EndChar

StartChar: Abreve
Encoding: 258 258 3
Width: 586
GlyphClass: 2
Flags: MW
HStem: 0 21G<-9 144 -9 -9 439 439 439 595> 155 109<211 372 211 400 183 372> 583 109<291 291> 672 20G<204 383 383 383> 752 101<269.5 316 269.5 342.5>
VStem: -9 604<0 0>
AnchorPoint: "Anchor-11" 0 0 basechar 0
AnchorPoint: "Anchor-10" 145 692 basechar 0
AnchorPoint: "Anchor-9" 294 692 basechar 0
AnchorPoint: "Anchor-8" 532 0 basechar 0
LayerCount: 2
Fore
SplineSet
293 752 m 0xdc
 194 752 134 823 126 905 c 1
 207 920 l 1
 219 881 246 853 293 853 c 0
 339 853 367 881 380 920 c 1
 461 905 l 1
 453 823 392 752 293 752 c 0xdc
400 155 m 1
 183 155 l 1
 144 0 l 1
 -9 0 l 1
 204 692 l 1
 383 692 l 1
 595 0 l 1
 439 0 l 1
 400 155 l 1
372 264 m 1
 291 583 l 1xec
 211 264 l 1
 372 264 l 1
EndSplineSet
Substitution2: "'c2sc' Capitals to Small Capitals lookup 23 subtable" abreve.sc
Substitution2: "'aalt' Access All Alternates lookup 0 subtable" abreve.sc
Position2: "'cpsp' Capital Spacing lookup 0 subtable" dx=5 dy=0 dh=10 dv=0
EndChar
StartChar: Aogonek
Encoding: 260 260 28
Width: 586
GlyphClass: 2
Flags: MW
HStem: -242 91<438 452> 0 21G<-9 144 -9 -9 522 595 522 522> 155 109<210 372 210 400 183 372> 583 109<291 291> 672 20G<204 383 383 383>
VStem: 297 106<-120 -94>
AnchorPoint: "Anchor-14" 0 0 basechar 0
AnchorPoint: "Anchor-13" 0 0 basechar 0
AnchorPoint: "Anchor-12" 294 692 basechar 0
AnchorPoint: "Anchor-11" 532 0 basechar 0
AnchorPoint: "Anchor-10" 294 0 basechar 0
LayerCount: 2
Back
Fore
SplineSet
522 0 m 1xec
 423 -38 403 -75 403 -105 c 0
 403 -135 420 -151 456 -151 c 0
 476 -151 494 -149 517 -144 c 1
 507 -235 l 1
 486 -239 465 -242 439 -242 c 0
 356 -242 297 -198 297 -130 c 0
 297 -58 348 -10 433 24 c 1
 400 155 l 1
 183 155 l 1
 144 0 l 1
 -9 0 l 1
 204 692 l 1
 383 692 l 1
 595 0 l 1
 522 0 l 1xec
210 264 m 1
 372 264 l 1
 291 583 l 1xf4
 210 264 l 1
EndSplineSet
Substitution2: "'c2sc' Capitals to Small Capitals lookup 26 subtable" aogonek.sc
Substitution2: "'aalt' Access All Alternates lookup 0 subtable" aogonek.sc
Position2: "'cpsp' Capital Spacing lookup 0 subtable" dx=5 dy=0 dh=10 dv=0
EndChar

StartChar: Cacute
Encoding: 262 262 15
Width: 571
GlyphClass: 2
Flags: MW
HStem: -16 116<307.5 384 307.5 396> 597 111<307 377>
VStem: 38 155<260 437 260 463.5>
AnchorPoint: "Anchor-11" 343 0 basechar 0
AnchorPoint: "Anchor-10" 0 0 basechar 0
AnchorPoint: "Anchor-9" 352 692 basechar 0
AnchorPoint: "Anchor-8" 0 0 basechar 0
LayerCount: 2
Fore
SplineSet
486 837 m 1
 252 752 l 1
 216 825 l 1
 431 945 l 1
 486 837 l 1
344 708 m 0
 436 708 496 681 553 633 c 1
 479 547 l 1
 441 580 401 597 353 597 c 0
 261 597 193 527 193 347 c 0
 193 173 260 100 355 100 c 0
 413 100 453 127 493 158 c 1
 561 71 l 1
 517 26 444 -16 348 -16 c 0
 164 -16 38 111 38 347 c 0
 38 580 171 708 344 708 c 0
EndSplineSet
Substitution2: "'c2sc' Capitals to Small Capitals lookup 23 subtable" cacute.sc
Substitution2: "'locl' Localized Forms in Latin lookup 7 subtable" Cacute.loclPLK
AlternateSubs2: "'aalt' Access All Alternates lookup 1 subtable" Cacute.loclPLK cacute.sc
Position2: "'cpsp' Capital Spacing lookup 0 subtable" dx=5 dy=0 dh=10 dv=0
EndChar
StartChar: cacute
Encoding: 263 263 381
Width: 478
GlyphClass: 2
Flags: MW
HStem: -16 114<266.5 319.5 266.5 328> 436 110<265.5 320.5>
VStem: 38 150<200.5 323.5 200.5 345>
AnchorPoint: "Anchor-14" 0 0 basechar 0
AnchorPoint: "Anchor-13" 0 0 basechar 0
AnchorPoint: "Anchor-12" 292 827 basechar 0
AnchorPoint: "Anchor-11" 0 0 basechar 0
AnchorPoint: "Anchor-10" 281 0 basechar 0
LayerCount: 2
Back
Fore
SplineSet
365 827 m 1
 421 718 l 1
 191 626 l 1
 151 699 l 1
 365 827 l 1
291 546 m 0
 362 546 417 525 467 482 c 1
 405 398 l 1
 371 424 340 436 301 436 c 0
 230 436 188 385 188 262 c 0
 188 139 233 98 300 98 c 0
 339 98 366 110 405 135 c 1
 467 46 l 1
 419 7 363 -16 293 -16 c 0
 135 -16 38 92 38 261 c 0
 38 429 136 546 291 546 c 0
EndSplineSet
Substitution2: "'smcp' Lowercase to Small Capitals lookup 27 subtable" cacute.sc
Substitution2: "'locl' Localized Forms in Latin lookup 7 subtable" cacute.loclPLK
AlternateSubs2: "'aalt' Access All Alternates lookup 1 subtable" cacute.loclPLK cacute.sc
EndChar
StartChar: ccircumflex
Encoding: 265 265 385
Width: 478
GlyphClass: 2
Flags: MW
HStem: -16 114<266.5 319.5 266.5 328> 436 110<265.5 320.5>
VStem: 38 150<200.5 323.5 200.5 345>
AnchorPoint: "Anchor-14" 0 0 basechar 0
AnchorPoint: "Anchor-13" 0 0 basechar 0
AnchorPoint: "Anchor-12" 292 815 basechar 0
AnchorPoint: "Anchor-11" 0 0 basechar 0
AnchorPoint: "Anchor-10" 281 0 basechar 0
LayerCount: 2
Back
Fore
SplineSet
158 624 m 1
 106 684 l 1
 246 815 l 1
 334 815 l 1
 474 684 l 1
 421 624 l 1
 290 713 l 1
 158 624 l 1
291 546 m 0
 362 546 417 525 467 482 c 1
 405 398 l 1
 371 424 340 436 301 436 c 0
 230 436 188 385 188 262 c 0
 188 139 233 98 300 98 c 0
 339 98 366 110 405 135 c 1
 467 46 l 1
 419 7 363 -16 293 -16 c 0
 135 -16 38 92 38 261 c 0
 38 429 136 546 291 546 c 0
EndSplineSet
Substitution2: "'smcp' Lowercase to Small Capitals lookup 27 subtable" ccircumflex.sc
Substitution2: "'aalt' Access All Alternates lookup 0 subtable" ccircumflex.sc
EndChar

StartChar: Cdotaccent
Encoding: 266 266 19
Width: 571
GlyphClass: 2
Flags: MW
HStem: -16 116<307.5 384 307.5 396> 597 111<307 377> 763 166<325.5 376.5>
VStem: 38 155<260 437 260 463.5> 265 173<822.5 869.5>
AnchorPoint: "Anchor-11" 343 0 basechar 0
AnchorPoint: "Anchor-10" 0 0 basechar 0
AnchorPoint: "Anchor-9" 352 692 basechar 0
AnchorPoint: "Anchor-8" 0 0 basechar 0
LayerCount: 2
Fore
SplineSet
351 929 m 0
 402 929 438 893 438 846 c 0
 438 799 402 763 351 763 c 0
 300 763 265 799 265 846 c 0
 265 893 300 929 351 929 c 0
344 708 m 0
 436 708 496 681 553 633 c 1
 479 547 l 1
 441 580 401 597 353 597 c 0
 261 597 193 527 193 347 c 0
 193 173 260 100 355 100 c 0
 413 100 453 127 493 158 c 1
 561 71 l 1
 517 26 444 -16 348 -16 c 0
 164 -16 38 111 38 347 c 0
 38 580 171 708 344 708 c 0
EndSplineSet
Substitution2: "'c2sc' Capitals to Small Capitals lookup 23 subtable" cdotaccent.sc
Substitution2: "'aalt' Access All Alternates lookup 0 subtable" cdotaccent.sc
Position2: "'cpsp' Capital Spacing lookup 0 subtable" dx=5 dy=0 dh=10 dv=0
EndChar

StartChar: cdotaccent
Encoding: 267 267 152
Width: 478
GlyphClass: 2
Flags: MW
HStem: -16 114<266.5 319.5 266.5 328> 436 110<265.5 320.5> 637 166<264.5 315.5>
VStem: 38 150<200.5 323.5 200.5 345> 204 173<696.5 743.5>
AnchorPoint: "Anchor-11" 281 0 basechar 0
AnchorPoint: "Anchor-10" 0 0 basechar 0
AnchorPoint: "Anchor-9" 290 530 basechar 0
AnchorPoint: "Anchor-8" 0 0 basechar 0
LayerCount: 2
Fore
SplineSet
290 803 m 0
 341 803 377 767 377 720 c 0
 377 673 341 637 290 637 c 0
 239 637 204 673 204 720 c 0
 204 767 239 803 290 803 c 0
291 546 m 0
 362 546 417 525 467 482 c 1
 405 397 l 1
 371 424 340 436 301 436 c 0
 230 436 188 385 188 262 c 0
 188 139 233 98 300 98 c 0
 339 98 366 110 403 138 c 1
 467 46 l 1
 419 7 363 -16 293 -16 c 0
 135 -16 38 92 38 261 c 0xf0
 38 429 136 546 291 546 c 0
EndSplineSet
Substitution2: "'smcp' Lowercase to Small Capitals lookup 24 subtable" cdotaccent.sc
Substitution2: "'aalt' Access All Alternates lookup 0 subtable" cdotaccent.sc
EndChar

StartChar: ccaron
Encoding: 269 269 149
Width: 478
GlyphClass: 2
Flags: MW
HStem: -16 114<266.5 319.5 266.5 328> 436 110<265.5 320.5> 726 20G<106 106 474 474>
VStem: 38 150<200.5 323.5 200.5 345>
AnchorPoint: "Anchor-11" 281 0 basechar 0
AnchorPoint: "Anchor-10" 0 0 basechar 0
AnchorPoint: "Anchor-9" 290 530 basechar 0
AnchorPoint: "Anchor-8" 0 0 basechar 0
LayerCount: 2
Fore
SplineSet
474 746 m 1
 334 615 l 1
 246 615 l 1
 106 746 l 1
 159 806 l 1
 290 717 l 1
 422 806 l 1
 474 746 l 1
291 546 m 0
 362 546 417 525 467 482 c 1
 405 397 l 1
 371 424 340 436 301 436 c 0
 230 436 188 385 188 262 c 0
 188 139 233 98 300 98 c 0
 339 98 366 110 403 138 c 1
 467 46 l 1
 419 7 363 -16 293 -16 c 0
 135 -16 38 92 38 261 c 0
 38 429 136 546 291 546 c 0
EndSplineSet
Substitution2: "'smcp' Lowercase to Small Capitals lookup 24 subtable" ccaron.sc
Substitution2: "'aalt' Access All Alternates lookup 0 subtable" ccaron.sc
EndChar
StartChar: Dcaron
Encoding: 270 270 57
Width: 650
GlyphClass: 2
Flags: MW
HStem: 0 108<220 271> 584 108<220 254 254 277 220 220>
VStem: 73 147<108 584 108 692 108 692> 458 153<252 448>
AnchorPoint: "Anchor-14" 325 346 basechar 0
AnchorPoint: "Anchor-13" 0 0 basechar 0
AnchorPoint: "Anchor-12" 299 935 basechar 0
AnchorPoint: "Anchor-11" 0 0 basechar 0
AnchorPoint: "Anchor-10" 305 0 basechar 0
LayerCount: 2
Back
Fore
SplineSet
429 935 m 1
 481 875 l 1
 341 751 l 1
 253 751 l 1
 113 875 l 1
 166 935 l 1
 297 852 l 1
 429 935 l 1
254 692 m 2
 437 692 611 635 611 349 c 0
 611 70 441 0 271 0 c 2
 73 0 l 1
 73 692 l 1
 254 692 l 2
277 584 m 2
 220 584 l 1
 220 108 l 1
 280 108 l 2
 381 108 458 155 458 349 c 0
 458 547 377 584 277 584 c 2
EndSplineSet
Substitution2: "'c2sc' Capitals to Small Capitals lookup 26 subtable" dcaron.sc
Substitution2: "'aalt' Access All Alternates lookup 0 subtable" dcaron.sc
Position2: "'cpsp' Capital Spacing lookup 0 subtable" dx=5 dy=0 dh=10 dv=0
EndChar

StartChar: dcaron
Encoding: 271 271 155
Width: 726
GlyphClass: 2
Flags: MW
HStem: -16 106<258 279.5> 0 21G<404 529 404 404> 441 105<264.5 285.5 192.5 315.5> 521 20G<589 589> 721 20G<529 529 711 711> 734 20G<600 600> 737 20G<387 387>
VStem: 43 148<198.5 327 198.5 347> 387 142<154 391 391 391 493 741 0 757 0 757>
LayerCount: 2
Fore
SplineSet
387 757 m 1xa380
 529 741 l 1
 529 0 l 1
 404 0 l 1x6980
 396 65 l 1
 364 19 315 -16 244 -16 c 0
 111 -16 43 96 43 265 c 0
 43 429 125 546 260 546 c 0
 311 546 355 524 387 493 c 1
 387 757 l 1xa380
711 741 m 1
 664 533 l 1
 589 541 l 1
 600 754 l 1x9580
 711 741 l 1
287 90 m 0
 329 90 360 112 387 154 c 1
 387 391 l 1
 361 422 335 441 296 441 c 0xa380
 233 441 191 389 191 265 c 0
 191 132 229 90 287 90 c 0
EndSplineSet
Substitution2: "'smcp' Lowercase to Small Capitals lookup 24 subtable" dcaron.sc
Substitution2: "'aalt' Access All Alternates lookup 0 subtable" dcaron.sc
EndChar

StartChar: Dcroat
Encoding: 272 272 23
Width: 663
GlyphClass: 2
Flags: MW
HStem: 0 108<234 285> 307 92<15 87 15 87 234 374> 584 108<234 268 268 291 234 234>
VStem: 87 147<108 307 108 307 108 307 399 584> 471 154<252 448>
AnchorPoint: "Anchor-11" 0 0 basechar 0
AnchorPoint: "Anchor-10" 0 0 basechar 0
AnchorPoint: "Anchor-9" 311 692 basechar 0
AnchorPoint: "Anchor-8" 0 0 basechar 0
LayerCount: 2
Fore
SplineSet
268 692 m 2
 451 692 625 635 625 349 c 0
 625 70 455 0 285 0 c 2
 87 0 l 1
 87 307 l 1
 15 307 l 1
 15 399 l 1
 87 399 l 1
 87 692 l 1
 268 692 l 2
294 108 m 2
 395 108 471 155 471 349 c 0
 471 547 390 584 291 584 c 2
 234 584 l 1
 234 399 l 1
 374 399 l 1
 374 307 l 1
 234 307 l 1
 234 108 l 1
 294 108 l 2
EndSplineSet
Substitution2: "'c2sc' Capitals to Small Capitals lookup 23 subtable" dcroat.sc
Substitution2: "'aalt' Access All Alternates lookup 0 subtable" dcroat.sc
Position2: "'cpsp' Capital Spacing lookup 0 subtable" dx=5 dy=0 dh=10 dv=0
EndChar
StartChar: dcroat
Encoding: 273 273 396
Width: 609
GlyphClass: 2
Flags: MW
HStem: -16 106<258 279.5> 0 21G<404 529 404 404> 441 105<264.5 285.5 192.5 315> 598 87<245 387 245 387 529 596> 721 20G<529 529> 737 20G<387 387>
VStem: 43 148<198.5 327 198.5 347> 387 142<154 391 391 391 492 598 0 598 685 741>
AnchorPoint: "Anchor-14" 302 265 basechar 0
AnchorPoint: "Anchor-13" 539 741 basechar 0
AnchorPoint: "Anchor-12" 299 741 basechar 0
AnchorPoint: "Anchor-11" 0 0 basechar 0
AnchorPoint: "Anchor-10" 308 0 basechar 0
LayerCount: 2
Back
Fore
SplineSet
529 685 m 1xb7
 596 685 l 1
 596 598 l 1
 529 598 l 1
 529 0 l 1
 404 0 l 1x77
 395 65 l 1
 364 19 315 -16 244 -16 c 0
 111 -16 43 96 43 265 c 0
 43 429 125 546 260 546 c 0
 311 546 355 524 387 492 c 1
 387 598 l 1
 245 598 l 1
 245 685 l 1
 387 685 l 1
 387 757 l 1xb7
 529 741 l 1xbb
 529 685 l 1xb7
287 90 m 0xb7
 329 90 360 112 387 154 c 1
 387 391 l 1
 361 422 334 441 296 441 c 0
 233 441 191 389 191 265 c 0
 191 132 229 90 287 90 c 0xb7
EndSplineSet
Substitution2: "'smcp' Lowercase to Small Capitals lookup 27 subtable" dcroat.sc
Substitution2: "'aalt' Access All Alternates lookup 0 subtable" dcroat.sc
EndChar
StartChar: Emacron
Encoding: 274 274 85
Width: 528
GlyphClass: 2
Flags: MW
HStem: 0 108<220 488 220 488> 299 106<220 438 220 438> 585 107<220 470 220 220> 784 100<132 430 132 430>
VStem: 73 147<108 299 405 585> 132 298<784 884 784 884>
AnchorPoint: "Anchor-14" 0 0 basechar 0
AnchorPoint: "Anchor-13" 0 0 basechar 0
AnchorPoint: "Anchor-12" 283 884 basechar 0
AnchorPoint: "Anchor-11" 458 0 basechar 0
AnchorPoint: "Anchor-10" 281 0 basechar 0
LayerCount: 2
Back
Fore
SplineSet
430 784 m 1xf4
 132 784 l 1
 132 884 l 1
 430 884 l 1
 430 784 l 1xf4
486 692 m 1
 470 585 l 1
 220 585 l 1
 220 405 l 1
 438 405 l 1
 438 299 l 1
 220 299 l 1
 220 108 l 1
 488 108 l 1
 488 0 l 1
 73 0 l 1
 73 692 l 1xf8
 486 692 l 1
EndSplineSet
Substitution2: "'c2sc' Capitals to Small Capitals lookup 26 subtable" emacron.sc
Substitution2: "'aalt' Access All Alternates lookup 0 subtable" emacron.sc
Position2: "'cpsp' Capital Spacing lookup 0 subtable" dx=5 dy=0 dh=10 dv=0
EndChar
StartChar: emacron
Encoding: 275 275 428
Width: 553
GlyphClass: 2
Flags: MW
HStem: -16 106<276 332.5 276 338.5> 222 89<184 377 184 515 184 377> 449 97<254 316> 658 100<133 431 133 431>
VStem: 38 146<222 222 222 311 222 342> 133 298<658 758 658 758> 377 141<311 317 317 357>
AnchorPoint: "Anchor-14" 0 0 basechar 0
AnchorPoint: "Anchor-13" 0 0 basechar 0
AnchorPoint: "Anchor-12" 283 743 basechar 0
AnchorPoint: "Anchor-11" 425 8 basechar 0
AnchorPoint: "Anchor-10" 293 0 basechar 0
LayerCount: 2
Back
Fore
SplineSet
431 758 m 1xf4
 431 658 l 1
 133 658 l 1
 133 758 l 1
 431 758 l 1xf4
518 277 m 0xfa
 518 259 516 237 515 222 c 1
 184 222 l 1
 194 120 242 90 310 90 c 0
 355 90 393 104 439 136 c 1
 498 56 l 1
 446 14 380 -16 297 -16 c 0
 127 -16 38 96 38 262 c 0
 38 422 124 546 279 546 c 0
 429 546 518 446 518 277 c 0xfa
377 311 m 1
 377 317 l 2
 377 397 350 449 282 449 c 0
 226 449 192 412 184 311 c 1
 377 311 l 1
EndSplineSet
Substitution2: "'smcp' Lowercase to Small Capitals lookup 27 subtable" emacron.sc
Substitution2: "'aalt' Access All Alternates lookup 0 subtable" emacron.sc
EndChar
StartChar: Ebreve
Encoding: 276 276 69
Width: 528
GlyphClass: 2
Flags: MW
HStem: 0 108<220 488 220 488> 299 106<220 438 220 438> 585 107<220 470 220 220> 752 101<257.5 304 257.5 330.5>
VStem: 73 147<108 299 405 585>
AnchorPoint: "Anchor-14" 0 0 basechar 0
AnchorPoint: "Anchor-13" 0 0 basechar 0
AnchorPoint: "Anchor-12" 284 920 basechar 0
AnchorPoint: "Anchor-11" 458 0 basechar 0
AnchorPoint: "Anchor-10" 281 0 basechar 0
LayerCount: 2
Back
Fore
SplineSet
281 752 m 0
 182 752 122 823 114 905 c 1
 195 920 l 1
 207 881 234 853 281 853 c 0
 327 853 355 881 368 920 c 1
 449 905 l 1
 441 823 380 752 281 752 c 0
486 692 m 1
 470 585 l 1
 220 585 l 1
 220 405 l 1
 438 405 l 1
 438 299 l 1
 220 299 l 1
 220 108 l 1
 488 108 l 1
 488 0 l 1
 73 0 l 1
 73 692 l 1
 486 692 l 1
EndSplineSet
Substitution2: "'c2sc' Capitals to Small Capitals lookup 26 subtable" ebreve.sc
Substitution2: "'aalt' Access All Alternates lookup 0 subtable" ebreve.sc
Position2: "'cpsp' Capital Spacing lookup 0 subtable" dx=5 dy=0 dh=10 dv=0
EndChar
StartChar: ebreve
Encoding: 277 277 412
Width: 553
GlyphClass: 2
Flags: MW
HStem: -16 106<276 332.5 276 338.5> 222 89<184 377 184 515 184 377> 449 97<254 316> 635 100<257.5 304 257.5 330.5>
VStem: 38 146<222 222 222 311 222 342> 377 141<311 317 317 357>
AnchorPoint: "Anchor-14" 0 0 basechar 0
AnchorPoint: "Anchor-13" 0 0 basechar 0
AnchorPoint: "Anchor-12" 284 813 basechar 0
AnchorPoint: "Anchor-11" 425 8 basechar 0
AnchorPoint: "Anchor-10" 293 0 basechar 0
LayerCount: 2
Back
Fore
SplineSet
281 635 m 0
 182 635 122 705 114 798 c 1
 195 813 l 1
 207 764 234 735 281 735 c 0
 327 735 355 764 368 813 c 1
 449 798 l 1
 441 705 380 635 281 635 c 0
518 277 m 0
 518 259 516 237 515 222 c 1
 184 222 l 1
 194 120 242 90 310 90 c 0
 355 90 393 104 439 136 c 1
 498 56 l 1
 446 14 380 -16 297 -16 c 0
 127 -16 38 96 38 262 c 0
 38 422 124 546 279 546 c 0
 429 546 518 446 518 277 c 0
377 311 m 1
 377 317 l 2
 377 397 350 449 282 449 c 0
 226 449 192 412 184 311 c 1
 377 311 l 1
EndSplineSet
Substitution2: "'smcp' Lowercase to Small Capitals lookup 27 subtable" ebreve.sc
Substitution2: "'aalt' Access All Alternates lookup 0 subtable" ebreve.sc
EndChar
StartChar: Edotaccent
Encoding: 278 278 80
Width: 528
GlyphClass: 2
Flags: MW
HStem: 0 108<220 488 220 488> 299 106<220 438 220 438> 585 107<220 470 220 220> 763 166<255.5 306.5>
VStem: 73 147<108 299 405 585> 195 173<822.5 869.5>
AnchorPoint: "Anchor-14" 0 0 basechar 0
AnchorPoint: "Anchor-13" 0 0 basechar 0
AnchorPoint: "Anchor-12" 284 929 basechar 0
AnchorPoint: "Anchor-11" 458 0 basechar 0
AnchorPoint: "Anchor-10" 281 0 basechar 0
LayerCount: 2
Back
Fore
SplineSet
281 929 m 0xf4
 332 929 368 893 368 846 c 0
 368 799 332 763 281 763 c 0
 230 763 195 799 195 846 c 0
 195 893 230 929 281 929 c 0xf4
486 692 m 1
 470 585 l 1
 220 585 l 1
 220 405 l 1
 438 405 l 1
 438 299 l 1
 220 299 l 1
 220 108 l 1
 488 108 l 1
 488 0 l 1
 73 0 l 1
 73 692 l 1xe8
 486 692 l 1
EndSplineSet
Substitution2: "'c2sc' Capitals to Small Capitals lookup 26 subtable" edotaccent.sc
Substitution2: "'aalt' Access All Alternates lookup 0 subtable" edotaccent.sc
Position2: "'cpsp' Capital Spacing lookup 0 subtable" dx=5 dy=0 dh=10 dv=0
EndChar
StartChar: edotaccent
Encoding: 279 279 423
Width: 553
GlyphClass: 2
Flags: MW
HStem: -16 106<276 332.5 276 338.5> 222 89<184 377 184 515 184 377> 449 97<254 316> 637 166<255.5 306.5>
VStem: 38 146<222 222 222 311 222 342> 195 173<696.5 743.5> 377 141<311 317 317 357>
AnchorPoint: "Anchor-14" 0 0 basechar 0
AnchorPoint: "Anchor-13" 0 0 basechar 0
AnchorPoint: "Anchor-12" 284 803 basechar 0
AnchorPoint: "Anchor-11" 425 8 basechar 0
AnchorPoint: "Anchor-10" 293 0 basechar 0
LayerCount: 2
Back
Fore
SplineSet
281 637 m 0
 230 637 195 673 195 720 c 0
 195 767 230 803 281 803 c 0
 332 803 368 767 368 720 c 0
 368 673 332 637 281 637 c 0
518 277 m 0xea
 518 259 516 237 515 222 c 1
 184 222 l 1
 194 120 242 90 310 90 c 0
 355 90 393 104 439 136 c 1
 498 56 l 1
 446 14 380 -16 297 -16 c 0
 127 -16 38 96 38 262 c 0
 38 422 124 546 279 546 c 0
 429 546 518 446 518 277 c 0xea
377 311 m 1
 377 317 l 2
 377 397 350 449 282 449 c 0
 226 449 192 412 184 311 c 1
 377 311 l 1
EndSplineSet
Substitution2: "'smcp' Lowercase to Small Capitals lookup 27 subtable" edotaccent.sc
Substitution2: "'aalt' Access All Alternates lookup 0 subtable" edotaccent.sc
EndChar
StartChar: Eogonek
Encoding: 280 280 86
Width: 528
GlyphClass: 2
Flags: MW
HStem: -242 91<364 378> 0 108<220 310 448 488 448 448> 299 106<220 438 220 438> 585 107<220 470 220 220>
VStem: 73 147<108 108 108 299 405 585> 223 106<-120 -101.5>
AnchorPoint: "Anchor-14" 0 0 basechar 0
AnchorPoint: "Anchor-13" 0 0 basechar 0
AnchorPoint: "Anchor-12" 282 692 basechar 0
AnchorPoint: "Anchor-11" 458 0 basechar 0
AnchorPoint: "Anchor-10" 281 0 basechar 0
LayerCount: 2
Back
Fore
SplineSet
220 108 m 1
 488 108 l 1
 488 0 l 1
 448 0 l 1
 349 -38 329 -75 329 -105 c 0
 329 -135 346 -151 382 -151 c 0
 402 -151 420 -149 443 -144 c 1
 433 -235 l 1
 412 -239 391 -242 365 -242 c 0
 282 -242 223 -198 223 -130 c 0
 223 -73 255 -32 310 0 c 1xf4
 73 0 l 1
 73 692 l 1
 486 692 l 1
 470 585 l 1
 220 585 l 1
 220 405 l 1
 438 405 l 1
 438 299 l 1
 220 299 l 1
 220 108 l 1
EndSplineSet
Substitution2: "'c2sc' Capitals to Small Capitals lookup 26 subtable" eogonek.sc
Substitution2: "'aalt' Access All Alternates lookup 0 subtable" eogonek.sc
Position2: "'cpsp' Capital Spacing lookup 0 subtable" dx=5 dy=0 dh=10 dv=0
EndChar

StartChar: eogonek
Encoding: 281 281 166
Width: 553
GlyphClass: 2
Flags: MW
HStem: -234 91<331 345> -14 21G 222 89<184 377 184 515 184 377> 449 97<254 316>
VStem: 38 146<222 222 222 311 222 342> 190 106<-112 -98.5> 377 141<311 317 317 357>
AnchorPoint: "Anchor-11" 293 0 basechar 0
AnchorPoint: "Anchor-10" 0 0 basechar 0
AnchorPoint: "Anchor-9" 282 530 basechar 0
AnchorPoint: "Anchor-8" 425 8 basechar 0
LayerCount: 2
Fore
SplineSet
518 277 m 0
 518 259 516 237 515 222 c 1
 184 222 l 1xfa
 194 120 242 90 310 90 c 0
 355 90 393 104 439 136 c 1
 498 56 l 1
 467 31 431 10 390 -2 c 1
 313 -37 296 -70 296 -97 c 0
 296 -127 313 -143 349 -143 c 0
 369 -143 387 -141 410 -136 c 1
 400 -227 l 1
 379 -231 358 -234 332 -234 c 0
 249 -234 190 -190 190 -122 c 0xf6
 190 -75 218 -39 262 -14 c 1
 115 0 38 108 38 262 c 0
 38 422 124 546 279 546 c 0
 429 546 518 446 518 277 c 0
377 311 m 1
 377 317 l 2
 377 397 350 449 282 449 c 0
 226 449 191 411 184 311 c 1
 377 311 l 1
EndSplineSet
Substitution2: "'smcp' Lowercase to Small Capitals lookup 24 subtable" eogonek.sc
Substitution2: "'aalt' Access All Alternates lookup 0 subtable" eogonek.sc
EndChar
StartChar: Ecaron
Encoding: 282 282 70
Width: 528
GlyphClass: 2
Flags: MW
HStem: 0 108<220 488 220 488> 299 106<220 438 220 438> 585 107<220 470 220 220>
VStem: 73 147<108 299 405 585>
AnchorPoint: "Anchor-14" 0 0 basechar 0
AnchorPoint: "Anchor-13" 0 0 basechar 0
AnchorPoint: "Anchor-12" 284 935 basechar 0
AnchorPoint: "Anchor-11" 458 0 basechar 0
AnchorPoint: "Anchor-10" 281 0 basechar 0
LayerCount: 2
Back
Fore
SplineSet
414 935 m 1
 466 875 l 1
 326 751 l 1
 238 751 l 1
 98 875 l 1
 151 935 l 1
 282 852 l 1
 414 935 l 1
486 692 m 1
 470 585 l 1
 220 585 l 1
 220 405 l 1
 438 405 l 1
 438 299 l 1
 220 299 l 1
 220 108 l 1
 488 108 l 1
 488 0 l 1
 73 0 l 1
 73 692 l 1
 486 692 l 1
EndSplineSet
Substitution2: "'c2sc' Capitals to Small Capitals lookup 26 subtable" ecaron.sc
Substitution2: "'aalt' Access All Alternates lookup 0 subtable" ecaron.sc
Position2: "'cpsp' Capital Spacing lookup 0 subtable" dx=5 dy=0 dh=10 dv=0
EndChar
StartChar: ecaron
Encoding: 283 283 413
Width: 553
GlyphClass: 2
Flags: MW
HStem: -16 106<276 332.5 276 338.5> 222 89<184 377 184 515 184 377> 449 97<254 316> 726 20G<98 98 466 466>
VStem: 38 146<222 222 222 311 222 342> 377 141<311 317 317 357>
AnchorPoint: "Anchor-14" 0 0 basechar 0
AnchorPoint: "Anchor-13" 0 0 basechar 0
AnchorPoint: "Anchor-12" 284 806 basechar 0
AnchorPoint: "Anchor-11" 425 8 basechar 0
AnchorPoint: "Anchor-10" 293 0 basechar 0
LayerCount: 2
Back
Fore
SplineSet
326 615 m 1
 238 615 l 1
 98 746 l 1
 151 806 l 1
 282 717 l 1
 414 806 l 1
 466 746 l 1
 326 615 l 1
518 277 m 0
 518 259 516 237 515 222 c 1
 184 222 l 1
 194 120 242 90 310 90 c 0
 355 90 393 104 439 136 c 1
 498 56 l 1
 446 14 380 -16 297 -16 c 0
 127 -16 38 96 38 262 c 0
 38 422 124 546 279 546 c 0
 429 546 518 446 518 277 c 0
377 311 m 1
 377 317 l 2
 377 397 350 449 282 449 c 0
 226 449 192 412 184 311 c 1
 377 311 l 1
EndSplineSet
Substitution2: "'smcp' Lowercase to Small Capitals lookup 27 subtable" ecaron.sc
Substitution2: "'aalt' Access All Alternates lookup 0 subtable" ecaron.sc
EndChar

StartChar: Gcircumflex
Encoding: 284 284 37
Width: 641
GlyphClass: 2
Flags: MW
HStem: -16 110<295 364.5 295 391.5> 288 107<352 449 352 352> 599 109<319 396.5>
VStem: 38 154<253.5 436 253.5 464> 449 143<119 288 288 288>
AnchorPoint: "Anchor-11" 346 0 basechar 0
AnchorPoint: "Anchor-10" 0 0 basechar 0
AnchorPoint: "Anchor-9" 353 692 basechar 0
AnchorPoint: "Anchor-8" 0 0 basechar 0
LayerCount: 2
Fore
SplineSet
353 839 m 1
 222 756 l 1
 169 816 l 1
 309 940 l 1
 397 940 l 1
 537 816 l 1
 485 756 l 1
 353 839 l 1
361 708 m 0
 460 708 530 675 588 625 c 1
 509 544 l 1
 464 581 425 599 368 599 c 0
 270 599 192 526 192 346 c 0
 192 161 244 94 346 94 c 0
 383 94 418 102 449 119 c 1
 449 288 l 1
 352 288 l 1
 337 395 l 1
 592 395 l 1
 592 54 l 1
 523 11 438 -16 345 -16 c 0
 145 -16 38 109 38 347 c 0
 38 581 184 708 361 708 c 0
EndSplineSet
Substitution2: "'c2sc' Capitals to Small Capitals lookup 23 subtable" gcircumflex.sc
Substitution2: "'aalt' Access All Alternates lookup 0 subtable" gcircumflex.sc
Position2: "'cpsp' Capital Spacing lookup 0 subtable" dx=5 dy=0 dh=10 dv=0
EndChar
StartChar: Gbreve
Encoding: 286 286 101
Width: 641
GlyphClass: 2
Flags: MW
HStem: -16 110<295 364.5 295 391.5> 288 107<352 449 352 352> 599 109<319 396.5> 752 101<328.5 375 328.5 401.5>
VStem: 38 154<253.5 436 253.5 464> 449 143<119 288 288 288>
AnchorPoint: "Anchor-14" 0 0 basechar 0
AnchorPoint: "Anchor-13" 0 0 basechar 0
AnchorPoint: "Anchor-12" 355 920 basechar 0
AnchorPoint: "Anchor-11" 0 0 basechar 0
AnchorPoint: "Anchor-10" 346 0 basechar 0
LayerCount: 2
Back
Fore
SplineSet
352 752 m 0
 253 752 193 823 185 905 c 1
 266 920 l 1
 278 881 305 853 352 853 c 0
 398 853 426 881 439 920 c 1
 520 905 l 1
 512 823 451 752 352 752 c 0
361 708 m 0
 460 708 530 675 588 625 c 1
 509 544 l 1
 464 581 425 599 368 599 c 0
 270 599 192 526 192 346 c 0
 192 161 244 94 346 94 c 0
 383 94 418 102 449 119 c 1
 449 288 l 1
 352 288 l 1
 337 395 l 1
 592 395 l 1
 592 54 l 1
 523 11 438 -16 345 -16 c 0
 145 -16 38 109 38 347 c 0
 38 581 184 708 361 708 c 0
EndSplineSet
Substitution2: "'c2sc' Capitals to Small Capitals lookup 26 subtable" gbreve.sc
Substitution2: "'aalt' Access All Alternates lookup 0 subtable" gbreve.sc
Position2: "'cpsp' Capital Spacing lookup 0 subtable" dx=5 dy=0 dh=10 dv=0
EndChar

StartChar: Gdotaccent
Encoding: 288 288 39
Width: 641
GlyphClass: 2
Flags: MW
HStem: -16 110<295 364.5 295 391.5> 288 107<352 449 352 352> 599 109<319 396.5> 763 166<326.5 377.5>
VStem: 38 154<253.5 436 253.5 464> 266 173<822.5 869.5> 449 143<119 288 288 288>
AnchorPoint: "Anchor-11" 346 0 basechar 0
AnchorPoint: "Anchor-10" 0 0 basechar 0
AnchorPoint: "Anchor-9" 353 692 basechar 0
AnchorPoint: "Anchor-8" 0 0 basechar 0
LayerCount: 2
Fore
SplineSet
352 929 m 0
 403 929 439 893 439 846 c 0
 439 799 403 763 352 763 c 0
 301 763 266 799 266 846 c 0
 266 893 301 929 352 929 c 0
361 708 m 0
 460 708 530 675 588 625 c 1
 509 544 l 1
 464 581 425 599 368 599 c 0
 270 599 192 526 192 346 c 0
 192 161 244 94 346 94 c 0
 383 94 418 102 449 119 c 1
 449 288 l 1
 352 288 l 1
 337 395 l 1
 592 395 l 1
 592 54 l 1xea
 523 11 438 -16 345 -16 c 0
 145 -16 38 109 38 347 c 0
 38 581 184 708 361 708 c 0
EndSplineSet
Substitution2: "'c2sc' Capitals to Small Capitals lookup 23 subtable" gdotaccent.sc
Substitution2: "'aalt' Access All Alternates lookup 0 subtable" gdotaccent.sc
Position2: "'cpsp' Capital Spacing lookup 0 subtable" dx=5 dy=0 dh=10 dv=0
EndChar

StartChar: gcommaaccent
Encoding: 291 291 171
Width: 544
GlyphClass: 2
Flags: MW
HStem: -220 97<210.5 310 210.5 346.5> 0 104<168.5 331 250 302> 167 92<259.5 293.5 238 338.5> 451 95<237 261 194.5 293.5> 481 65
VStem: 11 127<-76 -51 -76 -51> 35 142<325.5 385 325.5 412.5> 67 122<76 146> 196 147<652 684> 352 137<325.5 378.5 293.5 389.5> 385 143<-77 -40>
AnchorPoint: "Anchor-11" 0 0 basechar 0
AnchorPoint: "Anchor-10" 0 0 basechar 0
AnchorPoint: "Anchor-9" 271 530 basechar 0
AnchorPoint: "Anchor-8" 0 0 basechar 0
LayerCount: 2
Fore
SplineSet
269 600 m 0xf2c0
 227 600 196 631 196 672 c 0
 196 696 203 715 222 755 c 2
 268 848 l 1
 340 848 l 1
 313 733 l 1
 331 718 343 699 343 672 c 0
 343 632 311 600 269 600 c 0xf2c0
544 501 m 1
 505 486 455 481 391 481 c 1
 456 452 489 412 489 345 c 0
 489 242 406 167 271 167 c 0
 248 167 228 169 209 174 c 1
 197 166 189 153 189 139 c 0
 189 121 198 104 250 104 c 2xe940
 331 104 l 2
 451 104 528 40 528 -48 c 0
 528 -155 435 -220 258 -220 c 0
 64 -220 11 -157 11 -51 c 1
 138 -51 l 1xf420
 138 -101 160 -123 261 -123 c 0
 359 -123 385 -96 385 -58 c 0
 385 -22 358 0 302 0 c 2
 224 0 l 2
 113 0 67 48 67 104 c 0xf120
 67 142 91 179 129 203 c 1
 63 239 35 286 35 354 c 0xf240
 35 471 128 546 261 546 c 1
 383 543 445 574 509 610 c 1
 544 501 l 1
264 451 m 0xf240
 210 451 177 414 177 356 c 0
 177 295 211 259 265 259 c 0
 322 259 352 293 352 358 c 0
 352 421 323 451 264 451 c 0xf240
EndSplineSet
Substitution2: "'smcp' Lowercase to Small Capitals lookup 24 subtable" gcommaaccent.sc
Substitution2: "'aalt' Access All Alternates lookup 0 subtable" gcommaaccent.sc
EndChar
StartChar: Hcircumflex
Encoding: 292 292 112
Width: 669
GlyphClass: 2
Flags: MW
HStem: 0 21G<73 220 73 73 449 596 449 449> 303 116<220 449 220 449> 672 20G<73 220 220 220 449 596 596 596>
VStem: 73 147<0 303 0 419 419 692> 449 147<0 303 303 303 419 692 0 692>
AnchorPoint: "Anchor-14" 335 346 basechar 0
AnchorPoint: "Anchor-13" 443 819 basechar 0
AnchorPoint: "Anchor-12" 334 940 basechar 0
AnchorPoint: "Anchor-11" 0 0 basechar 0
AnchorPoint: "Anchor-10" 335 0 basechar 0
LayerCount: 2
Back
Fore
SplineSet
466 756 m 1
 334 839 l 1
 203 756 l 1
 150 816 l 1
 290 940 l 1
 378 940 l 1
 518 816 l 1
 466 756 l 1
449 0 m 1
 449 303 l 1
 220 303 l 1
 220 0 l 1
 73 0 l 1
 73 692 l 1
 220 692 l 1
 220 419 l 1
 449 419 l 1
 449 692 l 1
 596 692 l 1
 596 0 l 1
 449 0 l 1
EndSplineSet
Substitution2: "'c2sc' Capitals to Small Capitals lookup 26 subtable" hcircumflex.sc
Substitution2: "'aalt' Access All Alternates lookup 0 subtable" hcircumflex.sc
Position2: "'cpsp' Capital Spacing lookup 0 subtable" dx=5 dy=0 dh=10 dv=0
EndChar

StartChar: hcircumflex
Encoding: 293 293 175
Width: 579
GlyphClass: 2
Flags: MW
HStem: 0 21G<70 212 70 70 372 514 372 372> 440 106<294 412> 721 20G<70 70> 736 20G<212 212>
VStem: 70 142<0 367 0 470 470 741 741 741> 372 142<0 362 362 386 0 392.5>
AnchorPoint: "Anchor-11" 0 0 basechar 0
AnchorPoint: "Anchor-10" 0 0 basechar 0
AnchorPoint: "Anchor-9" 289 741 basechar 0
AnchorPoint: "Anchor-8" 0 0 basechar 0
LayerCount: 2
Fore
SplineSet
158 805 m 1xdc
 105 865 l 1
 245 989 l 1
 333 989 l 1
 473 865 l 1
 421 805 l 1
 289 888 l 1
 158 805 l 1xdc
366 546 m 0
 458 546 514 486 514 386 c 2
 514 0 l 1
 372 0 l 1
 372 362 l 2
 372 423 349 440 314 440 c 0
 274 440 241 413 212 367 c 1
 212 0 l 1
 70 0 l 1
 70 741 l 1xec
 212 756 l 1
 212 470 l 1
 254 519 302 546 366 546 c 0
EndSplineSet
Substitution2: "'smcp' Lowercase to Small Capitals lookup 24 subtable" hcircumflex.sc
Substitution2: "'aalt' Access All Alternates lookup 0 subtable" hcircumflex.sc
EndChar

StartChar: Hbar
Encoding: 294 294 41
Width: 680
GlyphClass: 2
Flags: MW
HStem: 0 21G<79 226 79 79 454 601 454 454> 303 116<226 454 226 454> 502 86<18 79 18 79 226 454 601 661> 502 190<18 226 18 226 79 226 79 454>
VStem: 79 147<0 303 0 419 419 502 588 692> 454 147<0 303 303 303 419 502 0 502 588 692>
AnchorPoint: "Anchor-11" 0 0 basechar 0
AnchorPoint: "Anchor-10" 73 692 basechar 0
AnchorPoint: "Anchor-9" 340 692 basechar 0
AnchorPoint: "Anchor-8" 0 0 basechar 0
LayerCount: 2
Fore
SplineSet
661 502 m 1xdc
 601 502 l 1
 601 0 l 1
 454 0 l 1
 454 303 l 1
 226 303 l 1
 226 0 l 1
 79 0 l 1
 79 502 l 1
 18 502 l 1xdc
 18 588 l 1
 79 588 l 1xec
 79 692 l 1
 226 692 l 1xdc
 226 588 l 1
 454 588 l 1xec
 454 692 l 1
 601 692 l 1xdc
 601 588 l 1
 661 588 l 1xec
 661 502 l 1xdc
454 502 m 1
 226 502 l 1
 226 419 l 1
 454 419 l 1
 454 502 l 1
EndSplineSet
Substitution2: "'c2sc' Capitals to Small Capitals lookup 23 subtable" hbar.sc
Substitution2: "'aalt' Access All Alternates lookup 0 subtable" hbar.sc
Position2: "'cpsp' Capital Spacing lookup 0 subtable" dx=5 dy=0 dh=10 dv=0
EndChar
StartChar: Itilde
Encoding: 296 296 136
Width: 294
GlyphClass: 2
Flags: MW
HStem: 0 21G<73 220 73 73> 672 20G<73 220 220 220> 766 102<186 214 186 232> 812 102<77.5 106>
VStem: 73 147<0 692 0 692>
AnchorPoint: "Anchor-14" 0 0 basechar 0
AnchorPoint: "Anchor-13" 0 0 basechar 0
AnchorPoint: "Anchor-12" 148 914 basechar 0
AnchorPoint: "Anchor-11" 209 0 basechar 0
AnchorPoint: "Anchor-10" 147 0 basechar 0
LayerCount: 2
Back
Fore
SplineSet
204 766 m 0xe8
 147 766 123 812 89 812 c 0
 66 812 52 796 36 767 c 1
 -37 803 l 1
 -13 863 30 914 87 914 c 0xd8
 147 914 169 868 203 868 c 0
 225 868 239 883 256 912 c 1
 329 876 l 1
 303 811 260 766 204 766 c 0xe8
220 692 m 1xd8
 220 0 l 1
 73 0 l 1
 73 692 l 1
 220 692 l 1xd8
EndSplineSet
Substitution2: "'c2sc' Capitals to Small Capitals lookup 26 subtable" itilde.sc
Substitution2: "'aalt' Access All Alternates lookup 0 subtable" itilde.sc
Position2: "'cpsp' Capital Spacing lookup 0 subtable" dx=5 dy=0 dh=10 dv=0
EndChar

StartChar: itilde
Encoding: 297 297 187
Width: 282
GlyphClass: 2
Flags: MW
HStem: 0 21G<70 212 70 70> 510 20G<70 212 212 212> 640 102<181 209 181 228.5> 686 102<72.5 101> 730 20G<324 324>
VStem: 70 142<0 530>
AnchorPoint: "Anchor-11" 0 0 basechar 0
AnchorPoint: "Anchor-10" 0 0 basechar 0
AnchorPoint: "Anchor-9" 141 530 basechar 0
AnchorPoint: "Anchor-8" 203 0 basechar 0
LayerCount: 2
Fore
SplineSet
202 640 m 0xe4
 139 640 118 686 84 686 c 0
 61 686 47 670 31 641 c 1
 -42 677 l 1xd4
 -18 737 25 788 83 788 c 0
 143 788 164 742 198 742 c 0
 220 742 234 757 251 786 c 1xe4
 324 750 l 1xcc
 298 685 255 640 202 640 c 0xe4
212 0 m 1xcc
 70 0 l 1
 70 530 l 1
 212 530 l 1
 212 0 l 1xcc
EndSplineSet
Substitution2: "'smcp' Lowercase to Small Capitals lookup 24 subtable" itilde.sc
Substitution2: "'aalt' Access All Alternates lookup 0 subtable" itilde.sc
EndChar

StartChar: Imacron
Encoding: 298 298 51
Width: 294
GlyphClass: 2
Flags: MW
HStem: 0 21G<73 221 73 73> 672 20G<73 221 221 221> 781 100<-2 296 -2 296>
VStem: 73 148<0 692>
AnchorPoint: "Anchor-11" 0 0 basechar 0
AnchorPoint: "Anchor-10" 68 692 basechar 0
AnchorPoint: "Anchor-9" 147 692 basechar 0
AnchorPoint: "Anchor-8" 209 0 basechar 0
LayerCount: 2
Fore
SplineSet
-2 781 m 1
 -2 881 l 1
 296 881 l 1
 296 781 l 1
 -2 781 l 1
221 0 m 1
 73 0 l 1
 73 692 l 1
 221 692 l 1
 221 0 l 1
EndSplineSet
Substitution2: "'c2sc' Capitals to Small Capitals lookup 23 subtable" imacron.sc
Substitution2: "'aalt' Access All Alternates lookup 0 subtable" imacron.sc
Position2: "'cpsp' Capital Spacing lookup 0 subtable" dx=5 dy=0 dh=10 dv=0
EndChar
StartChar: Ibreve
Encoding: 300 300 121
Width: 294
GlyphClass: 2
Flags: MW
HStem: 0 21G<73 220 73 73> 672 20G<73 220 220 220> 752 101<122.5 169 122.5 195.5>
VStem: 73 147<0 692 0 692>
AnchorPoint: "Anchor-14" 0 0 basechar 0
AnchorPoint: "Anchor-13" 0 0 basechar 0
AnchorPoint: "Anchor-12" 149 920 basechar 0
AnchorPoint: "Anchor-11" 209 0 basechar 0
AnchorPoint: "Anchor-10" 147 0 basechar 0
LayerCount: 2
Back
Fore
SplineSet
146 752 m 0
 47 752 -13 823 -21 905 c 1
 60 920 l 1
 72 881 99 853 146 853 c 0
 192 853 220 881 233 920 c 1
 314 905 l 1
 306 823 245 752 146 752 c 0
220 692 m 1
 220 0 l 1
 73 0 l 1
 73 692 l 1
 220 692 l 1
EndSplineSet
Substitution2: "'c2sc' Capitals to Small Capitals lookup 26 subtable" ibreve.sc
Substitution2: "'aalt' Access All Alternates lookup 0 subtable" ibreve.sc
Position2: "'cpsp' Capital Spacing lookup 0 subtable" dx=5 dy=0 dh=10 dv=0
EndChar
StartChar: ibreve
Encoding: 301 301 481
Width: 282
GlyphClass: 2
Flags: MW
HStem: 0 21G<70 212 70 70> 510 20G<70 212 212 212> 635 100<116.5 163 116.5 189.5>
VStem: 70 142<0 530 0 530>
AnchorPoint: "Anchor-14" 0 0 basechar 0
AnchorPoint: "Anchor-13" 0 0 basechar 0
AnchorPoint: "Anchor-12" 143 813 basechar 0
AnchorPoint: "Anchor-11" 203 0 basechar 0
AnchorPoint: "Anchor-10" 141 0 basechar 0
LayerCount: 2
Back
Fore
SplineSet
140 635 m 0
 41 635 -19 705 -27 798 c 1
 54 813 l 1
 66 764 93 735 140 735 c 0
 186 735 214 764 227 813 c 1
 308 798 l 1
 300 705 239 635 140 635 c 0
212 530 m 1
 212 0 l 1
 70 0 l 1
 70 530 l 1
 212 530 l 1
EndSplineSet
Substitution2: "'smcp' Lowercase to Small Capitals lookup 27 subtable" ibreve.sc
Substitution2: "'aalt' Access All Alternates lookup 0 subtable" ibreve.sc
EndChar

StartChar: Iogonek
Encoding: 302 302 52
Width: 294
GlyphClass: 2
Flags: MW
HStem: -242 91<115 129> 0 21G<199 221 199 199> 672 20G<73 221 221 221>
VStem: -26 106<-120 -99.5> 73 148<7 692 0 692>
AnchorPoint: "Anchor-11" 0 0 basechar 0
AnchorPoint: "Anchor-10" 68 692 basechar 0
AnchorPoint: "Anchor-9" 147 692 basechar 0
AnchorPoint: "Anchor-8" 209 0 basechar 0
LayerCount: 2
Fore
SplineSet
221 692 m 1xe8
 221 0 l 1xe8
 199 0 l 1
 100 -38 80 -75 80 -105 c 0
 80 -135 97 -151 133 -151 c 0xf0
 153 -151 171 -149 194 -144 c 1
 184 -235 l 1xe8
 163 -239 142 -242 116 -242 c 0
 33 -242 -26 -198 -26 -130 c 0xf0
 -26 -69 10 -26 73 7 c 1
 73 692 l 1
 221 692 l 1xe8
EndSplineSet
Substitution2: "'c2sc' Capitals to Small Capitals lookup 23 subtable" iogonek.sc
Substitution2: "'aalt' Access All Alternates lookup 0 subtable" iogonek.sc
Position2: "'cpsp' Capital Spacing lookup 0 subtable" dx=5 dy=0 dh=10 dv=0
EndChar
StartChar: iogonek
Encoding: 303 303 494
Width: 282
GlyphClass: 2
Flags: MW
HStem: -242 91<109 123> 0 21G<193 212 193 193> 510 20G<70 212 212 212> 637 166<114.5 165.5>
VStem: -32 106<-120 -99> 54 173<696.5 743.5> 70 142<8 530 0 530>
AnchorPoint: "Anchor-14" 0 0 basechar 0
AnchorPoint: "Anchor-13" 0 0 basechar 0
AnchorPoint: "Anchor-12" 143 803 basechar 0
AnchorPoint: "Anchor-11" 203 0 basechar 0
AnchorPoint: "Anchor-10" 141 0 basechar 0
LayerCount: 2
Back
Fore
SplineSet
140 637 m 0xf4
 89 637 54 673 54 720 c 0
 54 767 89 803 140 803 c 0
 191 803 227 767 227 720 c 0
 227 673 191 637 140 637 c 0xf4
70 8 m 1xf2
 70 530 l 1
 212 530 l 1
 212 0 l 1xf2
 193 0 l 1
 94 -38 74 -75 74 -105 c 0
 74 -135 91 -151 127 -151 c 0xf8
 147 -151 165 -149 188 -144 c 1
 178 -235 l 1xf2
 157 -239 136 -242 110 -242 c 0
 27 -242 -32 -198 -32 -130 c 0xf8
 -32 -68 5 -24 70 8 c 1xf2
EndSplineSet
Substitution2: "'smcp' Lowercase to Small Capitals lookup 27 subtable" iogonek.sc
Substitution2: "'aalt' Access All Alternates lookup 0 subtable" iogonek.sc
EndChar
StartChar: Idotaccent
Encoding: 304 304 127
Width: 294
GlyphClass: 2
Flags: MW
HStem: 0 21G<73 220 73 73> 672 20G<73 220 220 220> 763 166<120.5 171.5>
VStem: 60 173<822.5 869.5> 73 147<0 692 0 692>
AnchorPoint: "Anchor-14" 0 0 basechar 0
AnchorPoint: "Anchor-13" 0 0 basechar 0
AnchorPoint: "Anchor-12" 149 929 basechar 0
AnchorPoint: "Anchor-11" 209 0 basechar 0
AnchorPoint: "Anchor-10" 147 0 basechar 0
LayerCount: 2
Back
Fore
SplineSet
146 929 m 0xf0
 197 929 233 893 233 846 c 0
 233 799 197 763 146 763 c 0
 95 763 60 799 60 846 c 0
 60 893 95 929 146 929 c 0xf0
220 692 m 1xe8
 220 0 l 1
 73 0 l 1
 73 692 l 1
 220 692 l 1xe8
EndSplineSet
Substitution2: "'c2sc' Capitals to Small Capitals lookup 26 subtable" i.sc.loclTRK
Substitution2: "'aalt' Access All Alternates lookup 0 subtable" i.sc.loclTRK
Position2: "'cpsp' Capital Spacing lookup 0 subtable" dx=5 dy=0 dh=10 dv=0
EndChar

StartChar: dotlessi
Encoding: 305 305 177
Width: 282
GlyphClass: 2
Flags: MW
HStem: 0 21G<70 212 70 70> 510 20G<70 212 212 212>
VStem: 70 142<0 530>
AnchorPoint: "Anchor-11" 0 0 basechar 0
AnchorPoint: "Anchor-10" 0 0 basechar 0
AnchorPoint: "Anchor-9" 141 530 basechar 0
AnchorPoint: "Anchor-8" 203 0 basechar 0
LayerCount: 2
Fore
SplineSet
212 0 m 1
 70 0 l 1
 70 530 l 1
 212 530 l 1
 212 0 l 1
EndSplineSet
Substitution2: "'smcp' Lowercase to Small Capitals lookup 24 subtable" dotlessi.sc
Substitution2: "'aalt' Access All Alternates lookup 0 subtable" dotlessi.sc
EndChar
StartChar: IJ
Encoding: 306 306 119
Width: 608
GlyphClass: 2
Flags: MW
HStem: 0 21G<73 220 73 73> 672 20G<73 220 220 220 392 539 539 539>
VStem: 73 147<0 692 0 692> 392 147<108 692>
AnchorPoint: "Anchor-14" 0 0 basechar 0
AnchorPoint: "Anchor-13" 0 0 basechar 0
AnchorPoint: "Anchor-12" 465 692 basechar 0
AnchorPoint: "Anchor-11" 209 0 basechar 0
AnchorPoint: "Anchor-10" 147 0 basechar 0
LayerCount: 2
Back
Fore
SplineSet
220 692 m 1
 220 0 l 1
 73 0 l 1
 73 692 l 1
 220 692 l 1
539 692 m 1
 539 103 l 2
 539 -65 442 -124 326 -162 c 1
 287 -57 l 1
 377 -22 392 24 392 108 c 2
 392 692 l 1
 539 692 l 1
EndSplineSet
Substitution2: "'c2sc' Capitals to Small Capitals lookup 26 subtable" ij.sc
Substitution2: "'aalt' Access All Alternates lookup 0 subtable" ij.sc
Position2: "'cpsp' Capital Spacing lookup 0 subtable" dx=5 dy=0 dh=10 dv=0
EndChar
StartChar: ij
Encoding: 307 307 492
Width: 563
GlyphClass: 2
Flags: MW
HStem: -219 21G<291 291> 0 21G<70 212 70 70> 510 20G<70 212 212 212 351 493 493 493> 637 166<114.5 165.5 396.5 447.5>
VStem: 54 173<696.5 743.5> 70 142<0 530 0 530> 336 173<696.5 743.5> 351 142<44 53 53 530>
AnchorPoint: "Anchor-14" 0 0 basechar 0
AnchorPoint: "Anchor-13" 0 0 basechar 0
AnchorPoint: "Anchor-12" 424 803 basechar 0
AnchorPoint: "Anchor-11" 203 0 basechar 0
AnchorPoint: "Anchor-10" 422 -208 basechar 0
LayerCount: 2
Back
Fore
SplineSet
140 803 m 0xfa
 191 803 227 767 227 720 c 0
 227 673 191 637 140 637 c 0
 89 637 54 673 54 720 c 0
 54 767 89 803 140 803 c 0xfa
422 803 m 0
 473 803 509 767 509 720 c 0
 509 673 473 637 422 637 c 0
 371 637 336 673 336 720 c 0
 336 767 371 803 422 803 c 0
212 530 m 1xf5
 212 0 l 1
 70 0 l 1
 70 530 l 1
 212 530 l 1xf5
493 530 m 1
 493 53 l 2
 493 -114 412 -172 291 -219 c 1
 244 -116 l 1
 312 -84 351 -56 351 44 c 2
 351 530 l 1
 493 530 l 1
EndSplineSet
Substitution2: "'smcp' Lowercase to Small Capitals lookup 27 subtable" ij.sc
Substitution2: "'aalt' Access All Alternates lookup 0 subtable" ij.sc
EndChar

StartChar: Jcircumflex
Encoding: 308 308 55
Width: 314
GlyphClass: 2
Flags: MW
HStem: 672 20G<98 245 245 245>
VStem: 98 147<108 692>
AnchorPoint: "Anchor-11" 0 0 basechar 0
AnchorPoint: "Anchor-10" 0 0 basechar 0
AnchorPoint: "Anchor-9" 171 692 basechar 0
AnchorPoint: "Anchor-8" 0 0 basechar 0
LayerCount: 2
Fore
SplineSet
172 839 m 1
 41 756 l 1
 -12 816 l 1
 128 940 l 1
 216 940 l 1
 356 816 l 1
 304 756 l 1
 172 839 l 1
245 103 m 2
 245 -65 148 -124 32 -162 c 1
 -7 -57 l 1
 83 -22 98 24 98 108 c 2
 98 692 l 1
 245 692 l 1
 245 103 l 2
EndSplineSet
Substitution2: "'c2sc' Capitals to Small Capitals lookup 23 subtable" jcircumflex.sc
Substitution2: "'aalt' Access All Alternates lookup 0 subtable" jcircumflex.sc
Position2: "'cpsp' Capital Spacing lookup 0 subtable" dx=5 dy=0 dh=10 dv=0
EndChar
StartChar: jcircumflex
Encoding: 309 309 501
Width: 281
GlyphClass: 2
Flags: MW
HStem: -219 21G<9 9> 510 20G<69 211 211 211>
VStem: 69 142<44 53 53 530>
AnchorPoint: "Anchor-14" 0 0 basechar 0
AnchorPoint: "Anchor-13" 0 0 basechar 0
AnchorPoint: "Anchor-12" 143 815 basechar 0
AnchorPoint: "Anchor-11" 0 0 basechar 0
AnchorPoint: "Anchor-10" 140 -208 basechar 0
LayerCount: 2
Back
Fore
SplineSet
9 624 m 1
 -43 684 l 1
 97 815 l 1
 185 815 l 1
 325 684 l 1
 272 624 l 1
 141 713 l 1
 9 624 l 1
211 530 m 1
 211 53 l 2
 211 -114 130 -172 9 -219 c 1
 -38 -116 l 1
 30 -84 69 -56 69 44 c 2
 69 530 l 1
 211 530 l 1
EndSplineSet
Substitution2: "'smcp' Lowercase to Small Capitals lookup 27 subtable" jcircumflex.sc
Substitution2: "'aalt' Access All Alternates lookup 0 subtable" jcircumflex.sc
EndChar

StartChar: Kcommaaccent
Encoding: 310 310 57
Width: 622
GlyphClass: 2
Flags: MW
HStem: -203 21G<280 280> 0 21G<73 220 73 73 459 459 459 631> 672 20G<73 220 220 220 456 613 613 613>
VStem: 73 147<0 692> 250 147<-154 -122>
AnchorPoint: "Anchor-11" 322 0 basechar 0
AnchorPoint: "Anchor-10" 0 0 basechar 0
AnchorPoint: "Anchor-9" 329 692 basechar 0
AnchorPoint: "Anchor-8" 0 0 basechar 0
LayerCount: 2
Fore
SplineSet
220 0 m 1
 73 0 l 1
 73 692 l 1
 220 692 l 1
 220 0 l 1
382 380 m 1
 631 0 l 1
 459 0 l 1
 226 369 l 1
 456 692 l 1
 613 692 l 1
 382 380 l 1
324 -70 m 0xf8
 366 -70 397 -101 397 -142 c 0
 397 -166 390 -185 371 -225 c 2
 325 -318 l 1
 253 -318 l 1
 280 -203 l 1
 262 -188 250 -169 250 -142 c 0
 250 -102 282 -70 324 -70 c 0xf8
EndSplineSet
Substitution2: "'c2sc' Capitals to Small Capitals lookup 23 subtable" kcommaaccent.sc
Substitution2: "'aalt' Access All Alternates lookup 0 subtable" kcommaaccent.sc
Position2: "'cpsp' Capital Spacing lookup 0 subtable" dx=5 dy=0 dh=10 dv=0
EndChar

StartChar: kcommaaccent
Encoding: 311 311 192
Width: 542
GlyphClass: 2
Flags: MW
HStem: -203 21G<228 228> 0 21G<70 212 70 70 388 388 388 549> 510 20G<387 534 534 534> 721 20G<70 70> 737 20G<212 212>
VStem: 70 142<0 741 741 741> 198 147<-154 -122>
AnchorPoint: "Anchor-11" 271 0 basechar 0
AnchorPoint: "Anchor-10" 0 0 basechar 0
AnchorPoint: "Anchor-9" 0 0 basechar 0
AnchorPoint: "Anchor-8" 0 0 basechar 0
LayerCount: 2
Fore
SplineSet
212 0 m 1xec
 70 0 l 1
 70 741 l 1xf4
 212 757 l 1
 212 0 l 1xec
365 297 m 1
 549 0 l 1
 388 0 l 1
 217 290 l 1
 387 530 l 1
 534 530 l 1
 365 297 l 1
272 -70 m 0xea
 314 -70 345 -101 345 -142 c 0
 345 -166 338 -185 319 -225 c 2
 273 -318 l 1
 201 -318 l 1
 228 -203 l 1
 210 -188 198 -169 198 -142 c 0
 198 -102 230 -70 272 -70 c 0xea
EndSplineSet
Substitution2: "'smcp' Lowercase to Small Capitals lookup 24 subtable" kcommaaccent.sc
Substitution2: "'aalt' Access All Alternates lookup 0 subtable" kcommaaccent.sc
EndChar

StartChar: kgreenlandic
Encoding: 312 312 193
Width: 541
GlyphClass: 2
Flags: MW
HStem: 0 21G<70 212 70 70 386 386 386 548> 510 20G<70 212 212 212 385 532 532 532>
VStem: 70 142<0 530>
LayerCount: 2
Fore
SplineSet
212 0 m 1
 70 0 l 1
 70 530 l 1
 212 530 l 1
 212 0 l 1
363 287 m 1
 548 0 l 1
 386 0 l 1
 215 280 l 1
 385 530 l 1
 532 530 l 1
 363 287 l 1
EndSplineSet
Substitution2: "'smcp' Lowercase to Small Capitals lookup 24 subtable" kgreenlandic.sc
Substitution2: "'aalt' Access All Alternates lookup 0 subtable" kgreenlandic.sc
EndChar
StartChar: Lacute
Encoding: 313 313 146
Width: 509
GlyphClass: 2
Flags: MW
HStem: 0 118<220 478> 672 20G<73 220 220 220>
VStem: 73 147<118 692 118 692 118 692>
AnchorPoint: "Anchor-14" 396 397 basechar 0
AnchorPoint: "Anchor-13" 236 692 basechar 0
AnchorPoint: "Anchor-12" 149 945 basechar 0
AnchorPoint: "Anchor-11" 0 0 basechar 0
AnchorPoint: "Anchor-10" 276 0 basechar 0
LayerCount: 2
Back
Fore
SplineSet
227 945 m 1
 282 837 l 1
 48 752 l 1
 12 825 l 1
 227 945 l 1
220 692 m 1
 220 118 l 1
 494 118 l 1
 478 0 l 1
 73 0 l 1
 73 692 l 1
 220 692 l 1
EndSplineSet
Substitution2: "'c2sc' Capitals to Small Capitals lookup 26 subtable" lacute.sc
Substitution2: "'aalt' Access All Alternates lookup 0 subtable" lacute.sc
Position2: "'cpsp' Capital Spacing lookup 0 subtable" dx=5 dy=0 dh=10 dv=0
EndChar

StartChar: lacute
Encoding: 314 314 195
Width: 296
GlyphClass: 2
Flags: MW
HStem: -16 21G<155 214> -16 113<155 240> 721 20G<65 65> 737 20G<207 207>
VStem: 65 142<126 139 139 741 741 741>
AnchorPoint: "Anchor-11" 165 0 basechar 0
AnchorPoint: "Anchor-10" 0 0 basechar 0
AnchorPoint: "Anchor-9" 136 741 basechar 0
AnchorPoint: "Anchor-8" 0 0 basechar 0
LayerCount: 2
Fore
SplineSet
270 886 m 1x98
 36 801 l 1
 0 874 l 1
 215 994 l 1
 270 886 l 1x98
207 139 m 2x58
 207 109 216 97 235 97 c 0
 245 97 256 99 264 103 c 1x58
 293 2 l 1
 266 -9 231 -16 197 -16 c 0
 113 -16 65 34 65 126 c 2
 65 741 l 1xa8
 207 757 l 1
 207 139 l 2x58
EndSplineSet
Substitution2: "'smcp' Lowercase to Small Capitals lookup 24 subtable" lacute.sc
Substitution2: "'aalt' Access All Alternates lookup 0 subtable" lacute.sc
EndChar

StartChar: Lcommaaccent
Encoding: 315 315 61
Width: 509
GlyphClass: 2
Flags: MW
HStem: -203 21G<234 234> 0 118<220 478> 672 20G<73 220 220 220>
VStem: 73 147<118 118 118 692> 204 147<-154 -122>
AnchorPoint: "Anchor-11" 276 0 basechar 0
AnchorPoint: "Anchor-10" 0 0 basechar 0
AnchorPoint: "Anchor-9" 147 692 basechar 0
AnchorPoint: "Anchor-8" 0 0 basechar 0
LayerCount: 2
Fore
SplineSet
220 118 m 1xf0
 494 118 l 1
 478 0 l 1
 73 0 l 1
 73 692 l 1
 220 692 l 1
 220 118 l 1xf0
278 -70 m 0xe8
 320 -70 351 -101 351 -142 c 0
 351 -166 344 -185 325 -225 c 2
 279 -318 l 1
 207 -318 l 1
 234 -203 l 1
 216 -188 204 -169 204 -142 c 0
 204 -102 236 -70 278 -70 c 0xe8
EndSplineSet
Substitution2: "'c2sc' Capitals to Small Capitals lookup 23 subtable" lcommaaccent.sc
Substitution2: "'aalt' Access All Alternates lookup 0 subtable" lcommaaccent.sc
Position2: "'cpsp' Capital Spacing lookup 0 subtable" dx=5 dy=0 dh=10 dv=0
EndChar

StartChar: lcommaaccent
Encoding: 316 316 197
Width: 296
GlyphClass: 2
Flags: MW
HStem: -203 21G<123 123> -16 21G<155 214> -16 113<155 240> 721 20G<65 65> 737 20G<207 207>
VStem: 65 142<126 139 139 741 741 741> 93 147<-154 -122>
AnchorPoint: "Anchor-11" 165 0 basechar 0
AnchorPoint: "Anchor-10" 0 0 basechar 0
AnchorPoint: "Anchor-9" 136 741 basechar 0
AnchorPoint: "Anchor-8" 0 0 basechar 0
LayerCount: 2
Fore
SplineSet
207 139 m 2xac
 207 109 216 97 235 97 c 0
 245 97 256 99 264 103 c 1xac
 293 2 l 1
 266 -9 231 -16 197 -16 c 0
 113 -16 65 34 65 126 c 2
 65 741 l 1xd4
 207 757 l 1
 207 139 l 2xac
167 -70 m 0xca
 209 -70 240 -101 240 -142 c 0
 240 -166 233 -185 214 -225 c 2
 168 -318 l 1
 96 -318 l 1
 123 -203 l 1
 105 -188 93 -169 93 -142 c 0
 93 -102 125 -70 167 -70 c 0xca
EndSplineSet
Substitution2: "'smcp' Lowercase to Small Capitals lookup 24 subtable" lcommaaccent.sc
Substitution2: "'aalt' Access All Alternates lookup 0 subtable" lcommaaccent.sc
EndChar
StartChar: Lcaron
Encoding: 317 317 148
Width: 509
GlyphClass: 2
Flags: MW
HStem: 0 118<220 478> 672 20G<73 220 220 220 398 398> 687 20G<288 288>
VStem: 73 147<118 692 118 692 118 692>
AnchorPoint: "Anchor-14" 396 397 basechar 0
AnchorPoint: "Anchor-13" 236 692 basechar 0
AnchorPoint: "Anchor-12" 147 692 basechar 0
AnchorPoint: "Anchor-11" 0 0 basechar 0
AnchorPoint: "Anchor-10" 276 0 basechar 0
LayerCount: 2
Back
Fore
SplineSet
288 707 m 1xb0
 398 692 l 1xd0
 344 484 l 1
 266 496 l 1
 288 707 l 1xb0
220 692 m 1
 220 118 l 1
 494 118 l 1
 478 0 l 1
 73 0 l 1
 73 692 l 1
 220 692 l 1
EndSplineSet
Substitution2: "'c2sc' Capitals to Small Capitals lookup 26 subtable" lcaron.sc
Substitution2: "'aalt' Access All Alternates lookup 0 subtable" lcaron.sc
Position2: "'cpsp' Capital Spacing lookup 0 subtable" dx=5 dy=0 dh=10 dv=0
EndChar
StartChar: lcaron
Encoding: 318 318 517
Width: 351
GlyphClass: 2
Flags: MW
HStem: -16 21G<159 220> -16 113<159 241.5> 525 20G<248 248> 721 20G<65 65 380 380> 736 20G<270 270> 737 20G<207 207>
VStem: 65 142<128 132 132 741 741 741>
AnchorPoint: "Anchor-14" 340 377 basechar 0
AnchorPoint: "Anchor-13" 218 741 basechar 0
AnchorPoint: "Anchor-12" 136 741 basechar 0
AnchorPoint: "Anchor-11" 0 0 basechar 0
AnchorPoint: "Anchor-10" 182 0 basechar 0
LayerCount: 2
Back
Fore
SplineSet
202 -16 m 0xa6
 116 -16 65 36 65 128 c 2
 65 741 l 1xb2
 207 757 l 1
 207 132 l 2
 207 109 216 97 236 97 c 0
 247 97 256 99 264 103 c 1x66
 293 2 l 1
 270 -8 238 -16 202 -16 c 0xa6
270 756 m 1xaa
 380 741 l 1xb2
 326 533 l 1
 248 545 l 1
 270 756 l 1xaa
EndSplineSet
Substitution2: "'smcp' Lowercase to Small Capitals lookup 27 subtable" lcaron.sc
Substitution2: "'aalt' Access All Alternates lookup 0 subtable" lcaron.sc
EndChar

StartChar: Ldot
Encoding: 319 319 62
Width: 509
GlyphClass: 2
Flags: MW
HStem: 0 118<220 478> 312 166<370.5 421.5> 672 20G<73 220 220 220>
VStem: 73 147<118 118 118 692> 310 173<371.5 418.5>
AnchorPoint: "Anchor-11" 276 0 basechar 0
AnchorPoint: "Anchor-10" 0 0 basechar 0
AnchorPoint: "Anchor-9" 147 692 basechar 0
AnchorPoint: "Anchor-8" 0 0 basechar 0
LayerCount: 2
Fore
SplineSet
220 118 m 1
 494 118 l 1
 478 0 l 1
 73 0 l 1
 73 692 l 1
 220 692 l 1
 220 118 l 1
396 478 m 0
 447 478 483 442 483 395 c 0
 483 348 447 312 396 312 c 0
 345 312 310 348 310 395 c 0
 310 442 345 478 396 478 c 0
EndSplineSet
Ligature2: "Ligature Substitution lookup 29 subtable" L periodcentered
Substitution2: "'c2sc' Capitals to Small Capitals lookup 23 subtable" ldot.sc
Substitution2: "'aalt' Access All Alternates lookup 0 subtable" ldot.sc
Position2: "'cpsp' Capital Spacing lookup 0 subtable" dx=5 dy=0 dh=10 dv=0
EndChar

StartChar: ldot
Encoding: 320 320 198
Width: 420
GlyphClass: 2
Flags: MW
HStem: -16 21G<155 214> -16 113<155 240> 292 166<316.5 367.5> 721 20G<65 65> 737 20G<207 207>
VStem: 65 142<126 139 139 741 741 741> 256 173<351.5 398.5>
AnchorPoint: "Anchor-11" 165 0 basechar 0
AnchorPoint: "Anchor-10" 0 0 basechar 0
AnchorPoint: "Anchor-9" 136 741 basechar 0
AnchorPoint: "Anchor-8" 0 0 basechar 0
LayerCount: 2
Fore
SplineSet
207 139 m 2x6c
 207 109 216 97 235 97 c 0
 245 97 256 99 264 103 c 1x6c
 293 2 l 1
 266 -9 231 -16 197 -16 c 0
 113 -16 65 34 65 126 c 2
 65 741 l 1xb4
 207 757 l 1
 207 139 l 2x6c
342 458 m 0xae
 393 458 429 422 429 375 c 0
 429 328 393 292 342 292 c 0
 291 292 256 328 256 375 c 0
 256 422 291 458 342 458 c 0xae
EndSplineSet
Ligature2: "Ligature Substitution lookup 29 subtable" l periodcentered
Substitution2: "'smcp' Lowercase to Small Capitals lookup 24 subtable" ldot.sc
Substitution2: "'aalt' Access All Alternates lookup 0 subtable" ldot.sc
EndChar

StartChar: Lslash
Encoding: 321 321 63
Width: 543
GlyphClass: 2
Flags: MW
HStem: 0 118<254 512> 672 20G<107 254 254 254>
VStem: 107 147<118 232 232 232 434 692>
AnchorPoint: "Anchor-11" 310 0 basechar 0
AnchorPoint: "Anchor-10" 0 0 basechar 0
AnchorPoint: "Anchor-9" 181 692 basechar 0
AnchorPoint: "Anchor-8" 0 0 basechar 0
LayerCount: 2
Fore
SplineSet
528 118 m 1
 512 0 l 1
 107 0 l 1
 107 232 l 1
 61 204 l 1
 12 284 l 1
 107 343 l 1
 107 692 l 1
 254 692 l 1
 254 434 l 1
 390 518 l 1
 440 438 l 1
 254 323 l 1
 254 118 l 1
 528 118 l 1
EndSplineSet
Substitution2: "'c2sc' Capitals to Small Capitals lookup 23 subtable" lslash.sc
Substitution2: "'aalt' Access All Alternates lookup 0 subtable" lslash.sc
Position2: "'cpsp' Capital Spacing lookup 0 subtable" dx=5 dy=0 dh=10 dv=0
EndChar
StartChar: lslash
Encoding: 322 322 528
Width: 347
GlyphClass: 2
Flags: MW
HStem: -16 21G<182 243> -16 113<182 264.5> 721 20G<88 88> 737 20G<230 230>
VStem: 88 142<128 132 132 276 276 276 472 741 741 741>
AnchorPoint: "Anchor-14" 363 377 basechar 0
AnchorPoint: "Anchor-13" 241 741 basechar 0
AnchorPoint: "Anchor-12" 159 741 basechar 0
AnchorPoint: "Anchor-11" 0 0 basechar 0
AnchorPoint: "Anchor-10" 205 0 basechar 0
LayerCount: 2
Back
Fore
SplineSet
259 97 m 0x58
 270 97 279 99 287 103 c 1x58
 316 2 l 1
 293 -8 261 -16 225 -16 c 0
 139 -16 88 36 88 128 c 2
 88 276 l 1
 44 249 l 1
 -4 328 l 1
 88 386 l 1
 88 741 l 1xa8
 230 757 l 1
 230 472 l 1
 303 516 l 1
 350 436 l 1
 230 363 l 1
 230 132 l 2
 230 109 239 97 259 97 c 0x58
EndSplineSet
Substitution2: "'smcp' Lowercase to Small Capitals lookup 27 subtable" lslash.sc
Substitution2: "'aalt' Access All Alternates lookup 0 subtable" lslash.sc
EndChar
StartChar: Nacute
Encoding: 323 323 161
Width: 668
GlyphClass: 2
Flags: MW
HStem: 0 21G<73 206 73 73 406 595 406 406> 0 142<482 482 482 595 406 482> 549 143<186 186> 672 20G<73 258 258 258 462 595 595 595>
VStem: 73 133<0 269 0 692> 462 133<388 692 0 692>
AnchorPoint: "Anchor-14" 0 0 basechar 0
AnchorPoint: "Anchor-13" 0 0 basechar 0
AnchorPoint: "Anchor-12" 342 945 basechar 0
AnchorPoint: "Anchor-11" 0 0 basechar 0
AnchorPoint: "Anchor-10" 335 0 basechar 0
LayerCount: 2
Back
Fore
SplineSet
420 945 m 1x9c
 475 837 l 1
 241 752 l 1
 205 825 l 1
 420 945 l 1x9c
595 692 m 1
 595 0 l 1
 406 0 l 1
 186 549 l 1xac
 194 487 206 397 206 269 c 2
 206 0 l 1
 73 0 l 1
 73 692 l 1
 258 692 l 1
 482 142 l 1x5c
 475 189 462 285 462 388 c 2
 462 692 l 1
 595 692 l 1
EndSplineSet
Substitution2: "'c2sc' Capitals to Small Capitals lookup 26 subtable" nacute.sc
Substitution2: "'locl' Localized Forms in Latin lookup 7 subtable" Nacute.loclPLK
AlternateSubs2: "'aalt' Access All Alternates lookup 1 subtable" Nacute.loclPLK nacute.sc
Position2: "'cpsp' Capital Spacing lookup 0 subtable" dx=5 dy=0 dh=10 dv=0
EndChar

StartChar: nacute
Encoding: 324 324 202
Width: 579
GlyphClass: 2
Flags: MW
HStem: 0 21G<70 212 70 70 372 514 372 372> 440 106<293.5 412.5> 510 20G<70 193 193 193>
VStem: 70 142<0 366 0 530> 372 142<0 362 362 386 0 392.5>
AnchorPoint: "Anchor-11" 290 0 basechar 0
AnchorPoint: "Anchor-10" 0 0 basechar 0
AnchorPoint: "Anchor-9" 295 530 basechar 0
AnchorPoint: "Anchor-8" 0 0 basechar 0
LayerCount: 2
Fore
SplineSet
190 626 m 1xb8
 150 699 l 1
 364 827 l 1
 420 718 l 1
 190 626 l 1xb8
366 546 m 0xd8
 459 546 514 486 514 386 c 2
 514 0 l 1
 372 0 l 1
 372 362 l 2
 372 423 350 440 314 440 c 0
 273 440 241 413 212 366 c 1xd8
 212 0 l 1
 70 0 l 1
 70 530 l 1
 193 530 l 1xb8
 204 463 l 1
 247 516 298 546 366 546 c 0xd8
EndSplineSet
Substitution2: "'smcp' Lowercase to Small Capitals lookup 24 subtable" nacute.sc
Substitution2: "'locl' Localized Forms in Latin lookup 7 subtable" nacute.loclPLK
AlternateSubs2: "'aalt' Access All Alternates lookup 1 subtable" nacute.loclPLK nacute.sc
EndChar

StartChar: Ncommaaccent
Encoding: 325 325 68
Width: 668
GlyphClass: 2
Flags: MW
HStem: -203 21G<293 293> 0 21G<73 206 73 73 406 595 406 406> 0 142<482 482 482 595 406 482> 549 143<186 186> 672 20G<73 258 258 258 462 595 595 595>
VStem: 73 133<0 269 0 692> 263 147<-154 -122> 462 133<388 692>
AnchorPoint: "Anchor-11" 335 0 basechar 0
AnchorPoint: "Anchor-10" 0 0 basechar 0
AnchorPoint: "Anchor-9" 340 692 basechar 0
AnchorPoint: "Anchor-8" 0 0 basechar 0
LayerCount: 2
Fore
SplineSet
595 0 m 1xcd
 406 0 l 1
 186 549 l 1xd7
 194 487 206 397 206 269 c 2
 206 0 l 1
 73 0 l 1
 73 692 l 1
 258 692 l 1
 482 142 l 1xad
 475 189 462 285 462 388 c 2
 462 692 l 1
 595 692 l 1
 595 0 l 1xcd
337 -70 m 0
 379 -70 410 -101 410 -142 c 0
 410 -166 403 -185 384 -225 c 2
 338 -318 l 1
 266 -318 l 1
 293 -203 l 1
 275 -188 263 -169 263 -142 c 0
 263 -102 295 -70 337 -70 c 0
EndSplineSet
Substitution2: "'c2sc' Capitals to Small Capitals lookup 23 subtable" ncommaaccent.sc
Substitution2: "'aalt' Access All Alternates lookup 0 subtable" ncommaaccent.sc
Position2: "'cpsp' Capital Spacing lookup 0 subtable" dx=5 dy=0 dh=10 dv=0
EndChar
StartChar: ncommaaccent
Encoding: 326 326 542
Width: 579
GlyphClass: 2
Flags: MW
HStem: 0 21G<70 212 70 70 372 514 372 372> 440 106<293.5 412.5> 510 20G<70 193 193 193>
VStem: 70 142<0 366 0 530> 218 147<-154 -122> 372 142<0 362 362 386 0 392.5>
AnchorPoint: "Anchor-14" 0 0 basechar 0
AnchorPoint: "Anchor-13" 0 0 basechar 0
AnchorPoint: "Anchor-12" 295 530 basechar 0
AnchorPoint: "Anchor-11" 0 0 basechar 0
AnchorPoint: "Anchor-10" 290 0 basechar 0
LayerCount: 2
Back
Fore
SplineSet
366 546 m 0xd4
 459 546 514 486 514 386 c 2
 514 0 l 1
 372 0 l 1
 372 362 l 2
 372 423 350 440 314 440 c 0
 273 440 241 413 212 366 c 1xd4
 212 0 l 1
 70 0 l 1
 70 530 l 1
 193 530 l 1xb4
 204 463 l 1
 247 516 299 546 366 546 c 0xd4
292 -70 m 0xa8
 334 -70 365 -101 365 -142 c 0
 365 -166 358 -185 339 -225 c 2
 293 -318 l 1
 221 -318 l 1
 248 -203 l 1
 230 -188 218 -169 218 -142 c 0
 218 -102 249 -70 292 -70 c 0xa8
EndSplineSet
Substitution2: "'smcp' Lowercase to Small Capitals lookup 27 subtable" ncommaaccent.sc
Substitution2: "'aalt' Access All Alternates lookup 0 subtable" ncommaaccent.sc
EndChar
StartChar: Ncaron
Encoding: 327 327 163
Width: 668
GlyphClass: 2
Flags: MW
HStem: 0 21G<73 206 73 73 406 595 406 406> 0 142<482 482 482 595 406 482> 549 143<186 186> 672 20G<73 258 258 258 462 595 595 595>
VStem: 73 133<0 269 0 692> 462 133<388 692 0 692>
AnchorPoint: "Anchor-14" 0 0 basechar 0
AnchorPoint: "Anchor-13" 0 0 basechar 0
AnchorPoint: "Anchor-12" 342 935 basechar 0
AnchorPoint: "Anchor-11" 0 0 basechar 0
AnchorPoint: "Anchor-10" 335 0 basechar 0
LayerCount: 2
Back
Fore
SplineSet
472 935 m 1x9c
 524 875 l 1
 384 751 l 1
 296 751 l 1
 156 875 l 1
 209 935 l 1
 340 852 l 1
 472 935 l 1x9c
595 692 m 1
 595 0 l 1
 406 0 l 1
 186 549 l 1xac
 194 487 206 397 206 269 c 2
 206 0 l 1
 73 0 l 1
 73 692 l 1
 258 692 l 1
 482 142 l 1x5c
 475 189 462 285 462 388 c 2
 462 692 l 1
 595 692 l 1
EndSplineSet
Substitution2: "'c2sc' Capitals to Small Capitals lookup 26 subtable" ncaron.sc
Substitution2: "'aalt' Access All Alternates lookup 0 subtable" ncaron.sc
Position2: "'cpsp' Capital Spacing lookup 0 subtable" dx=5 dy=0 dh=10 dv=0
EndChar
StartChar: ncaron
Encoding: 328 328 540
Width: 579
GlyphClass: 2
Flags: MW
HStem: 0 21G<70 212 70 70 372 514 372 372> 440 106<293.5 412.5> 510 20G<70 193 193 193> 726 20G<111 111 479 479>
VStem: 70 142<0 366 0 530> 372 142<0 362 362 386 0 392.5>
AnchorPoint: "Anchor-14" 0 0 basechar 0
AnchorPoint: "Anchor-13" 0 0 basechar 0
AnchorPoint: "Anchor-12" 297 806 basechar 0
AnchorPoint: "Anchor-11" 0 0 basechar 0
AnchorPoint: "Anchor-10" 290 0 basechar 0
LayerCount: 2
Back
Fore
SplineSet
339 615 m 1xbc
 251 615 l 1
 111 746 l 1
 164 806 l 1
 295 717 l 1
 427 806 l 1
 479 746 l 1
 339 615 l 1xbc
366 546 m 0xdc
 459 546 514 486 514 386 c 2
 514 0 l 1
 372 0 l 1
 372 362 l 2
 372 423 350 440 314 440 c 0
 273 440 241 413 212 366 c 1xdc
 212 0 l 1
 70 0 l 1
 70 530 l 1
 193 530 l 1xbc
 204 463 l 1
 247 516 299 546 366 546 c 0xdc
EndSplineSet
Substitution2: "'smcp' Lowercase to Small Capitals lookup 27 subtable" ncaron.sc
Substitution2: "'aalt' Access All Alternates lookup 0 subtable" ncaron.sc
EndChar
StartChar: napostrophe
Encoding: 329 329 539
Width: 700
GlyphClass: 2
Flags: MW
HStem: 0 21G<191 333 191 191 493 635 493 493> 440 106<452.5 453> 510 20G<191 314 314 314> 738 20G<84 121.5>
VStem: 36 133<682.5 711> 191 142<0 366 0 530> 493 142<0 362 362 386 0 392.5>
AnchorPoint: "Anchor-14" 0 0 basechar 0
AnchorPoint: "Anchor-13" 0 0 basechar 0
AnchorPoint: "Anchor-12" 415 530 basechar 0
AnchorPoint: "Anchor-11" 0 0 basechar 0
AnchorPoint: "Anchor-10" 410 0 basechar 0
LayerCount: 2
Back
Fore
SplineSet
103 758 m 0xde
 140 758 169 730 169 693 c 0
 169 672 163 655 144 618 c 2
 103 534 l 1
 38 534 l 1
 63 639 l 1
 47 652 36 670 36 693 c 0
 36 729 65 758 103 758 c 0xde
486 546 m 0
 580 546 635 486 635 386 c 2
 635 0 l 1
 493 0 l 1
 493 362 l 2
 493 423 471 440 435 440 c 0
 394 440 362 413 333 366 c 1xd6
 333 0 l 1
 191 0 l 1
 191 530 l 1
 314 530 l 1xb6
 325 463 l 1
 368 516 419 546 486 546 c 0
EndSplineSet
Substitution2: "'smcp' Lowercase to Small Capitals lookup 27 subtable" napostrophe.sc
Ligature2: "'locl' Localized Forms in Latin lookup 11 subtable" quoteright n
Ligature2: "'locl' Localized Forms in Latin lookup 11 subtable" quotesingle n
Substitution2: "'aalt' Access All Alternates lookup 0 subtable" napostrophe.sc
EndChar
StartChar: Eng
Encoding: 330 330 169
Width: 668
GlyphClass: 2
Flags: MW
HStem: -220 109<376.5 409.5 376.5 463> 0 21G<73 206 73 73 406 447 406 406> 549 143<186 186> 672 20G<73 258 258 258 462 595 595 595>
VStem: 73 133<0 269 0 692> 462 133<388 692>
AnchorPoint: "Anchor-14" 0 0 basechar 0
AnchorPoint: "Anchor-13" 0 0 basechar 0
AnchorPoint: "Anchor-12" 340 692 basechar 0
AnchorPoint: "Anchor-11" 0 0 basechar 0
AnchorPoint: "Anchor-10" 335 0 basechar 0
LayerCount: 2
Back
Fore
SplineSet
595 -38 m 2xdc
 595 -159 520 -220 406 -220 c 0
 344 -220 301 -201 271 -178 c 1
 320 -89 l 1
 344 -103 361 -111 392 -111 c 0
 427 -111 447 -90 447 -47 c 2
 447 0 l 1
 406 0 l 1
 186 549 l 1xec
 194 487 206 397 206 269 c 2
 206 0 l 1
 73 0 l 1
 73 692 l 1
 258 692 l 1
 482 142 l 1
 475 189 462 285 462 388 c 2
 462 692 l 1
 595 692 l 1
 595 -38 l 2xdc
EndSplineSet
Substitution2: "'ss01' Style Set 1 lookup 33 subtable" Eng.ss01
Substitution2: "'salt' Stylistic Alternatives lookup 32 subtable" Eng.ss01
Substitution2: "'c2sc' Capitals to Small Capitals lookup 26 subtable" eng.sc
AlternateSubs2: "'aalt' Access All Alternates lookup 1 subtable" eng.sc Eng.ss01
Position2: "'cpsp' Capital Spacing lookup 0 subtable" dx=5 dy=0 dh=10 dv=0
EndChar

StartChar: eng
Encoding: 331 331 206
Width: 579
GlyphClass: 2
Flags: MW
HStem: -219 21G<312 312> 0 21G<70 212 70 70> 440 106<293.5 412> 510 20G<70 193 193 193>
VStem: 70 142<0 366 0 530> 372 142<44 53 53 362 362 386>
LayerCount: 2
Fore
SplineSet
366 546 m 0xec
 458 546 514 486 514 386 c 2
 514 53 l 2
 514 -114 433 -172 312 -219 c 1
 266 -116 l 1
 334 -84 372 -56 372 44 c 2
 372 362 l 2
 372 423 349 440 314 440 c 0
 273 440 241 413 212 366 c 1xec
 212 0 l 1
 70 0 l 1
 70 530 l 1
 193 530 l 1xdc
 204 463 l 1
 247 516 298 546 366 546 c 0xec
EndSplineSet
Substitution2: "'smcp' Lowercase to Small Capitals lookup 24 subtable" eng.sc
Substitution2: "'aalt' Access All Alternates lookup 0 subtable" eng.sc
EndChar
StartChar: omacron
Encoding: 333 333 582
Width: 584
GlyphClass: 2
Flags: MW
HStem: -16 106<257 327 257 371.5> 440 106<257.5 327.5> 658 100<143 441 143 441>
VStem: 38 148<204 325.5 204 349.5> 143 298<658 758 658 758> 398 148<204.5 326>
AnchorPoint: "Anchor-14" 0 0 basechar 0
AnchorPoint: "Anchor-13" 492 530 basechar 0
AnchorPoint: "Anchor-12" 293 743 basechar 0
AnchorPoint: "Anchor-11" 397 0 basechar 0
AnchorPoint: "Anchor-10" 292 0 basechar 0
LayerCount: 2
Back
Fore
SplineSet
441 658 m 1xe8
 143 658 l 1
 143 758 l 1
 441 758 l 1
 441 658 l 1xe8
293 546 m 0xf4
 451 546 546 441 546 265 c 0
 546 97 451 -16 292 -16 c 0
 134 -16 38 89 38 265 c 0
 38 434 133 546 293 546 c 0xf4
293 440 m 0
 222 440 186 386 186 265 c 0
 186 143 222 90 292 90 c 0
 362 90 398 144 398 265 c 0
 398 387 362 440 293 440 c 0
EndSplineSet
Substitution2: "'smcp' Lowercase to Small Capitals lookup 27 subtable" omacron.sc
Substitution2: "'aalt' Access All Alternates lookup 0 subtable" omacron.sc
EndChar
StartChar: OE
Encoding: 338 338 217
Width: 909
GlyphClass: 2
Flags: MW
HStem: -16 110<293 346> 0 94<293 863 293 419> 0 108<556 863 556 863> 299 106<630 814 630 630> 585 107<560 845 560 560> 598 94<292 861> 598 110<292 347 243 380.5>
VStem: 38 155<255.5 436.5 255.5 459> 478 151<405 405 405 436.5>
LayerCount: 2
Back
Fore
SplineSet
863 108 m 1x3980
 863 0 l 1
 419 0 l 1x3980
 392 -11 362 -16 330 -16 c 0
 156 -16 38 115 38 346 c 0
 38 572 156 708 330 708 c 0x9380
 364 708 395 703 423 692 c 1
 861 692 l 1
 845 585 l 1
 560 585 l 1
 598 537 621 475 629 405 c 1
 814 405 l 1
 814 299 l 1
 630 299 l 1
 623 225 598 158 556 108 c 1
 863 108 l 1x3980
193 346 m 0x5580
 193 165 250 94 336 94 c 0
 425 94 478 165 478 346 c 0
 478 527 425 598 336 598 c 0
 248 598 193 527 193 346 c 0x5580
EndSplineSet
Substitution2: "'c2sc' Capitals to Small Capitals lookup 26 subtable" oe.sc
Substitution2: "'aalt' Access All Alternates lookup 0 subtable" oe.sc
Position2: "'cpsp' Capital Spacing lookup 0 subtable" dx=5 dy=0 dh=10 dv=0
EndChar

StartChar: oe
Encoding: 339 339 219
Width: 912
GlyphClass: 2
Flags: MW
HStem: -16 106<257 326.5 257 331.5 634 691> 222 89<543 736 543 873 543 736> 440 106<257 326.5> 449 97<612.5 675>
VStem: 38 148<204 325.5 204 349> 397 146<222 222 222 311 222 326> 736 140<311 317 317 357>
AnchorPoint: "Anchor-11" 0 0 basechar 0
AnchorPoint: "Anchor-10" 0 0 basechar 0
AnchorPoint: "Anchor-9" 466 530 basechar 0
AnchorPoint: "Anchor-8" 0 0 basechar 0
LayerCount: 2
Fore
SplineSet
876 277 m 0xde
 876 259 875 237 873 222 c 1
 543 222 l 1
 553 120 600 90 668 90 c 0
 714 90 752 104 798 136 c 1
 857 56 l 1
 804 14 738 -16 656 -16 c 0
 571 -16 512 16 470 71 c 1
 429 16 371 -16 292 -16 c 0
 133 -16 38 89 38 265 c 0
 38 433 133 546 292 546 c 0
 370 546 429 515 471 462 c 1
 510 514 565 546 638 546 c 0
 788 546 876 446 876 277 c 0xde
736 311 m 1
 736 317 l 2
 736 397 709 449 641 449 c 0
 584 449 550 411 543 311 c 1
 736 311 l 1
292 90 m 0
 361 90 397 143 397 266 c 0
 397 386 361 440 292 440 c 0xee
 222 440 186 386 186 265 c 0
 186 143 222 90 292 90 c 0
EndSplineSet
Substitution2: "'smcp' Lowercase to Small Capitals lookup 24 subtable" oe.sc
Substitution2: "'aalt' Access All Alternates lookup 0 subtable" oe.sc
EndChar

StartChar: Racute
Encoding: 340 340 87
Width: 614
GlyphClass: 2
Flags: MW
HStem: 0 21G<73 220 73 73 443 443 443 610> 271 104<220 295 220 297> 587 105<220 286 220 220>
VStem: 73 147<0 271 375 587> 416 152<446 520.5>
AnchorPoint: "Anchor-11" 310 0 basechar 0
AnchorPoint: "Anchor-10" 0 0 basechar 0
AnchorPoint: "Anchor-9" 305 692 basechar 0
AnchorPoint: "Anchor-8" 0 0 basechar 0
LayerCount: 2
Fore
SplineSet
205 752 m 1
 169 825 l 1
 384 945 l 1
 439 837 l 1
 205 752 l 1
295 271 m 1
 220 271 l 1
 220 0 l 1
 73 0 l 1
 73 692 l 1
 289 692 l 2
 474 692 568 625 568 485 c 0
 568 393 523 338 431 298 c 1
 610 0 l 1
 443 0 l 1
 295 271 l 1
220 375 m 1
 297 375 l 2
 374 375 416 407 416 485 c 0
 416 556 375 587 286 587 c 2
 220 587 l 1
 220 375 l 1
EndSplineSet
Substitution2: "'c2sc' Capitals to Small Capitals lookup 23 subtable" racute.sc
Substitution2: "'aalt' Access All Alternates lookup 0 subtable" racute.sc
Position2: "'cpsp' Capital Spacing lookup 0 subtable" dx=5 dy=0 dh=10 dv=0
EndChar

StartChar: racute
Encoding: 341 341 224
Width: 397
GlyphClass: 2
Flags: MW
HStem: 0 21G<70 212 70 70> 407 138<313 335> 510 20G<70 193 193 193> 517 20G<397 397>
VStem: 70 142<0 274 0 530>
AnchorPoint: "Anchor-11" 141 0 basechar 0
AnchorPoint: "Anchor-10" 0 0 basechar 0
AnchorPoint: "Anchor-9" 235 530 basechar 0
AnchorPoint: "Anchor-8" 0 0 basechar 0
LayerCount: 2
Fore
SplineSet
130 626 m 1x98
 90 699 l 1
 304 827 l 1
 360 718 l 1
 130 626 l 1x98
344 545 m 0xc8
 363 545 379 542 397 537 c 1x98
 373 400 l 1
 357 404 344 407 326 407 c 0xc8
 261 407 231 359 212 274 c 1
 212 0 l 1
 70 0 l 1
 70 530 l 1
 193 530 l 1xa8
 206 427 l 1
 231 501 282 545 344 545 c 0xc8
EndSplineSet
Substitution2: "'smcp' Lowercase to Small Capitals lookup 24 subtable" racute.sc
Substitution2: "'aalt' Access All Alternates lookup 0 subtable" racute.sc
EndChar
StartChar: Rcommaaccent
Encoding: 342 342 228
Width: 614
GlyphClass: 2
Flags: MW
HStem: 0 21G<73 220 73 73 443 610 443 443> 271 104<220 295 220 297> 587 105<220 220 220 286>
VStem: 73 147<0 271 0 375 375 587> 238 147<-154 -122> 416 152<446 520.5>
AnchorPoint: "Anchor-14" 0 0 basechar 0
AnchorPoint: "Anchor-13" 0 0 basechar 0
AnchorPoint: "Anchor-12" 305 692 basechar 0
AnchorPoint: "Anchor-11" 0 0 basechar 0
AnchorPoint: "Anchor-10" 310 0 basechar 0
LayerCount: 2
Back
Fore
SplineSet
432 298 m 1
 610 0 l 1
 443 0 l 1
 295 271 l 1
 220 271 l 1
 220 0 l 1
 73 0 l 1
 73 692 l 1
 289 692 l 2
 474 692 568 625 568 485 c 0
 568 392 524 337 432 298 c 1
220 587 m 1
 220 375 l 1
 297 375 l 2
 374 375 416 407 416 485 c 0
 416 556 375 587 286 587 c 2
 220 587 l 1
312 -70 m 0xfc
 354 -70 385 -101 385 -142 c 0
 385 -166 378 -185 359 -225 c 2
 313 -318 l 1
 241 -318 l 1
 268 -203 l 1
 250 -188 238 -169 238 -142 c 0
 238 -102 269 -70 312 -70 c 0xfc
EndSplineSet
Substitution2: "'c2sc' Capitals to Small Capitals lookup 26 subtable" rcommaaccent.sc
Substitution2: "'aalt' Access All Alternates lookup 0 subtable" rcommaaccent.sc
Position2: "'cpsp' Capital Spacing lookup 0 subtable" dx=5 dy=0 dh=10 dv=0
EndChar
StartChar: rcommaaccent
Encoding: 343 343 611
Width: 397
GlyphClass: 2
Flags: MW
HStem: 0 21G<70 212 70 70> 407 138<313 335> 510 20G<70 193 193 193> 517 20G<397 397>
VStem: 69 147<-154 -122> 70 142<0 273 0 530>
AnchorPoint: "Anchor-14" 0 0 basechar 0
AnchorPoint: "Anchor-13" 0 0 basechar 0
AnchorPoint: "Anchor-12" 235 530 basechar 0
AnchorPoint: "Anchor-11" 0 0 basechar 0
AnchorPoint: "Anchor-10" 141 0 basechar 0
LayerCount: 2
Back
Fore
SplineSet
344 545 m 0xc4
 363 545 379 542 397 537 c 1x94
 373 400 l 1
 357 404 344 407 326 407 c 0xc4
 261 407 231 359 212 273 c 1
 212 0 l 1
 70 0 l 1
 70 530 l 1
 193 530 l 1xa4
 206 427 l 1
 231 501 282 545 344 545 c 0xc4
143 -70 m 0x98
 185 -70 216 -101 216 -142 c 0
 216 -166 209 -185 190 -225 c 2
 144 -318 l 1
 72 -318 l 1
 99 -203 l 1
 81 -188 69 -169 69 -142 c 0
 69 -102 100 -70 143 -70 c 0x98
EndSplineSet
Substitution2: "'smcp' Lowercase to Small Capitals lookup 27 subtable" rcommaaccent.sc
Substitution2: "'aalt' Access All Alternates lookup 0 subtable" rcommaaccent.sc
EndChar
StartChar: Rcaron
Encoding: 344 344 227
Width: 614
GlyphClass: 2
Flags: MW
HStem: 0 21G<73 220 73 73 443 610 443 443> 271 104<220 295 220 297> 587 105<220 220 220 286>
VStem: 73 147<0 271 0 375 375 587> 416 152<446 520.5>
AnchorPoint: "Anchor-14" 0 0 basechar 0
AnchorPoint: "Anchor-13" 0 0 basechar 0
AnchorPoint: "Anchor-12" 307 935 basechar 0
AnchorPoint: "Anchor-11" 0 0 basechar 0
AnchorPoint: "Anchor-10" 310 0 basechar 0
LayerCount: 2
Back
Fore
SplineSet
349 751 m 1
 261 751 l 1
 121 875 l 1
 174 935 l 1
 305 852 l 1
 437 935 l 1
 489 875 l 1
 349 751 l 1
443 0 m 1
 295 271 l 1
 220 271 l 1
 220 0 l 1
 73 0 l 1
 73 692 l 1
 289 692 l 2
 474 692 568 625 568 485 c 0
 568 392 524 337 432 298 c 1
 610 0 l 1
 443 0 l 1
220 587 m 1
 220 375 l 1
 297 375 l 2
 374 375 416 407 416 485 c 0
 416 556 375 587 286 587 c 2
 220 587 l 1
EndSplineSet
Substitution2: "'c2sc' Capitals to Small Capitals lookup 26 subtable" rcaron.sc
Substitution2: "'aalt' Access All Alternates lookup 0 subtable" rcaron.sc
Position2: "'cpsp' Capital Spacing lookup 0 subtable" dx=5 dy=0 dh=10 dv=0
EndChar

StartChar: rcaron
Encoding: 345 345 225
Width: 397
GlyphClass: 2
Flags: MW
HStem: 0 21G<70 212 70 70> 407 138<313 335> 510 20G<70 193 193 193> 517 20G<397 397> 726 20G<51 51 419 419>
VStem: 70 142<0 274 0 530>
AnchorPoint: "Anchor-11" 141 0 basechar 0
AnchorPoint: "Anchor-10" 0 0 basechar 0
AnchorPoint: "Anchor-9" 235 530 basechar 0
AnchorPoint: "Anchor-8" 0 0 basechar 0
LayerCount: 2
Fore
SplineSet
191 615 m 1x9c
 51 746 l 1
 104 806 l 1
 235 717 l 1
 367 806 l 1
 419 746 l 1
 279 615 l 1
 191 615 l 1x9c
206 427 m 1xcc
 231 501 282 545 344 545 c 0xcc
 363 545 379 542 397 537 c 1x9c
 373 400 l 1
 357 404 344 407 326 407 c 0xcc
 261 407 231 359 212 274 c 1
 212 0 l 1
 70 0 l 1
 70 530 l 1
 193 530 l 1xac
 206 427 l 1xcc
EndSplineSet
Substitution2: "'smcp' Lowercase to Small Capitals lookup 24 subtable" rcaron.sc
Substitution2: "'aalt' Access All Alternates lookup 0 subtable" rcaron.sc
EndChar
StartChar: Sacute
Encoding: 346 346 236
Width: 565
GlyphClass: 2
Flags: MW
HStem: -16 111<229.5 300.5 229.5 353> 598 110<264 322>
VStem: 42 151<499 547.5 499 572> 384 153<159.5 217.5>
AnchorPoint: "Anchor-14" 0 0 basechar 0
AnchorPoint: "Anchor-13" 0 0 basechar 0
AnchorPoint: "Anchor-12" 293 945 basechar 0
AnchorPoint: "Anchor-11" 0 0 basechar 0
AnchorPoint: "Anchor-10" 279 0 basechar 0
LayerCount: 2
Back
Fore
SplineSet
371 945 m 1
 426 837 l 1
 192 752 l 1
 156 825 l 1
 371 945 l 1
284 708 m 0
 387 708 457 677 517 621 c 1
 447 540 l 1
 398 580 350 598 294 598 c 0
 234 598 193 572 193 523 c 0
 193 475 219 455 332 420 c 0
 457 380 537 328 537 200 c 0
 537 73 437 -16 269 -16 c 0
 154 -16 70 25 13 81 c 1
 89 164 l 1
 139 121 194 95 265 95 c 0
 336 95 384 129 384 190 c 0
 384 245 357 269 252 301 c 0
 102 348 42 408 42 513 c 0
 42 631 144 708 284 708 c 0
EndSplineSet
Substitution2: "'c2sc' Capitals to Small Capitals lookup 26 subtable" sacute.sc
Substitution2: "'locl' Localized Forms in Latin lookup 7 subtable" Sacute.loclPLK
AlternateSubs2: "'aalt' Access All Alternates lookup 1 subtable" Sacute.loclPLK sacute.sc
Position2: "'cpsp' Capital Spacing lookup 0 subtable" dx=5 dy=0 dh=10 dv=0
EndChar
StartChar: Scircumflex
Encoding: 348 348 241
Width: 565
GlyphClass: 2
Flags: MW
HStem: -16 111<229.5 300.5 229.5 353> 598 110<264 322>
VStem: 42 151<499 547.5 499 572> 384 153<159.5 217.5>
AnchorPoint: "Anchor-14" 0 0 basechar 0
AnchorPoint: "Anchor-13" 399 819 basechar 0
AnchorPoint: "Anchor-12" 290 940 basechar 0
AnchorPoint: "Anchor-11" 0 0 basechar 0
AnchorPoint: "Anchor-10" 279 0 basechar 0
LayerCount: 2
Back
Fore
SplineSet
422 756 m 1
 290 839 l 1
 159 756 l 1
 106 816 l 1
 246 940 l 1
 334 940 l 1
 474 816 l 1
 422 756 l 1
284 708 m 0
 387 708 457 677 517 621 c 1
 447 540 l 1
 398 580 350 598 294 598 c 0
 234 598 193 572 193 523 c 0
 193 475 219 455 332 420 c 0
 457 380 537 328 537 200 c 0
 537 73 437 -16 269 -16 c 0
 154 -16 70 25 13 81 c 1
 89 164 l 1
 139 121 194 95 265 95 c 0
 336 95 384 129 384 190 c 0
 384 245 357 269 252 301 c 0
 102 348 42 408 42 513 c 0
 42 631 144 708 284 708 c 0
EndSplineSet
Substitution2: "'c2sc' Capitals to Small Capitals lookup 26 subtable" scircumflex.sc
Substitution2: "'aalt' Access All Alternates lookup 0 subtable" scircumflex.sc
Position2: "'cpsp' Capital Spacing lookup 0 subtable" dx=5 dy=0 dh=10 dv=0
EndChar

StartChar: scircumflex
Encoding: 349 349 231
Width: 479
GlyphClass: 2
Flags: MW
HStem: -16 103<196 249 196 290> 443 103<230.5 277>
VStem: 36 143<379.5 409.5 379.5 433> 310 146<126.5 164.5>
AnchorPoint: "Anchor-11" 240 0 basechar 0
AnchorPoint: "Anchor-10" 0 0 basechar 0
AnchorPoint: "Anchor-9" 248 530 basechar 0
AnchorPoint: "Anchor-8" 0 0 basechar 0
LayerCount: 2
Fore
SplineSet
64 684 m 1
 204 815 l 1
 292 815 l 1
 432 684 l 1
 379 624 l 1
 248 713 l 1
 116 624 l 1
 64 684 l 1
246 546 m 0
 323 546 388 522 438 482 c 1
 384 399 l 1
 341 428 298 443 256 443 c 0
 205 443 179 424 179 395 c 0
 179 364 197 350 290 323 c 1
 396 294 456 250 456 156 c 0
 456 46 353 -16 227 -16 c 0
 135 -16 61 15 11 61 c 1
 82 140 l 1
 121 108 170 87 222 87 c 0
 276 87 310 109 310 144 c 0
 310 185 291 198 193 225 c 0
 86 255 36 308 36 388 c 0
 36 478 118 546 246 546 c 0
EndSplineSet
Substitution2: "'smcp' Lowercase to Small Capitals lookup 24 subtable" scircumflex.sc
Substitution2: "'aalt' Access All Alternates lookup 0 subtable" scircumflex.sc
EndChar

StartChar: Scedilla
Encoding: 350 350 93
Width: 565
GlyphClass: 2
Flags: MW
HStem: -257 80<253.5 280 253.5 318.5> -15 21G<234 234> -15 110<234 234> -13 21G<318 318> 598 110<264 322>
VStem: 42 151<499 547.5 499 572> 314 105<-157 -132.5> 384 153<159.5 217.5>
AnchorPoint: "Anchor-11" 279 0 basechar 0
AnchorPoint: "Anchor-10" 0 0 basechar 0
AnchorPoint: "Anchor-9" 291 692 basechar 0
AnchorPoint: "Anchor-8" 0 0 basechar 0
LayerCount: 2
Fore
SplineSet
537 200 m 0x9d
 537 86 456 2 318 -13 c 1
 318 -50 l 1x9e
 388 -57 419 -95 419 -146 c 0
 419 -213 361 -257 276 -257 c 0
 231 -257 193 -245 169 -228 c 1
 202 -160 l 1
 222 -171 241 -177 266 -177 c 0
 294 -177 314 -169 314 -145 c 0
 314 -120 287 -109 222 -109 c 1
 234 -15 l 1xce
 137 -7 64 31 13 81 c 1
 90 165 l 1
 138 121 194 95 265 95 c 0
 336 95 384 129 384 190 c 0xad
 384 245 357 269 252 301 c 0
 102 348 42 408 42 513 c 0
 42 631 144 708 284 708 c 0
 387 708 457 677 517 621 c 1
 446 539 l 1
 398 580 350 598 294 598 c 0
 234 598 193 572 193 523 c 0
 193 475 219 455 332 420 c 1
 457 380 537 328 537 200 c 0x9d
EndSplineSet
Substitution2: "'c2sc' Capitals to Small Capitals lookup 23 subtable" scedilla.sc
Substitution2: "'locl' Localized Forms in Latin lookup 5 subtable" Scommaaccent
Substitution2: "'locl' Localized Forms in Latin lookup 4 subtable" Scommaaccent
AlternateSubs2: "'aalt' Access All Alternates lookup 1 subtable" Scommaaccent scedilla.sc
Position2: "'cpsp' Capital Spacing lookup 0 subtable" dx=5 dy=0 dh=10 dv=0
EndChar

StartChar: scedilla
Encoding: 351 351 230
Width: 479
GlyphClass: 2
Flags: MW
HStem: -257 80<214.5 241 214.5 279.5> -15 21G<195 195> -15 102<195 249> -12 21G<279 279> 443 103<230.5 277>
VStem: 36 143<379.5 409.5 379.5 433> 275 105<-157 -132.5> 310 146<126.5 164.5>
AnchorPoint: "Anchor-11" 240 0 basechar 0
AnchorPoint: "Anchor-10" 0 0 basechar 0
AnchorPoint: "Anchor-9" 248 530 basechar 0
AnchorPoint: "Anchor-8" 0 0 basechar 0
LayerCount: 2
Fore
SplineSet
456 156 m 0x9d
 456 62 380 3 279 -12 c 1
 279 -50 l 1x9e
 349 -57 380 -95 380 -146 c 0
 380 -213 322 -257 237 -257 c 0
 192 -257 154 -245 130 -228 c 1
 163 -160 l 1
 183 -171 202 -177 227 -177 c 0
 255 -177 275 -169 275 -145 c 0
 275 -120 248 -109 183 -109 c 1
 195 -15 l 1xce
 118 -8 55 20 11 61 c 1
 82 140 l 1
 121 108 170 87 222 87 c 0
 276 87 310 109 310 144 c 0xad
 310 185 291 198 193 225 c 0
 86 255 36 308 36 388 c 0
 36 478 118 546 246 546 c 0
 323 546 388 522 438 482 c 1
 384 399 l 1
 341 428 298 443 256 443 c 0
 205 443 179 424 179 395 c 0
 179 364 197 350 290 323 c 1
 396 294 456 250 456 156 c 0x9d
EndSplineSet
Substitution2: "'smcp' Lowercase to Small Capitals lookup 24 subtable" scedilla.sc
Substitution2: "'locl' Localized Forms in Latin lookup 5 subtable" scommaaccent
Substitution2: "'locl' Localized Forms in Latin lookup 4 subtable" scommaaccent
AlternateSubs2: "'aalt' Access All Alternates lookup 1 subtable" scommaaccent scedilla.sc
EndChar
StartChar: Scaron
Encoding: 352 352 239
Width: 565
GlyphClass: 2
Flags: MW
HStem: -16 111<229.5 300.5 229.5 353> 598 110<264 322>
VStem: 42 151<499 547.5 499 572> 384 153<159.5 217.5>
AnchorPoint: "Anchor-14" 0 0 basechar 0
AnchorPoint: "Anchor-13" 0 0 basechar 0
AnchorPoint: "Anchor-12" 293 935 basechar 0
AnchorPoint: "Anchor-11" 0 0 basechar 0
AnchorPoint: "Anchor-10" 279 0 basechar 0
LayerCount: 2
Back
Fore
SplineSet
423 935 m 1
 475 875 l 1
 335 751 l 1
 247 751 l 1
 107 875 l 1
 160 935 l 1
 291 852 l 1
 423 935 l 1
284 708 m 0
 387 708 457 677 517 621 c 1
 447 540 l 1
 398 580 350 598 294 598 c 0
 234 598 193 572 193 523 c 0
 193 475 219 455 332 420 c 0
 457 380 537 328 537 200 c 0
 537 73 437 -16 269 -16 c 0
 154 -16 70 25 13 81 c 1
 89 164 l 1
 139 121 194 95 265 95 c 0
 336 95 384 129 384 190 c 0
 384 245 357 269 252 301 c 0
 102 348 42 408 42 513 c 0
 42 631 144 708 284 708 c 0
EndSplineSet
Substitution2: "'c2sc' Capitals to Small Capitals lookup 26 subtable" scaron.sc
Substitution2: "'aalt' Access All Alternates lookup 0 subtable" scaron.sc
Position2: "'cpsp' Capital Spacing lookup 0 subtable" dx=5 dy=0 dh=10 dv=0
EndChar

StartChar: Tcedilla
Encoding: 354 354 99
Width: 534
GlyphClass: 2
Flags: MW
HStem: -257 80<277 303 276.5 342> 0 21G<194 261 194 194> 577 115<10 194 10 532 341 341 341 516>
VStem: 194 147<0 577> 339 105<-156.5 -132>
AnchorPoint: "Anchor-11" 267 0 basechar 0
AnchorPoint: "Anchor-10" 0 0 basechar 0
AnchorPoint: "Anchor-9" 267 692 basechar 0
AnchorPoint: "Anchor-8" 0 0 basechar 0
LayerCount: 2
Fore
SplineSet
341 -50 m 1xf0
 412 -57 444 -95 444 -146 c 0
 444 -213 385 -257 299 -257 c 0
 255 -257 217 -244 194 -228 c 1
 227 -160 l 1
 247 -171 265 -177 288 -177 c 0
 318 -177 339 -169 339 -144 c 0
 339 -120 312 -109 247 -109 c 1
 261 0 l 1xe8
 194 0 l 1
 194 577 l 1
 10 577 l 1
 10 692 l 1
 532 692 l 1
 516 577 l 1
 341 577 l 1
 341 -50 l 1xf0
EndSplineSet
Substitution2: "'c2sc' Capitals to Small Capitals lookup 23 subtable" tcedilla.sc
Substitution2: "'locl' Localized Forms in Latin lookup 5 subtable" uni021A
Substitution2: "'locl' Localized Forms in Latin lookup 4 subtable" uni021A
AlternateSubs2: "'aalt' Access All Alternates lookup 1 subtable" uni021A tcedilla.sc
Position2: "'cpsp' Capital Spacing lookup 0 subtable" dx=5 dy=0 dh=10 dv=0
EndChar
StartChar: uni0163
Encoding: 355 355 642
Width: 380
GlyphClass: 2
Flags: MW
HStem: -257 80<208.5 235 208.5 273.5> -15 21G<273 273> -15 112<273 273> -8 21G<190 190> 430 100<4 83 4 83 225 333>
VStem: 83 142<166 169 169 430 530 646 646 646> 269 105<-157 -132.5>
AnchorPoint: "Anchor-14" 188 265 basechar 0
AnchorPoint: "Anchor-13" 219 772 basechar 0
AnchorPoint: "Anchor-12" 154 646 basechar 0
AnchorPoint: "Anchor-11" 0 0 basechar 0
AnchorPoint: "Anchor-10" 251 -257 basechar 0
LayerCount: 2
Back
Fore
SplineSet
273 -50 m 1xce
 343 -57 374 -95 374 -146 c 0
 374 -213 316 -257 231 -257 c 0
 186 -257 148 -245 124 -228 c 1
 157 -160 l 1
 177 -171 196 -177 221 -177 c 0
 249 -177 269 -169 269 -145 c 0
 269 -120 242 -109 177 -109 c 1
 190 -8 l 1x9e
 119 12 83 71 83 166 c 2
 83 430 l 1
 4 430 l 1
 4 530 l 1
 83 530 l 1
 83 646 l 1
 225 663 l 1
 225 530 l 1
 347 530 l 1
 333 430 l 1
 225 430 l 1
 225 169 l 2
 225 117 242 97 278 97 c 0
 297 97 316 103 338 116 c 1xae
 387 25 l 1
 354 2 313 -11 273 -15 c 1
 273 -50 l 1xce
EndSplineSet
Substitution2: "'smcp' Lowercase to Small Capitals lookup 27 subtable" uni0163.sc
Substitution2: "'locl' Localized Forms in Latin lookup 5 subtable" uni021B
Substitution2: "'locl' Localized Forms in Latin lookup 4 subtable" uni021B
AlternateSubs2: "'aalt' Access All Alternates lookup 1 subtable" uni021B uni0163.sc
EndChar
StartChar: Tcaron
Encoding: 356 356 249
Width: 534
GlyphClass: 2
Flags: MW
HStem: 0 21G<194 341 194 194> 577 115<10 194 10 532 341 516 341 341>
VStem: 194 147<0 577 0 577>
AnchorPoint: "Anchor-14" 267 346 basechar 0
AnchorPoint: "Anchor-13" 0 0 basechar 0
AnchorPoint: "Anchor-12" 270 935 basechar 0
AnchorPoint: "Anchor-11" 0 0 basechar 0
AnchorPoint: "Anchor-10" 267 0 basechar 0
LayerCount: 2
Back
Fore
SplineSet
400 935 m 1
 452 875 l 1
 312 751 l 1
 224 751 l 1
 84 875 l 1
 137 935 l 1
 268 852 l 1
 400 935 l 1
532 692 m 1
 516 577 l 1
 341 577 l 1
 341 0 l 1
 194 0 l 1
 194 577 l 1
 10 577 l 1
 10 692 l 1
 532 692 l 1
EndSplineSet
Substitution2: "'c2sc' Capitals to Small Capitals lookup 26 subtable" tcaron.sc
Substitution2: "'aalt' Access All Alternates lookup 0 subtable" tcaron.sc
Position2: "'cpsp' Capital Spacing lookup 0 subtable" dx=5 dy=0 dh=10 dv=0
EndChar
StartChar: tcaron
Encoding: 357 357 640
Width: 380
GlyphClass: 2
Flags: MW
HStem: -16 113<260 272.5> 430 100<4 83 4 83 225 333> 556 20G<249 249>
VStem: 83 142<166 169 169 430 530 646 646 646>
AnchorPoint: "Anchor-14" 188 265 basechar 0
AnchorPoint: "Anchor-13" 219 772 basechar 0
AnchorPoint: "Anchor-12" 154 646 basechar 0
AnchorPoint: "Anchor-11" 0 0 basechar 0
AnchorPoint: "Anchor-10" 234 0 basechar 0
LayerCount: 2
Back
Fore
SplineSet
381 772 m 1
 327 564 l 1
 249 576 l 1
 271 787 l 1
 381 772 l 1
338 116 m 1
 387 25 l 1
 348 -2 296 -16 249 -16 c 0
 139 -15 83 48 83 166 c 2
 83 430 l 1
 4 430 l 1
 4 530 l 1
 83 530 l 1
 83 646 l 1
 225 663 l 1
 225 530 l 1
 347 530 l 1
 333 430 l 1
 225 430 l 1
 225 169 l 2
 225 117 242 97 278 97 c 0
 297 97 316 103 338 116 c 1
EndSplineSet
Substitution2: "'smcp' Lowercase to Small Capitals lookup 27 subtable" tcaron.sc
Substitution2: "'aalt' Access All Alternates lookup 0 subtable" tcaron.sc
EndChar
StartChar: Tbar
Encoding: 358 358 248
Width: 536
GlyphClass: 2
Flags: MW
HStem: -1 21G<194 341 194 194> 302 87<77 194 77 194 341 458> 576 115<10 194 10 532 341 516 341 341>
VStem: 194 147<-1 302 -1 302 389 576>
AnchorPoint: "Anchor-14" 267 345 basechar 0
AnchorPoint: "Anchor-13" 0 0 basechar 0
AnchorPoint: "Anchor-12" 267 691 basechar 0
AnchorPoint: "Anchor-11" 0 0 basechar 0
AnchorPoint: "Anchor-10" 267 -1 basechar 0
LayerCount: 2
Back
Fore
SplineSet
516 576 m 1
 341 576 l 1
 341 389 l 1
 458 389 l 1
 458 302 l 1
 341 302 l 1
 341 -1 l 1
 194 -1 l 1
 194 302 l 1
 77 302 l 1
 77 389 l 1
 194 389 l 1
 194 576 l 1
 10 576 l 1
 10 691 l 1
 532 691 l 1
 516 576 l 1
EndSplineSet
Substitution2: "'c2sc' Capitals to Small Capitals lookup 26 subtable" tbar.sc
Substitution2: "'aalt' Access All Alternates lookup 0 subtable" tbar.sc
Position2: "'cpsp' Capital Spacing lookup 0 subtable" dx=5 dy=0 dh=10 dv=0
EndChar
StartChar: Utilde
Encoding: 360 360 289
Width: 654
GlyphClass: 2
Flags: MW
HStem: -16 112<286 366.5 286 413.5> 672 20G<63 210 210 210 443 590 590 590> 766 102<367 395 367 413> 812 102<258.5 287>
VStem: 63 147<228 235 235 692> 443 147<235 692>
AnchorPoint: "Anchor-14" 0 0 basechar 0
AnchorPoint: "Anchor-13" 600 692 basechar 0
AnchorPoint: "Anchor-12" 329 914 basechar 0
AnchorPoint: "Anchor-11" 443 0 basechar 0
AnchorPoint: "Anchor-10" 327 0 basechar 0
LayerCount: 2
Back
Fore
SplineSet
385 766 m 0xec
 328 766 304 812 270 812 c 0
 247 812 233 796 217 767 c 1
 144 803 l 1
 168 863 211 914 268 914 c 0xdc
 328 914 350 868 384 868 c 0
 406 868 420 883 437 912 c 1
 510 876 l 1
 484 811 441 766 385 766 c 0xec
590 692 m 1xdc
 590 228 l 2
 590 89 501 -16 326 -16 c 0
 151 -16 63 84 63 228 c 2
 63 692 l 1
 210 692 l 1
 210 235 l 2
 210 142 246 96 326 96 c 0
 407 96 443 142 443 235 c 2
 443 692 l 1
 590 692 l 1xdc
EndSplineSet
Substitution2: "'c2sc' Capitals to Small Capitals lookup 26 subtable" utilde.sc
Substitution2: "'aalt' Access All Alternates lookup 0 subtable" utilde.sc
Position2: "'cpsp' Capital Spacing lookup 0 subtable" dx=5 dy=0 dh=10 dv=0
EndChar
